<svg xmlns="http://www.w3.org/2000/svg" viewBox="0 0 127.8 127.42"><defs><style>.cls-1{fill:#e94e1b;}.cls-2{fill:#951b81;}.cls-3{fill: #ffffff;}  .cls-4{fill:#dfaa02;}  .cls-5{fill:#009fe3;}  .cls-6{fill:#009640;}  .cls-7{fill:#662483;}</style></defs><title>logoVirtus</title><g id="Capa_2" data-name="Capa 2"><g id="Capa_1-2" data-name="Capa 1"><path class="cls-1" d="M49.55,113.79a2.72,2.72,0,0,0,0-.43l-.06-.36c0-.11,0-.22-.05-.33a1.83,1.83,0,0,1,0-.35,2.63,2.63,0,0,1,0-.49,1.46,1.46,0,0,1,.15-.43.83.83,0,0,1,.76-.42,1.16,1.16,0,0,1,.65.17,1.3,1.3,0,0,1,.37.44,2,2,0,0,1,.18.61,5.19,5.19,0,0,1,.05.68c0,.19,0,.5-.06.91s-.08.93-.12,1.54-.08,1.33-.11,2.14-.06,1.71-.06,2.69c0,.31,0,.66,0,1a7.14,7.14,0,0,0,.16,1.09,3.26,3.26,0,0,0,.35.91,1,1,0,0,0,.6.5,16,16,0,0,0,1.71-1.88c.51-.68,1-1.36,1.4-2s.8-1.37,1.14-2,.64-1.27.91-1.82l.7-1.45c.2-.44.39-.84.55-1.22s.32-.72.44-1,.24-.63.34-.93l.13-.29a.78.78,0,0,1,.3-.33,1.4,1.4,0,0,1,.84-.2.7.7,0,0,1,.52.16.57.57,0,0,1,.16.44,2.09,2.09,0,0,1,0,.24.7.7,0,0,1-.05.25c-.16.41-.36.88-.62,1.41l-.8,1.69-.82,1.72c-.29.59-.58,1.16-.88,1.73s-.59,1.1-.89,1.62-.6,1-.89,1.43-.61.88-1.06,1.48-1,1.33-1.77,2.18l-.35.37a2.67,2.67,0,0,1-.36.32,1.72,1.72,0,0,1-.42.23,1.3,1.3,0,0,1-.49.09,1.39,1.39,0,0,1-.71-.18,2.22,2.22,0,0,1-.54-.43,2.58,2.58,0,0,1-.41-.57c-.12-.21-.22-.41-.32-.61a5.33,5.33,0,0,1-.31-.8,8.62,8.62,0,0,1-.2-.91c-.06-.32-.1-.64-.13-1s0-.66,0-1c0,0,0-.16,0-.36s0-.46,0-.78,0-.67,0-1.07,0-.81,0-1.25,0-.88,0-1.34,0-.89,0-1.31Z"/><path class="cls-1" d="M62.52,119.45c.06-.26.14-.55.22-.87s.18-.66.28-1,.19-.7.3-1l.29-1c.1-.33.19-.63.27-.91s.16-.52.22-.72c.12-.44.25-.88.36-1.32s.23-.91.34-1.4a1.18,1.18,0,0,1,.54-.56,1.73,1.73,0,0,1,.76-.17,1.44,1.44,0,0,1,.51.47,1.31,1.31,0,0,1,.19.68,2.36,2.36,0,0,1-.09.6c-.06.23-.13.47-.22.73s-.18.54-.29.83-.22.58-.32.88l-.57,1.67c-.19.55-.37,1.14-.55,1.75-.05.16-.1.33-.16.49s-.11.34-.16.53l-.19.63a8,8,0,0,0-.2.81c-.09.36-.16.72-.22,1.08s-.12.72-.17,1.09-.11.73-.18,1.11-.15.74-.25,1.12a.86.86,0,0,1-.17.36,1.23,1.23,0,0,1-.29.27,1.26,1.26,0,0,1-.35.17,1.06,1.06,0,0,1-.34.06,1.56,1.56,0,0,1-.31,0,.39.39,0,0,1-.23-.12.91.91,0,0,1-.19-.29.81.81,0,0,1-.07-.35v-.09a.36.36,0,0,1,0-.1Z"/><path class="cls-1" d="M67.54,124c.38-1.55.78-3.08,1.19-4.59s.82-3,1.2-4.59c0-.21.1-.4.14-.58s.09-.37.14-.55a5.25,5.25,0,0,0,.09-.55,3.73,3.73,0,0,0,0-.59,2.67,2.67,0,0,0,0-.42,2.94,2.94,0,0,1,0-.44,2.34,2.34,0,0,1,.06-.5,2,2,0,0,1,.43-.92,1.1,1.1,0,0,1,.85-.31,2.3,2.3,0,0,1,.45.05l.43.11a3.74,3.74,0,0,0,.48.12,2.83,2.83,0,0,0,.5.05l.4,0,.44,0,.59,0c.23,0,.51,0,.86,0,.19,0,.41,0,.67,0a5.94,5.94,0,0,1,.8.09,6.87,6.87,0,0,1,.84.21,3.42,3.42,0,0,1,.8.37,2.93,2.93,0,0,1,.65.57,2.37,2.37,0,0,1,.43.82,2.66,2.66,0,0,1,.09.42,2.53,2.53,0,0,1,0,.38,2.62,2.62,0,0,1-.32,1.22,4.9,4.9,0,0,1-1,1.27,9.51,9.51,0,0,1-1.41,1.12c-.21.14-.45.29-.73.44l-.82.44-.72.38c-.21.12-.36.2-.44.26l.71.36a6.42,6.42,0,0,1,1.48,1.1,8.47,8.47,0,0,1,.79.91,14.47,14.47,0,0,1,.85,1.29,19.36,19.36,0,0,1,.92,1.74,1.2,1.2,0,0,1,.12.52,1.18,1.18,0,0,1-.32.81,1.06,1.06,0,0,1-.35.28.93.93,0,0,1-.44.11.73.73,0,0,1-.58-.27,2.75,2.75,0,0,1-.45-.69c-.14-.28-.29-.6-.44-1a8.68,8.68,0,0,0-.56-1.09,11.27,11.27,0,0,0-.81-1.11,6.77,6.77,0,0,0-.94-.92,4.92,4.92,0,0,0-1-.61,2.74,2.74,0,0,0-1.06-.23h-.15a2.49,2.49,0,0,0-.57.06,4,4,0,0,1-.48.09.75.75,0,0,1-.45-.36,1.1,1.1,0,0,1-.15-.57v-.14L70,121.7c0,.1-.06.24-.11.41l-.16.58c-.06.21-.13.43-.19.66s-.12.45-.18.65-.11.38-.15.55-.08.28-.1.36a1.27,1.27,0,0,1-.36.4.82.82,0,0,1-.47.15.67.67,0,0,1-.62-.27,1.09,1.09,0,0,1-.17-.62,1.42,1.42,0,0,1,0-.29A2.33,2.33,0,0,1,67.54,124Zm5-11.45-.18.59c-.08.26-.16.55-.26.87l-.3,1-.33,1.12c-.1.38-.21.74-.31,1.09s-.19.67-.28.94a1.92,1.92,0,0,1,.61-.47,7.27,7.27,0,0,1,.92-.39c.26-.09.59-.23,1-.4s.79-.37,1.21-.59.85-.47,1.27-.73a10.79,10.79,0,0,0,1.14-.8,5.28,5.28,0,0,0,.82-.82,1.31,1.31,0,0,0,.31-.8.73.73,0,0,0-.26-.59,1.71,1.71,0,0,0-.66-.33,4.64,4.64,0,0,0-.87-.15l-.88,0a11.92,11.92,0,0,0-1.46.09A7,7,0,0,0,72.52,112.55Z"/><path class="cls-2" d="M86.15,123.64c.25-1.12.54-2.25.86-3.4s.64-2.27.94-3.4c.13-.46.24-.89.34-1.27s.18-.73.25-1a8.07,8.07,0,0,0,.15-.85,4.35,4.35,0,0,0,0-.7v-.14a1.42,1.42,0,0,0,0-.19,2.12,2.12,0,0,0-.45.12c-.23.07-.51.17-.82.29l-1,.41c-.35.15-.68.31-1,.46l-.6.31a3.23,3.23,0,0,1-.41.18,1.58,1.58,0,0,1-.31.1l-.3,0a.71.71,0,0,1-.54-.24.89.89,0,0,1-.23-.63,1.48,1.48,0,0,1,0-.39.94.94,0,0,1,.4-.55,3.33,3.33,0,0,1,.39-.24,22.55,22.55,0,0,1,10.48-2.59l.5,0,.61,0,.6.07a4.66,4.66,0,0,1,.52.11.76.76,0,0,1,.41.29.8.8,0,0,1,.17.48,1.67,1.67,0,0,1,0,.39.73.73,0,0,1-.13.34.84.84,0,0,1-.23.23.68.68,0,0,1-.36.08l-.84-.1a7.57,7.57,0,0,0-1-.06c-.64,0-1.27,0-1.9,0a11.28,11.28,0,0,0-2,.27s0,.05-.06.1,0,.13,0,.22q0,.56-.09,1a6.25,6.25,0,0,1-.17.84c-.07.27-.15.57-.25.9s-.22.7-.36,1.15l-.47,1.61c-.18.63-.38,1.39-.59,2.27l-.49,2c-.12.46-.21.86-.27,1.22s-.12.72-.17,1.08a.58.58,0,0,1-.31.32,1.28,1.28,0,0,1-.63.15.77.77,0,0,1-.39-.11,1,1,0,0,1-.28-.3,1,1,0,0,1-.15-.4A.94.94,0,0,1,86.15,123.64Z"/><path class="cls-2" d="M96.18,120.4q.22-1,.48-1.83c.18-.54.35-1,.52-1.51s.33-.9.48-1.33.28-.86.4-1.31l.12-.49a3.59,3.59,0,0,0,.07-.45c0-.19,0-.38.07-.58s.05-.39.09-.59a2.53,2.53,0,0,1,.18-.53,1.26,1.26,0,0,1,.3-.38.72.72,0,0,1,.47-.15,1.07,1.07,0,0,1,.53.12.91.91,0,0,1,.35.29,1.15,1.15,0,0,1,.19.42,2,2,0,0,1,.06.49,3.1,3.1,0,0,1,0,.43,2.57,2.57,0,0,1-.08.4,7,7,0,0,1-.36,1.06c-.17.41-.36.85-.56,1.34s-.41,1-.62,1.6-.39,1.17-.56,1.81c-.09.36-.18.75-.25,1.18a7.06,7.06,0,0,0-.1,1.15,4,4,0,0,0,.07.79,1.88,1.88,0,0,0,.25.65,1.3,1.3,0,0,0,.49.44,1.68,1.68,0,0,0,.79.16,5.06,5.06,0,0,0,.76-.06,4.18,4.18,0,0,0,.93-.29,7.49,7.49,0,0,0,1.49-.92A9.31,9.31,0,0,0,104,121a12.9,12.9,0,0,0,1.12-1.56,17.76,17.76,0,0,0,.93-1.72c.27-.6.52-1.2.73-1.81s.4-1.21.54-1.79c.06-.25.11-.49.15-.71s.06-.44.07-.67,0-.48,0-.74,0-.57.06-.91a1.45,1.45,0,0,1,.23-.7.67.67,0,0,1,.6-.3.59.59,0,0,1,.44.2,1.57,1.57,0,0,1,.31.5,3.17,3.17,0,0,1,.18.64,2.7,2.7,0,0,1,.07.6,6.29,6.29,0,0,1-.11,1.09c-.06.39-.15.77-.24,1.13-.2.78-.43,1.56-.71,2.34a19.31,19.31,0,0,1-1,2.3,15.41,15.41,0,0,1-1.33,2.19,13,13,0,0,1-1.74,2,13.61,13.61,0,0,1-1.05.89,10.31,10.31,0,0,1-1.19.8,6.51,6.51,0,0,1-1.27.57,3.89,3.89,0,0,1-1.29.22,4.33,4.33,0,0,1-1.6-.26,3,3,0,0,1-1.13-.72,3,3,0,0,1-.68-1.11,4.32,4.32,0,0,1-.22-1.42,6.19,6.19,0,0,1,.06-.81C96.07,121,96.12,120.68,96.18,120.4Z"/><path class="cls-2" d="M109.67,122.93c.23.08.46.18.7.29s.49.21.75.31a6.39,6.39,0,0,0,.81.25,4.26,4.26,0,0,0,.89.1,5.52,5.52,0,0,0,1.13-.13,5.09,5.09,0,0,0,1.11-.4,6.49,6.49,0,0,0,1-.62,5.69,5.69,0,0,0,.91-.86,11.67,11.67,0,0,0,.76-.94,8.09,8.09,0,0,0,.5-.75,4.61,4.61,0,0,0,.27-.57,1.46,1.46,0,0,0,.08-.41.6.6,0,0,0-.18-.44,1.13,1.13,0,0,0-.46-.31,2.93,2.93,0,0,0-.65-.18,4.68,4.68,0,0,0-.76-.06l-.55,0-.64,0-.63,0h-.53a3.4,3.4,0,0,1-.69-.08,2.74,2.74,0,0,1-.71-.25,2.34,2.34,0,0,1-.64-.47,2.32,2.32,0,0,1-.48-.73,1.82,1.82,0,0,1-.11-.33,1.42,1.42,0,0,1-.06-.42,3.42,3.42,0,0,1,0-.46,3.15,3.15,0,0,1,.09-.42,3.76,3.76,0,0,1,.47-1,6.66,6.66,0,0,1,.79-1,13.06,13.06,0,0,1,1-1c.37-.31.74-.61,1.12-.88s.76-.52,1.13-.74.71-.41,1-.56a5.81,5.81,0,0,1,1.36-.48,7.18,7.18,0,0,1,1.38-.14,2.8,2.8,0,0,1,.77.1,2.12,2.12,0,0,1,.64.31,1.45,1.45,0,0,1,.61,1.19,1,1,0,0,1-.06.37.54.54,0,0,1-.13.25.44.44,0,0,1-.17.14.48.48,0,0,1-.2,0,2,2,0,0,1-.5-.06l-.45-.14-.42-.14a1.73,1.73,0,0,0-.47-.06,4.23,4.23,0,0,0-1.53.29,9,9,0,0,0-1.51.77,10.63,10.63,0,0,0-1.39,1c-.43.37-.82.74-1.17,1.1a2,2,0,0,0-.4.57,1.25,1.25,0,0,0-.13.54.68.68,0,0,0,.33.59,1.41,1.41,0,0,0,.79.21h.62l.7,0,.7,0h.61a4,4,0,0,1,1.2.18,3,3,0,0,1,1,.52,2.52,2.52,0,0,1,1,2,3,3,0,0,1-.12.82,4.87,4.87,0,0,1-.33.84c-.15.28-.31.55-.49.83s-.38.54-.58.81a10.86,10.86,0,0,1-1.22,1.33,8.86,8.86,0,0,1-1.44,1.1,7.13,7.13,0,0,1-1.61.74,5.66,5.66,0,0,1-1.74.28,4.41,4.41,0,0,1-.79-.08,4.46,4.46,0,0,1-.8-.2,4.26,4.26,0,0,1-.75-.35,3.19,3.19,0,0,1-.61-.47,2.31,2.31,0,0,1-.42-.58,1.67,1.67,0,0,1-.16-.7,1,1,0,0,1,.06-.35A.26.26,0,0,1,109.67,122.93Z"/><path class="cls-3" d="M116.84,48.33,93.78,47.09A.25.25,0,0,1,93.6,47a.27.27,0,0,1-.06-.19L96,11.9a.27.27,0,0,1,.2-.24.28.28,0,0,1,.29.13l20.59,36.15a.26.26,0,0,1,0,.27.28.28,0,0,1-.2.12ZM94.08,46.59l22.31,1.19-19.93-35Z"/><path class="cls-3" d="M93.61,47,77.37,30.52a.26.26,0,0,1,0-.37l18.7-18.42a.24.24,0,0,1,.29-.05.25.25,0,0,1,.15.25L94.06,46.85a.27.27,0,0,1-.17.23h-.07A.27.27,0,0,1,93.61,47ZM77.93,30.34l15.65,15.9L96,12.59Z"/><path class="cls-3" d="M76.45,61.28A.28.28,0,0,1,76.3,61l1-30.71a.26.26,0,0,1,.16-.23.24.24,0,0,1,.28.06L94,46.65a.24.24,0,0,1,.08.2A.22.22,0,0,1,94,47L76.73,61.24a.2.2,0,0,1-.15.06A.2.2,0,0,1,76.45,61.28ZM77.8,31l-1,29.52L93.41,46.81Z"/><path class="cls-3" d="M82.81,67.34l-6.43-6.11a.28.28,0,0,1-.08-.2.3.3,0,0,1,.1-.19L93.63,46.63a.26.26,0,0,1,.33,0A.26.26,0,0,1,94,47L83.22,67.27a.26.26,0,0,1-.19.13h0A.29.29,0,0,1,82.81,67.34ZM77,61.06l6,5.66L93,47.87Z"/><path class="cls-3" d="M22.86,39.76a.24.24,0,0,1-.17-.24l0-23.85a.25.25,0,0,1,.13-.22.24.24,0,0,1,.27,0L36.56,24a.27.27,0,0,1,.11.19.21.21,0,0,1-.06.2L23.14,39.69a.21.21,0,0,1-.17.09A.2.2,0,0,1,22.86,39.76Zm.38-23.61,0,22.68L36,24.28Z"/><path class="cls-3" d="M58.26,31.87,48.18,23.71a.23.23,0,0,1-.09-.23.26.26,0,0,1,.14-.21l16.83-7.93a.28.28,0,0,1,.29.05.26.26,0,0,1,.06.29L58.66,31.76a.26.26,0,0,1-.18.16h0A.24.24,0,0,1,58.26,31.87Zm-9.43-8.3,9.49,7.67,6.35-15.13Z"/><path class="cls-3" d="M34,127.07l-6.13-.72a.27.27,0,0,1-.18-.11.24.24,0,0,1-.05-.2s.29-1.31.65-3.42a.26.26,0,0,1,.29-.22L37,123.48a.25.25,0,0,1,.21.17.25.25,0,0,1,0,.27L34.24,127a.3.3,0,0,1-.17.08ZM28.78,123c-.25,1.43-.45,2.45-.55,2.92l5.72.67,2.46-2.61Z"/><path class="cls-3" d="M96.06,12.08a.26.26,0,0,1,0-.28L97.37,9a.26.26,0,0,1,.17-.13.23.23,0,0,1,.21,0,18.87,18.87,0,0,1,2.44,1.85.24.24,0,0,1,.08.25.26.26,0,0,1-.18.2l-3.76,1h0A.27.27,0,0,1,96.06,12.08Zm1.65-2.6-1,2,2.74-.72A18.47,18.47,0,0,0,97.71,9.48Z"/><path class="cls-3" d="M23,39.78,4.64,39.65a.29.29,0,0,1-.24-.16.27.27,0,0,1,0-.27A7.32,7.32,0,0,1,5.85,37.9a10.39,10.39,0,0,1,0-2.16,10.14,10.14,0,0,1,.2-1.14.23.23,0,0,1,.06-.12l16.64-19a.26.26,0,0,1,.29-.07.27.27,0,0,1,.17.25l0,23.84a.27.27,0,0,1-.08.19.24.24,0,0,1-.16.07Zm-16.38-5a8,8,0,0,0-.17,1,9.52,9.52,0,0,0,0,2.2.25.25,0,0,1-.12.24,6.78,6.78,0,0,0-1,.89l17.47.13,0-22.89Z"/><path class="cls-3" d="M84.06,79a.23.23,0,0,1-.1-.17L82.73,67.17a.25.25,0,0,1,.1-.23.25.25,0,0,1,.26,0l11.08,4.75a.26.26,0,0,1,.15.31,21.32,21.32,0,0,1-2.93,6.12.27.27,0,0,1-.18.11l-7,.87h0A.23.23,0,0,1,84.06,79Zm9.69-7L83.29,67.56l1.16,11L91,77.69A21,21,0,0,0,93.75,72.05Z"/><path class="cls-3" d="M37,124.05a.19.19,0,0,0,.1,0,.26.26,0,0,0,.14-.23H37l.25,0a.27.27,0,0,0-.3-.28H36.9a.27.27,0,0,0-.21.2.28.28,0,0,0,.1.27l.07,0A.25.25,0,0,0,37,124.05Z"/><path class="cls-3" d="M77.54,30.59a.26.26,0,0,1-.19-.1l-4.93-6.41a.29.29,0,0,1,0-.22.24.24,0,0,1,.13-.18l23.63-12a.26.26,0,0,1,.3.42L77.74,30.52a.24.24,0,0,1-.16.07ZM73,24l4.56,5.93,17.29-17Z"/><path class="cls-3" d="M77.58,30.59,58.44,31.92a.27.27,0,0,1-.27-.18.28.28,0,0,1,.13-.31l14.21-7.74a.24.24,0,0,1,.33.07l4.93,6.41a.29.29,0,0,1,0,.27.27.27,0,0,1-.22.15Zm-18,.73,17.46-1.21-4.5-5.86Z"/><path class="cls-3" d="M72.44,24.09,65,15.75a.24.24,0,0,1-.06-.2.25.25,0,0,1,.12-.19l5.62-3.72a.25.25,0,0,1,.25,0,.24.24,0,0,1,.15.2l1.84,12.06a.25.25,0,0,1-.15.27l-.09,0A.27.27,0,0,1,72.44,24.09Zm-6.87-8.46,6.67,7.46L70.6,12.3Z"/><path class="cls-3" d="M58.25,31.86a.27.27,0,0,1-.07-.3l6.75-16.08a.27.27,0,0,1,.2-.16.25.25,0,0,1,.23.09l7.46,8.33a.26.26,0,0,1,.07.22.24.24,0,0,1-.14.18l-14.2,7.75a.23.23,0,0,1-.11,0A.22.22,0,0,1,58.25,31.86Zm7-15.8-6.3,15,13.27-7.24Z"/><path class="cls-3" d="M78.44,86.58l-2.88-4.89a.3.3,0,0,1,0-.23.26.26,0,0,1,.17-.15l8.43-2.75a.26.26,0,0,1,.28.09.24.24,0,0,1,0,.29l-4.35,7.32a.23.23,0,0,1-.15.12c-.4.11-.8.23-1.21.32h0A.26.26,0,0,1,78.44,86.58Zm5.2-7.31L76.18,81.7l2.61,4.45.91-.25Z"/><path class="cls-3" d="M3.29,47.2A.26.26,0,0,1,3.16,47l-.28-1.78A.27.27,0,0,1,2.93,45a7.18,7.18,0,0,1-.08-2.12,7.08,7.08,0,0,1,1.59-3.7.26.26,0,0,1,.2-.1L23,39.26a.25.25,0,0,1,.25.22.25.25,0,0,1-.16.29L3.51,47.22H3.44A.27.27,0,0,1,3.29,47.2Zm1.48-7.55A6.59,6.59,0,0,0,3.37,43a6.69,6.69,0,0,0,.09,2.09.26.26,0,0,1,0,.18l.22,1.35,17.93-6.84Z"/><path class="cls-3" d="M1.85,48.66a.26.26,0,0,1-.16-.24l.06-2.23A.28.28,0,0,1,1.82,46,7.2,7.2,0,0,1,3,45a.25.25,0,0,1,.25,0,.22.22,0,0,1,.16.19l.29,1.79a.29.29,0,0,1-.08.23L2.14,48.61a.28.28,0,0,1-.17.07A.17.17,0,0,1,1.85,48.66Zm1.09-3a6.7,6.7,0,0,0-.67.64l0,1.48.91-.9Z"/><path class="cls-3" d="M118.79,67.21a.27.27,0,0,1-.19-.22l-2-18.89a.29.29,0,0,1,.09-.22.26.26,0,0,1,.22-.07l10.34,1.89a.25.25,0,0,1,.21.21,19.92,19.92,0,0,1,.22,6c0,.1,0,.2,0,.29l0,.17a.26.26,0,0,1,0,.12l-8.48,10.61a.26.26,0,0,1-.19.1Zm8.32-11.07c0-.09,0-.18,0-.27a19.38,19.38,0,0,0-.18-5.69l-9.82-1.79,1.91,17.91,8-10.06Z"/><path class="cls-3" d="M37,127.42l-1.57-.18a.28.28,0,0,1-.2-.13.29.29,0,0,1,0-.24l1.46-3.24a.31.31,0,0,1,.17-.15.25.25,0,0,1,.22,0l.08,0a.28.28,0,0,1,.1.21c0,1.16,0,2.26,0,3.36a.25.25,0,0,1-.09.2.23.23,0,0,1-.15.07Zm-1.16-.66.92.11c0-.69,0-1.37,0-2.07Z"/><path class="cls-3" d="M35.46,127.24,34,127.07a.28.28,0,0,1-.22-.17.26.26,0,0,1,.06-.27l2.9-3.07a.26.26,0,0,1,.43.28l-1.46,3.25a.29.29,0,0,1-.22.15Zm-.87-.63.74.09.74-1.66Z"/><path class="cls-3" d="M1.83,48.65l-1-.58a.26.26,0,0,1-.11-.34A7.18,7.18,0,0,1,1.82,46,.26.26,0,0,1,2.11,46a.27.27,0,0,1,.16.25l-.06,2.23a.26.26,0,0,1-.13.22.2.2,0,0,1-.11,0A.17.17,0,0,1,1.83,48.65Zm-.57-.91L1.7,48l0-1A6.1,6.1,0,0,0,1.26,47.74Z"/><path class="cls-3" d="M72.46,24.11a.25.25,0,0,1-.08-.27L77.86,6.15A.25.25,0,0,1,78,6a.28.28,0,0,1,.2,0l18.16,5.7a.26.26,0,0,1,.18.22.27.27,0,0,1-.14.26l-23.63,12-.1,0A.28.28,0,0,1,72.46,24.11ZM78.28,6.55,73.06,23.4,95.57,12Z"/><path class="cls-3" d="M72.61,24.18a.27.27,0,0,1-.24-.23l-1.83-12a.24.24,0,0,1,.1-.25L78,6a.25.25,0,0,1,.31,0,.27.27,0,0,1,.1.29L72.88,24a.26.26,0,0,1-.23.19ZM71.08,12l1.64,10.78L77.61,6.93Z"/><path class="cls-3" d="M84.16,79.06,71.83,76.32a.25.25,0,0,1-.2-.19.25.25,0,0,1,.09-.26l11.1-8.93a.29.29,0,0,1,.27,0,.24.24,0,0,1,.16.21l1.23,11.66a.28.28,0,0,1-.24.29ZM72.47,75.93l11.45,2.55L82.78,67.65Z"/><path class="cls-3" d="M75.57,81.71l-3.9-5.49a.27.27,0,0,1,.27-.41l12.33,2.74a.28.28,0,0,1,.21.25.27.27,0,0,1-.18.26L75.87,81.8h-.06A.28.28,0,0,1,75.57,81.71Zm-3.08-5.24,3.4,4.78,7.34-2.39Z"/><path class="cls-3" d="M71.74,76.29a.26.26,0,0,1-.1-.3l4.67-15a.27.27,0,0,1,.19-.17.26.26,0,0,1,.24.06L83.17,67a.28.28,0,0,1,.08.2.26.26,0,0,1-.1.19l-11.1,8.92a.2.2,0,0,1-.14.06A.25.25,0,0,1,71.74,76.29Zm5-14.77-4.3,13.81,10.2-8.2Z"/><path class="cls-3" d="M71.86,76.33,48.33,73.58a.28.28,0,0,1-.23-.22.26.26,0,0,1,.16-.28L76.46,60.8a.26.26,0,0,1,.35.32l-4.67,15a.28.28,0,0,1-.23.18ZM49.35,73.17,71.7,75.79l4.44-14.28Z"/><path class="cls-3" d="M116.63,48.2,96,12a.26.26,0,0,1,0-.3.26.26,0,0,1,.3-.06l14.75,6.66a.24.24,0,0,1,.08.06,20,20,0,0,1,4.73,8.44,20.13,20.13,0,0,1,8.33,15.42,20.42,20.42,0,0,1,1.12,1.84.26.26,0,0,1-.12.36L117,48.31l-.08,0A.26.26,0,0,1,116.63,48.2Zm7.15-5.7a.23.23,0,0,1,0-.14,19.58,19.58,0,0,0-8.19-15.14.31.31,0,0,1-.1-.15,19.4,19.4,0,0,0-4.59-8.27l-14-6.32L117,47.73l7.83-3.63C124.47,43.54,124.13,43,123.78,42.5Z"/><path class="cls-3" d="M127.15,50.21l-10.34-1.88a.27.27,0,0,1-.22-.23.28.28,0,0,1,.15-.27L125,44a.27.27,0,0,1,.34.12,19.68,19.68,0,0,1,2.07,5.81.25.25,0,0,1-.07.23.24.24,0,0,1-.16.07ZM117.71,48l9.15,1.67A19.45,19.45,0,0,0,125,44.56Z"/><path class="cls-3" d="M27.49,95.62a.26.26,0,0,1-.13-.32L35.93,72a.26.26,0,0,1,.29-.16L43.7,73a.24.24,0,0,1,.2.16.23.23,0,0,1,0,.25l-16,22.13a.31.31,0,0,1-.19.11A.32.32,0,0,1,27.49,95.62Zm8.86-23.27L28.5,93.71,43.2,73.45Z"/><path class="cls-3" d="M27.56,95.65a.27.27,0,0,1-.21-.26l.49-20.88a.26.26,0,0,1,.19-.24L36.1,71.8a.26.26,0,0,1,.26.08.23.23,0,0,1,.06.27L27.85,95.48a.25.25,0,0,1-.22.17Zm.8-20.94-.45,19.11,7.84-21.36Z"/><path class="cls-3" d="M70.76,12.12a.37.37,0,0,1-.18-.11L62.88,1a.26.26,0,0,1,0-.24A.22.22,0,0,1,63,.58a11.8,11.8,0,0,1,5-.5l.3,0,.13,0,.09,0L78.24,6a.28.28,0,0,1,.13.21.3.3,0,0,1-.1.22L71,12.06a.25.25,0,0,1-.14.06ZM68.35.65h-.08L68,.6A11.3,11.3,0,0,0,63.51,1l7.34,10.51,6.8-5.23Z"/><path class="cls-3" d="M71.37,87.12,71,87.07l-.12,0a.25.25,0,0,1-.21-.17.27.27,0,0,1,0-.26l4.84-5.24a.27.27,0,0,1,.22-.08.23.23,0,0,1,.2.12l2.88,4.89a.29.29,0,0,1,0,.24.27.27,0,0,1-.18.15,20.92,20.92,0,0,1-3.14.49h0A21.26,21.26,0,0,1,71.37,87.12ZM75.74,82,71.48,86.6a20.86,20.86,0,0,0,6.78-.33Z"/><path class="cls-3" d="M70.91,87.05a21.09,21.09,0,0,1-5.07-1.35.29.29,0,0,1-.15-.16.29.29,0,0,1,0-.22l6-9.39a.22.22,0,0,1,.21-.12.27.27,0,0,1,.22.11L76,81.4a.27.27,0,0,1,0,.33L71.14,87a.25.25,0,0,1-.17.08A.06.06,0,0,1,70.91,87.05Zm1-10.51-5.57,8.79a21.2,21.2,0,0,0,4.52,1.19l4.6-5Z"/><path class="cls-3" d="M49.92,87.66a.26.26,0,0,1-.13-.19L48.1,73.35a.27.27,0,0,1,.08-.22.26.26,0,0,1,.21-.07l23.53,2.75a.27.27,0,0,1,.19.4l-6,9.39a.25.25,0,0,1-.32.1,21.39,21.39,0,0,1-8-5.61,13.45,13.45,0,0,1-7.74,7.59l-.08,0A.26.26,0,0,1,49.92,87.66ZM58,79.42a21,21,0,0,0,7.84,5.72l5.6-8.86L48.66,73.61l1.61,13.46a12.9,12.9,0,0,0,7.29-7.57.27.27,0,0,1,.2-.17h0A.25.25,0,0,1,58,79.42Z"/><path class="cls-3" d="M37,124h.09a.26.26,0,0,0,.22-.26.29.29,0,0,0-.17-.27.24.24,0,0,0-.28,0l-.07.08a.26.26,0,0,0,0,.3A.27.27,0,0,0,37,124Z"/><path class="cls-3" d="M47.86,89.81a.27.27,0,0,1-.23-.19l-4.22-16.3a.28.28,0,0,1,.05-.23.3.3,0,0,1,.2-.1l4.7.07a.27.27,0,0,1,.26.23l1.69,14.12a.24.24,0,0,1-.16.27,10.86,10.86,0,0,1-1.37.44,13.8,13.8,0,0,1-.66,1.55.26.26,0,0,1-.21.14Zm.27-16.23L44,73.52l4,15.26c.14-.33.26-.65.37-1a.26.26,0,0,1,.18-.17,12.07,12.07,0,0,0,1.26-.38Z"/><path class="cls-3" d="M26,43.64l-3.27-4a.26.26,0,0,1,0-.34l13.47-15.3a.26.26,0,0,1,.35,0,.27.27,0,0,1,.08.34L26.45,43.59a.26.26,0,0,1-.21.14h0A.25.25,0,0,1,26,43.64Zm-2.73-4.11L26.17,43l9-16.94Z"/><path class="cls-3" d="M19.06,96.34a13.34,13.34,0,0,1-3.77-2.07.26.26,0,0,1-.06-.35L27.88,74.38a.28.28,0,0,1,.3-.11.25.25,0,0,1,.18.25L27.87,95.4a.26.26,0,0,1-.24.25l-8.46.71h0Zm8.76-20.9L15.8,94a12.84,12.84,0,0,0,3.38,1.82l8.17-.68Z"/><path class="cls-3" d="M15.29,94.27a12,12,0,0,1-.94-.8.25.25,0,0,1-.07-.24l4.82-23a.3.3,0,0,1,.14-.19.27.27,0,0,1,.23,0l8.75,4.26a.31.31,0,0,1,.13.17.26.26,0,0,1,0,.21L15.67,94.21a.27.27,0,0,1-.18.11h0A.28.28,0,0,1,15.29,94.27Zm4.25-23.64L14.82,93.19c.18.17.37.33.57.49L27.72,74.62Z"/><path class="cls-3" d="M14.35,93.47a13.41,13.41,0,0,1-4.22-8.82l-.31-.14c-.26-.13-.51-.27-.76-.41A.24.24,0,0,1,8.94,84L4.25,71.2a.26.26,0,0,1,0-.23.25.25,0,0,1,.21-.12L19.34,70a.27.27,0,0,1,.21.09.23.23,0,0,1,.06.22l-4.83,23a.25.25,0,0,1-.17.2h-.06A.26.26,0,0,1,14.35,93.47ZM4.86,71.35,9.4,83.69l.65.35.35.16.09,0a.27.27,0,0,1,.15.22,12.87,12.87,0,0,0,3.73,8.3L19,70.53Z"/><path class="cls-3" d="M9.06,84.1a13.38,13.38,0,0,1-6.25-7.94.19.19,0,0,1,0-.15l1.43-5a.25.25,0,0,1,.24-.19.26.26,0,0,1,.26.17L9.43,83.78a.26.26,0,0,1-.07.29.24.24,0,0,1-.15.06A.2.2,0,0,1,9.06,84.1Zm-5.73-8a12.9,12.9,0,0,0,5.35,7.17L4.52,72Z"/><path class="cls-3" d="M76.35,61.19,61.43,40.3a.27.27,0,0,1,0-.2.3.3,0,0,1,.12-.17l15.91-9.82a.26.26,0,0,1,.27,0,.25.25,0,0,1,.13.23l-1,30.71a.25.25,0,0,1-.18.24h-.06A.24.24,0,0,1,76.35,61.19ZM62,40.23l14.31,20,1-29.45Z"/><path class="cls-3" d="M61.56,40.4a.29.29,0,0,1-.16-.15l-3.22-8.49a.29.29,0,0,1,0-.24.24.24,0,0,1,.2-.12l19.14-1.33a.27.27,0,0,1,.27.18.27.27,0,0,1-.11.3L61.78,40.38a.2.2,0,0,1-.11,0A.21.21,0,0,1,61.56,40.4Zm-2.77-8.5,3,7.86,14.74-9.09Z"/><path class="cls-3" d="M76.46,61.28,44.14,47.77a.26.26,0,0,1-.16-.24.25.25,0,0,1,.16-.24l17.4-7.38a.27.27,0,0,1,.32.09L76.78,60.89a.27.27,0,0,1,0,.31.26.26,0,0,1-.19.1A.25.25,0,0,1,76.46,61.28ZM44.91,47.53,75.82,60.45l-14.26-20Z"/><path class="cls-3" d="M48.24,73.55a.25.25,0,0,1-.14-.19L44,47.57a.26.26,0,0,1,.36-.28L76.66,60.8a.26.26,0,0,1,.16.24.25.25,0,0,1-.15.24L48.46,73.56l-.08,0A.32.32,0,0,1,48.24,73.55ZM44.57,48l4,25L75.9,61.05Z"/><path class="cls-3" d="M44,47.68a.26.26,0,0,1,0-.33L58.23,31.49a.24.24,0,0,1,.24-.08.27.27,0,0,1,.2.16l3.22,8.49a.25.25,0,0,1-.14.33L44.34,47.77l-.08,0A.26.26,0,0,1,44,47.68Zm14.3-15.52L45.21,46.83,61.31,40Z"/><path class="cls-3" d="M44.12,47.76a.26.26,0,0,1-.14-.28l4.11-24a.25.25,0,0,1,.42-.16l10.08,8.15a.26.26,0,0,1,.09.18.3.3,0,0,1-.06.2L44.43,47.7a.28.28,0,0,1-.17.09A.35.35,0,0,1,44.12,47.76ZM48.53,24,44.65,46.68,58,31.69Z"/><path class="cls-3" d="M48.36,73.58l-4.7-.06a.33.33,0,0,1-.19-.08.32.32,0,0,1-.07-.19L44,47.52a.25.25,0,0,1,.24-.25h0a.25.25,0,0,1,.27.22l4.13,25.79a.27.27,0,0,1-.06.21.31.31,0,0,1-.18.09ZM43.93,73l4.12,0L44.43,50.41Z"/><path class="cls-3" d="M43.62,73.51l-7.48-1.2a.25.25,0,0,1-.19-.12.28.28,0,0,1,0-.22L44,47.45a.26.26,0,0,1,.51.08l-.58,25.73a.25.25,0,0,1-.09.2.25.25,0,0,1-.15.05Zm-7.1-1.66L43.41,73l.53-23.67Z"/><path class="cls-3" d="M44,47.61l-7.82-23.3a.26.26,0,0,1,0-.23.27.27,0,0,1,.2-.12l11.93-.71a.28.28,0,0,1,.21.08.25.25,0,0,1,.06.22l-4.11,24a.26.26,0,0,1-.23.22A.26.26,0,0,1,44,47.61ZM36.77,24.46l7.38,22L48,23.79Z"/><path class="cls-3" d="M44.18,47.78l-18-4.05a.27.27,0,0,1-.18-.15.27.27,0,0,1,0-.23L36.19,24.1a.25.25,0,0,1,.47,0l7.83,23.3a.3.3,0,0,1-.06.26.28.28,0,0,1-.17.09ZM26.61,43.29l17.23,3.88L36.36,24.88Z"/><path class="cls-3" d="M96.06,12.09l-4.6-5.32a.26.26,0,0,1,0-.31.26.26,0,0,1,.28-.11,19,19,0,0,1,6,2.53.25.25,0,0,1,.09.33L96.5,12a.26.26,0,0,1-.21.14h0A.31.31,0,0,1,96.06,12.09Zm-3.66-5,3.8,4.38,1.07-2.25A18.53,18.53,0,0,0,92.4,7.06Z"/><path class="cls-3" d="M96.18,12.16,78,6.47a.26.26,0,0,1-.18-.22l-.42-3.91a.25.25,0,0,1,.07-.2.22.22,0,0,1,.2-.08c.46,0,.94,0,1.42.11a19.31,19.31,0,0,1,9.32,3.71L89.59,6a18.57,18.57,0,0,1,2.12.38.22.22,0,0,1,.14.08l4.61,5.31a.29.29,0,0,1,0,.32.28.28,0,0,1-.2.12ZM89.53,6.49c-.4,0-.8-.08-1.19-.1a.25.25,0,0,1-.15,0,18.85,18.85,0,0,0-9.13-3.65c-.36,0-.72-.08-1.08-.1L78.35,6l17.11,5.36L91.51,6.83C90.84,6.68,90.17,6.57,89.53,6.49Z"/><path class="cls-3" d="M78,6.45,68.3.63a.28.28,0,0,1-.11-.32.28.28,0,0,1,.29-.17A11.93,11.93,0,0,1,73.7,2.3a19.16,19.16,0,0,1,4-.24.26.26,0,0,1,.25.23l.42,3.9a.27.27,0,0,1-.12.25.19.19,0,0,1-.12,0A.22.22,0,0,1,78,6.45Zm-4.3-3.62a.24.24,0,0,1-.2-.05A11.6,11.6,0,0,0,70,1l7.83,4.72-.34-3.16A19.18,19.18,0,0,0,73.67,2.83Z"/><path class="cls-3" d="M110.23,73.43,106,73a.26.26,0,0,1-.23-.22.26.26,0,0,1,.15-.28l12.85-5.8a.27.27,0,0,1,.34.13L120.18,69a.25.25,0,0,1-.07.32,20,20,0,0,1-9.82,4.07h-.06Zm8.51-6.13L107,72.6l3.23.31a19.51,19.51,0,0,0,9.37-3.83Z"/><path class="cls-3" d="M109.47,73.52h0c.27,0,.55,0,.82-.09a.26.26,0,0,0,.23-.26.27.27,0,0,0-.24-.26L106,72.5a.25.25,0,0,0-.23.1.28.28,0,0,0,0,.25l.18.49a.26.26,0,0,0,.22.17A21.39,21.39,0,0,0,109.47,73.52Z"/><path class="cls-3" d="M105.83,73a.26.26,0,0,1,0-.29L116.61,48a.28.28,0,0,1,.28-.16.26.26,0,0,1,.22.23l2,18.89a.27.27,0,0,1-.15.27L106.12,73,106,73A.27.27,0,0,1,105.83,73ZM116.7,49.07,106.53,72.24l12-5.44Z"/><path class="cls-3" d="M106,73a.27.27,0,0,1-.24-.15L93.56,46.94a.25.25,0,0,1,0-.25.27.27,0,0,1,.23-.12l23.06,1.24a.27.27,0,0,1,.21.12.26.26,0,0,1,0,.24L106.26,72.86A.28.28,0,0,1,106,73Zm-11.8-25.9,11.79,25,10.45-23.82Z"/><path class="cls-3" d="M106.16,73.5a.27.27,0,0,0,.21-.1.24.24,0,0,0,.07-.24l-.18-.49a.25.25,0,0,0-.23-.17.27.27,0,0,0-.25.15l-.22.45a.25.25,0,0,0,0,.24.28.28,0,0,0,.2.13l.34,0A0,0,0,0,0,106.16,73.5Z"/><path class="cls-3" d="M94,72.14,82.88,67.39a.28.28,0,0,1-.14-.33.27.27,0,0,1,.31-.17L94.6,69.71a.25.25,0,0,1,.19.3,20,20,0,0,1-.47,2,.25.25,0,0,1-.14.16.16.16,0,0,1-.09,0A.3.3,0,0,1,94,72.14Zm-8-4,7.93,3.4c.12-.45.24-.92.33-1.38Z"/><path class="cls-3" d="M105.77,73.47l-.26,0a19.9,19.9,0,0,1-7.3-2.33.28.28,0,0,1-.12-.33.26.26,0,0,1,.31-.15l7.68,1.87a.24.24,0,0,1,.17.14.22.22,0,0,1,0,.22l-.22.46a.24.24,0,0,1-.21.14Zm-.2-.54h.07l-4.79-1.17A19.41,19.41,0,0,0,105.57,72.93Z"/><path class="cls-3" d="M106,73l-7.67-1.87-.07,0A20.25,20.25,0,0,1,95,68.9c0,.35-.12.71-.2,1.11a.25.25,0,0,1-.11.17.24.24,0,0,1-.2,0L82.93,67.4a.25.25,0,0,1-.18-.15.27.27,0,0,1,0-.23L93.57,46.71a.26.26,0,0,1,.24-.14.25.25,0,0,1,.22.15l12.22,25.93a.24.24,0,0,1,0,.27.27.27,0,0,1-.18.1ZM83.38,67l11,2.67c.09-.46.15-.89.2-1.28a.25.25,0,0,1,.17-.21.25.25,0,0,1,.26,0,19.43,19.43,0,0,0,3.47,2.45l7.12,1.74-11.77-25Z"/><path class="cls-3" d="M65.09,15.83a.26.26,0,0,1-.16-.15L58.67.61a.25.25,0,0,1,0-.26A.25.25,0,0,1,59,.26a11.7,11.7,0,0,1,2.64.88h0l.07,0a.28.28,0,0,1,.31.07l9,10.53a.25.25,0,0,1,.07.2.29.29,0,0,1-.12.18L65.31,15.8a.25.25,0,0,1-.12,0ZM61.75,1.65h0a.3.3,0,0,1-.23,0A11.4,11.4,0,0,0,59.35.88l5.94,14.31,5.12-3.39Z"/><path class="cls-3" d="M70.6,12l-9-10.53a.27.27,0,0,1,0-.23.28.28,0,0,1,.14-.18c.45-.2.88-.37,1.3-.51a.26.26,0,0,1,.3.1l7.7,11a.25.25,0,0,1-.05.35.28.28,0,0,1-.14.06A.29.29,0,0,1,70.6,12ZM62.25,1.43l5.23,6.14L63,1.14C62.75,1.22,62.5,1.32,62.25,1.43Z"/><path class="cls-3" d="M17.31,18.12a.26.26,0,0,1-.06-.29,8.21,8.21,0,0,1,4.59-4.37.27.27,0,0,1,.32.12l1.05,2a.26.26,0,0,1,0,.21.25.25,0,0,1-.14.16l-5.49,2.26-.08,0A.3.3,0,0,1,17.31,18.12ZM21.81,14A7.69,7.69,0,0,0,18,17.43l4.58-1.89Z"/><path class="cls-3" d="M6.21,34.89a.28.28,0,0,1-.13-.3A10.31,10.31,0,0,1,11,28c0-.26,0-.53.06-.79a10.24,10.24,0,0,1,5.78-8.09,7.51,7.51,0,0,1,.43-1.29.32.32,0,0,1,.14-.14l5.49-2.26a.27.27,0,0,1,.31.09.26.26,0,0,1,0,.33l-16.64,19a.25.25,0,0,1-.18.08A.24.24,0,0,1,6.21,34.89ZM17.69,18.14a6.91,6.91,0,0,0-.39,1.22.25.25,0,0,1-.15.17,9.76,9.76,0,0,0-5.59,7.74c0,.3-.05.6-.06.89a.27.27,0,0,1-.14.22,9.83,9.83,0,0,0-4.44,5.21L22.05,16.34Z"/><path class="cls-3" d="M119.89,69.41a.26.26,0,0,1-.17-.14l-1.09-2.19a.27.27,0,0,1,.09-.34l6.43-4.21a.26.26,0,0,1,.32,0,.26.26,0,0,1,.06.31,20.11,20.11,0,0,1-5.42,6.5.24.24,0,0,1-.14,0A.22.22,0,0,1,119.89,69.41Zm-.69-2.36.84,1.7a19.74,19.74,0,0,0,4.51-5.21Z"/><path class="cls-3" d="M118.67,67.14a.26.26,0,0,1,0-.34l8.48-10.61a.26.26,0,0,1,.31-.08.27.27,0,0,1,.15.28,19.69,19.69,0,0,1-2.07,6.47.22.22,0,0,1-.09.1L119,67.18a.28.28,0,0,1-.13,0A.26.26,0,0,1,118.67,67.14Zm8.25-9.85-6.83,8.56,5-3.29A19,19,0,0,0,126.92,57.29Z"/><path class="cls-3" d="M36.28,24.44,22.84,15.89a.25.25,0,0,1-.12-.26.27.27,0,0,1,.21-.21l10.28-1.88a.26.26,0,0,1,.3.18l3.16,10.43a.26.26,0,0,1-.1.28.21.21,0,0,1-.13.05A.23.23,0,0,1,36.28,24.44Zm-12.6-8.63L36,23.63l-2.89-9.54Z"/><path class="cls-3" d="M33.17,14l-6.5-2.23a.34.34,0,0,1-.15-.14.26.26,0,0,1,0-.21,8.09,8.09,0,0,1,7.33-5l0-.05a.28.28,0,0,1,.31-.08.27.27,0,0,1,.16.27l-.84,7.2a.32.32,0,0,1-.12.2l-.12,0A.21.21,0,0,1,33.17,14Zm-6.06-2.63,5.92,2L33.79,7A7.59,7.59,0,0,0,27.11,11.41Z"/><path class="cls-3" d="M22.75,15.8l-1.05-2a.28.28,0,0,1,0-.22.29.29,0,0,1,.16-.15,7.13,7.13,0,0,1,.78-.26h.08l10.56.33a.27.27,0,0,1,.26.24.26.26,0,0,1-.22.28L23,15.93h0A.29.29,0,0,1,22.75,15.8Zm0-2.08-.42.13.82,1.53L30.81,14Z"/><path class="cls-3" d="M33.25,14.06l-10.57-.34a.28.28,0,0,1-.25-.23.28.28,0,0,1,.19-.29A8.25,8.25,0,0,1,25.67,13L26,13a8.46,8.46,0,0,1,.49-1.58.24.24,0,0,1,.32-.14l6.5,2.23a.25.25,0,0,1,.17.29.24.24,0,0,1-.23.21Zm-6.74-.74,5,.16-4.62-1.59A7.44,7.44,0,0,0,26.51,13.32Z"/><path class="cls-3" d="M65.14,15.84,40.3,13.26a.26.26,0,0,1-.22-.17.27.27,0,0,1,.06-.27L50.75,1.53a.21.21,0,0,1,.1-.06A11.78,11.78,0,0,1,57.93.09a10.21,10.21,0,0,1,1,.17.23.23,0,0,1,.18.15l6.26,15.07a.27.27,0,0,1,0,.26.27.27,0,0,1-.19.1ZM57.87.61a11.26,11.26,0,0,0-6.78,1.32L40.88,12.79l23.88,2.49L58.73.74C58.44.68,58.15.64,57.87.61Z"/><path class="cls-3" d="M48.14,23.67l-8-10.51a.26.26,0,0,1,.23-.42L65.2,15.32a.26.26,0,0,1,.23.22.26.26,0,0,1-.15.28L48.46,23.75l-.1,0A.24.24,0,0,1,48.14,23.67ZM40.9,13.32l7.52,9.86,15.79-7.44Z"/><path class="cls-3" d="M40.24,13.25a.26.26,0,0,1-.17-.23l-.76-9.75A.25.25,0,0,1,39.45,3,8.1,8.1,0,0,1,44,2.23h0a8.19,8.19,0,0,1,5.25-1.18,8.32,8.32,0,0,1,1.73.4.25.25,0,0,1,.17.19.26.26,0,0,1-.06.24L40.52,13.18a.3.3,0,0,1-.17.08Zm9-11.67a7.72,7.72,0,0,0-5,1.15.25.25,0,0,1-.17,0l-.13,0a7.49,7.49,0,0,0-4.09.66l.7,9L50.46,1.83A7.67,7.67,0,0,0,49.23,1.58Z"/><path class="cls-3" d="M48.36,23.77l-11.93.71a.24.24,0,0,1-.22-.1.26.26,0,0,1,0-.24l3.91-11.23a.27.27,0,0,1,.2-.17.24.24,0,0,1,.25.1l8,10.51a.26.26,0,0,1,0,.27.27.27,0,0,1-.22.15Zm-11.57.17,11.05-.66-7.43-9.74Z"/><path class="cls-3" d="M36.41,24.48a.25.25,0,0,1-.24-.18L33,13.87a.25.25,0,0,1,0-.22.28.28,0,0,1,.19-.12l7.07-.79a.26.26,0,0,1,.27.34L36.66,24.31a.23.23,0,0,1-.22.17ZM33.6,14l2.83,9.36L39.94,13.3Z"/><path class="cls-3" d="M33.07,14a.29.29,0,0,1-.07-.22l.84-7.2a.29.29,0,0,1,0-.13,8.15,8.15,0,0,1,4.86-3c.2-.12.43-.25.7-.38a.28.28,0,0,1,.25,0,.3.3,0,0,1,.13.21L40.59,13a.27.27,0,0,1-.24.28l-7.06.79h0A.26.26,0,0,1,33.07,14ZM39.34,3.66,39,3.87l-.09,0a7.58,7.58,0,0,0-4.55,2.78l-.8,6.81,6.5-.73Z"/><path class="cls-3" d="M39.87,103.36l-10-3a.25.25,0,0,1-.18-.22l0-.31a.17.17,0,0,1,0-.14l13.7-26.51a.26.26,0,0,1,.26-.14.25.25,0,0,1,.22.19l4.23,16.29a.25.25,0,0,1,0,.19,13.58,13.58,0,0,1-4.38,5.1,45.31,45.31,0,0,0-3.54,8.41.27.27,0,0,1-.23.19ZM43.58,74,30.22,99.82v.06l9.55,2.9a45,45,0,0,1,3.54-8.32.22.22,0,0,1,.08-.09,13,13,0,0,0,4.21-4.85Z"/><path class="cls-3" d="M36.89,124a.25.25,0,0,1-.19-.18l-6.94-23.1c0-.2,0-.41,0-.61a.26.26,0,0,1,.1-.23.26.26,0,0,1,.24,0l10,3a.26.26,0,0,1,.15.12.28.28,0,0,1,0,.2,70.73,70.73,0,0,0-2.92,20.48.22.22,0,0,1-.07.17l-.07.08A.32.32,0,0,1,37,124Zm-6.62-23.55v.18l6.51,21.66a70.74,70.74,0,0,1,2.84-19Z"/><path class="cls-3" d="M30,100a.28.28,0,0,1-.29-.24.25.25,0,0,1,0-.08c-.11-1.35-.27-2.65-.46-3.86-.38.17-.77.33-1.2.48a.25.25,0,0,1-.32-.13l-.34-.7a.25.25,0,0,1,0-.26L43.45,73.1A.26.26,0,0,1,43.8,73a.26.26,0,0,1,.09.34L30.19,99.89A.26.26,0,0,1,30,100Zm-2.06-4.61.16.34a11,11,0,0,0,1.24-.53.24.24,0,0,1,.23,0,.25.25,0,0,1,.14.19c.19,1.08.34,2.23.46,3.43l11.7-22.64Z"/><path class="cls-3" d="M36.91,124l-8.38-1.08a.25.25,0,0,1-.17-.11.22.22,0,0,1-.05-.19,101.59,101.59,0,0,0,1.45-21.91.26.26,0,0,1,.22-.27.24.24,0,0,1,.29.18l6.93,23A.26.26,0,0,1,37,124Zm-8-1.57,7.71,1-6.2-20.63A105.64,105.64,0,0,1,28.87,122.43Z"/><path class="cls-3" d="M22,97a14,14,0,0,1-2.93-.68.26.26,0,0,1-.17-.28.26.26,0,0,1,.24-.22l8.46-.71h0a.24.24,0,0,1,.25.15l.34.69a.28.28,0,0,1,0,.22.21.21,0,0,1-.15.14,13.42,13.42,0,0,1-3.41.74h0A13.6,13.6,0,0,1,22,97Zm5.46-1.36-6.89.58a15,15,0,0,0,1.49.26,12.51,12.51,0,0,0,2.52,0h0a12.49,12.49,0,0,0,3-.62Z"/><path class="cls-3" d="M88.27,81.41,84.09,79a.27.27,0,0,1-.13-.28.26.26,0,0,1,.23-.21l7-.87a.3.3,0,0,1,.26.12.28.28,0,0,1,0,.29,21,21,0,0,1-2.82,3.28.23.23,0,0,1-.15.07A.37.37,0,0,1,88.27,81.41ZM85,79l3.32,1.89a21.4,21.4,0,0,0,2.26-2.59Z"/><path class="cls-3" d="M79.66,86.29a.27.27,0,0,1,0-.3L84,78.68a.27.27,0,0,1,.36-.1L88.52,81a.25.25,0,0,1,.13.2.27.27,0,0,1-.08.22,21.4,21.4,0,0,1-8.63,5h0A.29.29,0,0,1,79.66,86.29Zm4.65-7.13-3.87,6.51A20.93,20.93,0,0,0,88,81.23Z"/><path class="cls-3" d="M36,72.26l-16.7-14a.27.27,0,0,1-.09-.24.24.24,0,0,1,.16-.2L44.13,47.29a.28.28,0,0,1,.28,0,.27.27,0,0,1,.08.28L36.42,72.14a.26.26,0,0,1-.17.17h0A.31.31,0,0,1,36,72.26ZM20,58.17,36.05,71.61,43.81,48Z"/><path class="cls-3" d="M19.29,58.28a.24.24,0,0,1-.05-.29L26,43.36a.25.25,0,0,1,.29-.14l18,4.05a.26.26,0,0,1,.05.5L19.58,58.34l-.08,0A.28.28,0,0,1,19.29,58.28Zm7.07-14.51L20,57.59l23.39-10Z"/><path class="cls-3" d="M27.87,74.64,19.25,58.22a.26.26,0,0,1,.06-.32.27.27,0,0,1,.34,0L36.34,71.85a.26.26,0,0,1,.09.26.28.28,0,0,1-.18.2l-8.07,2.46h-.06A.27.27,0,0,1,27.87,74.64Zm-7.55-15.5,7.91,15.07L35.64,72Z"/><path class="cls-3" d="M28,74.75l-8.75-4.26a.28.28,0,0,1-.15-.24l.13-12.15a.27.27,0,0,1,.2-.26.27.27,0,0,1,.29.14L28.33,74.4a.24.24,0,0,1,0,.3.27.27,0,0,1-.17.08A.31.31,0,0,1,28,74.75Zm-8.37-4.66,7.88,3.84L19.73,59.14Z"/><path class="cls-3" d="M19.4,58.35a.27.27,0,0,1-.18-.3l3.47-18.58a.26.26,0,0,1,.46-.11l3.27,4a.24.24,0,0,1,0,.27L19.71,58.21a.27.27,0,0,1-.21.15Zm3.7-18.23-3,16,5.79-12.57Z"/><path class="cls-3" d="M19.33,58.31,3.27,47.19a.27.27,0,0,1-.11-.25.26.26,0,0,1,.17-.21l19.53-7.45a.23.23,0,0,1,.25,0,.25.25,0,0,1,.09.25L19.73,58.14a.26.26,0,0,1-.15.2l-.08,0A.26.26,0,0,1,19.33,58.31ZM4,47,19.3,57.65l3.31-17.72Z"/><path class="cls-3" d="M19.37,70.51l-14.86.86a.25.25,0,0,1-.26-.16.27.27,0,0,1,.07-.3l15-13a.26.26,0,0,1,.28,0,.27.27,0,0,1,.15.24l-.12,12.15a.27.27,0,0,1-.24.26ZM5.24,70.8,19.1,70l.11-11.33Z"/><path class="cls-3" d="M4.4,71.35a.28.28,0,0,1-.17-.21l-.52-4.67a.17.17,0,0,1,0-.14,13.48,13.48,0,0,1,1.62-2.49A7.32,7.32,0,0,1,3.42,63a.25.25,0,0,1-.12-.19L1.69,48.45a.25.25,0,0,1,.12-.24.26.26,0,0,1,.27,0l17.53,9.68a.26.26,0,0,1,.13.2.25.25,0,0,1-.09.22l-15,13a.34.34,0,0,1-.15.06ZM2.27,48.89,3.8,62.6a6.63,6.63,0,0,0,2.09.83.25.25,0,0,1,.19.17.25.25,0,0,1,0,.25,12.91,12.91,0,0,0-1.79,2.64l.46,4.1L19,58.14Z"/><path class="cls-3" d="M19.35,58.33,1.83,48.65a.27.27,0,0,1-.14-.19.27.27,0,0,1,.08-.22l1.47-1.45a.25.25,0,0,1,.33,0L19.63,57.88a.27.27,0,0,1-.13.48A.4.4,0,0,1,19.35,58.33Zm-17-10,12.72,7L3.45,47.31Z"/><path class="cls-3" d="M3.42,63a7.11,7.11,0,0,1-2.68-9,7.12,7.12,0,0,1-.69-4,7,7,0,0,1,.56-2,.25.25,0,0,1,.33-.14l1.1.42a.25.25,0,0,1,.17.21L3.82,62.73A.27.27,0,0,1,3.7,63a.28.28,0,0,1-.12,0A.29.29,0,0,1,3.42,63ZM1,48.34a6.61,6.61,0,0,0,.27,5.47.24.24,0,0,1,0,.23,7,7,0,0,0-.62,2.12,6.7,6.7,0,0,0,2.59,6.06L1.71,48.61Z"/><path class="cls-3" d="M4.27,71.25,2.82,69a.26.26,0,0,1,0-.21,13.24,13.24,0,0,1,.86-2.25l.08-.16A.25.25,0,0,1,4,66.19a.27.27,0,0,1,.22.22l.52,4.67a.26.26,0,0,1-.17.27l-.07,0A.26.26,0,0,1,4.27,71.25Zm-.95-2.48L4.11,70l-.3-2.62A13.29,13.29,0,0,0,3.32,68.77Z"/><path class="cls-3" d="M3.06,76.35a.26.26,0,0,1-.25-.19,13.37,13.37,0,0,1,0-7.42A.25.25,0,0,1,3,68.56a.27.27,0,0,1,.26.11L4.71,71a.26.26,0,0,1,0,.21l-1.43,5a.27.27,0,0,1-.23.19Zm.08-6.89a12.84,12.84,0,0,0-.07,5.62l1.14-3.93Z"/><path class="cls-3" d="M2,48.68a.26.26,0,0,0,.11-.48l-1-.58a.22.22,0,0,0-.21,0,.27.27,0,0,0-.15.13l-.05.11a.39.39,0,0,0,0,.24.33.33,0,0,0,.14.17l1.1.42A.22.22,0,0,0,2,48.68Z"/><path class="cls-3" d="M102.59,13.56,96.2,12.17a.27.27,0,0,1-.2-.25.27.27,0,0,1,.19-.26l3.76-1a.26.26,0,0,1,.24.06,20.58,20.58,0,0,1,2.11,2.18l.24.08.19.06a.26.26,0,0,1,.17.32.26.26,0,0,1-.23.19Zm-5.21-1.67,4.13.9A17.87,17.87,0,0,0,100,11.21Z"/><path class="cls-3" d="M110.9,18.82,96.15,12.15a.26.26,0,0,1-.14-.32.27.27,0,0,1,.31-.17l6.41,1.39a20,20,0,0,1,8.47,5.35.26.26,0,0,1,0,.33.27.27,0,0,1-.2.11A.32.32,0,0,1,110.9,18.82Zm-1.1-1.08a19.39,19.39,0,0,0-7.21-4.18l-4-.87Z"/><path class="cls-4" d="M76,30.18a1.83,1.83,0,1,0,1.68-2A1.83,1.83,0,0,0,76,30.18Z"/><path class="cls-4" d="M75.44,30.22A2.35,2.35,0,1,1,78,32.37,2.35,2.35,0,0,1,75.44,30.22Zm1-.09a1.31,1.31,0,1,0,1.2-1.4A1.31,1.31,0,0,0,76.48,30.13Z"/><path class="cls-4" d="M63.35,15.73a1.83,1.83,0,1,0,1.67-2A1.83,1.83,0,0,0,63.35,15.73Z"/><path class="cls-4" d="M62.83,15.77a2.35,2.35,0,1,1,2.53,2.15A2.34,2.34,0,0,1,62.83,15.77Zm1-.09a1.3,1.3,0,1,0,1.19-1.4A1.31,1.31,0,0,0,63.87,15.68Z"/><path class="cls-4" d="M69.44,12.22A1.17,1.17,0,1,0,70.51,11,1.17,1.17,0,0,0,69.44,12.22Z"/><path class="cls-4" d="M68.92,12.26A1.7,1.7,0,0,1,72.3,12a1.7,1.7,0,1,1-3.38.27Zm1-.08a.65.65,0,0,0,1.3-.1.66.66,0,0,0-.71-.6A.65.65,0,0,0,70,12.18Z"/><path class="cls-5" d="M31.86,13.83a1.43,1.43,0,1,0,2.86-.23,1.43,1.43,0,0,0-2.86.23Z"/><path class="cls-5" d="M31.34,13.87a2,2,0,1,1,2.11,1.8A2,2,0,0,1,31.34,13.87Zm1-.08a.92.92,0,0,0,1,.84.93.93,0,0,0,.84-1,.91.91,0,1,0-1.82.15Z"/><path class="cls-5" d="M38.5,13.15a1.83,1.83,0,1,0,1.68-2A1.84,1.84,0,0,0,38.5,13.15Z"/><path class="cls-5" d="M38,13.19a2.35,2.35,0,1,1,2.53,2.15A2.35,2.35,0,0,1,38,13.19Zm1-.09a1.31,1.31,0,1,0,1.2-1.4A1.31,1.31,0,0,0,39,13.1Z"/><path class="cls-5" d="M46.52,23.66a1.83,1.83,0,0,0,2,1.67,1.83,1.83,0,1,0-2-1.67Z"/><path class="cls-5" d="M46,23.7a2.35,2.35,0,1,1,2.53,2.15A2.35,2.35,0,0,1,46,23.7Zm1-.09a1.3,1.3,0,1,0,2.6-.21,1.29,1.29,0,0,0-1.4-1.19A1.31,1.31,0,0,0,47,23.61Z"/><path class="cls-6" d="M42.43,47.17a1.83,1.83,0,1,0,1.67-2A1.83,1.83,0,0,0,42.43,47.17Z"/><path class="cls-6" d="M41.91,47.21a2.35,2.35,0,1,1,2.53,2.15A2.34,2.34,0,0,1,41.91,47.21Zm1-.08a1.3,1.3,0,1,0,1.19-1.41A1.31,1.31,0,0,0,43,47.13Z"/><path class="cls-7" d="M17.91,58.06a1.83,1.83,0,1,0,1.67-2A1.83,1.83,0,0,0,17.91,58.06Z"/><path class="cls-7" d="M17.39,58.11a2.35,2.35,0,1,1,2.53,2.15A2.36,2.36,0,0,1,17.39,58.11Zm1-.09a1.3,1.3,0,1,0,1.2-1.41A1.32,1.32,0,0,0,18.43,58Z"/><path class="cls-7" d="M21.11,40a1.83,1.83,0,1,0,1.68-2A1.84,1.84,0,0,0,21.11,40Z"/><path class="cls-7" d="M20.59,40a2.35,2.35,0,1,1,2.53,2.15A2.35,2.35,0,0,1,20.59,40ZM21.64,40a1.29,1.29,0,0,0,1.4,1.2,1.32,1.32,0,0,0,1.2-1.41,1.3,1.3,0,0,0-2.6.21Z"/><path class="cls-6" d="M59.83,40.3a1.83,1.83,0,0,0,3.64-.3,1.83,1.83,0,0,0-2-1.67A1.81,1.81,0,0,0,59.83,40.3Z"/><path class="cls-6" d="M59.3,40.34a2.35,2.35,0,1,1,2.54,2.15A2.37,2.37,0,0,1,59.3,40.34Zm1.05-.08a1.29,1.29,0,0,0,1.4,1.19,1.3,1.3,0,1,0-1.4-1.19Z"/><path class="cls-5" d="M34.44,24.42a1.83,1.83,0,1,0,1.68-2A1.84,1.84,0,0,0,34.44,24.42Z"/><path class="cls-5" d="M33.93,24.47a2.35,2.35,0,1,1,2.53,2.15A2.35,2.35,0,0,1,33.93,24.47Zm1-.09a1.3,1.3,0,1,0,2.6-.21A1.32,1.32,0,0,0,36.16,23,1.3,1.3,0,0,0,35,24.38Z"/><path class="cls-7" d="M21.27,16.13a1.57,1.57,0,1,0,1.43-1.69A1.56,1.56,0,0,0,21.27,16.13Z"/><path class="cls-7" d="M20.75,16.17A2.09,2.09,0,1,1,23,18.08,2.09,2.09,0,0,1,20.75,16.17Zm1-.08a1,1,0,0,0,2.08-.17,1,1,0,1,0-2.08.17Z"/><path class="cls-4" d="M76.17,6.11a1.83,1.83,0,1,0,1.67-2A1.81,1.81,0,0,0,76.17,6.11Z"/><path class="cls-4" d="M75.65,6.15A2.35,2.35,0,1,1,78.18,8.3,2.35,2.35,0,0,1,75.65,6.15Zm1-.08a1.3,1.3,0,1,0,1.19-1.41A1.3,1.3,0,0,0,76.69,6.07Z"/><path class="cls-4" d="M70.93,23.82a1.83,1.83,0,1,0,1.67-2A1.82,1.82,0,0,0,70.93,23.82Z"/><path class="cls-4" d="M70.41,23.86A2.35,2.35,0,1,1,72.94,26,2.34,2.34,0,0,1,70.41,23.86Zm1-.08a1.3,1.3,0,1,0,1.19-1.41A1.3,1.3,0,0,0,71.45,23.78Z"/><path class="cls-7" d="M34.36,72.2a1.83,1.83,0,1,0,1.67-2A1.82,1.82,0,0,0,34.36,72.2Z"/><path class="cls-7" d="M33.83,72.25a2.35,2.35,0,1,1,2.54,2.15A2.37,2.37,0,0,1,33.83,72.25Zm1.05-.09a1.3,1.3,0,1,0,1.19-1.41A1.31,1.31,0,0,0,34.88,72.16Z"/><path class="cls-6" d="M46.75,73.29a1.83,1.83,0,1,0,1.67-2A1.83,1.83,0,0,0,46.75,73.29Z"/><path class="cls-6" d="M46.23,73.34a2.35,2.35,0,1,1,2.53,2.15A2.36,2.36,0,0,1,46.23,73.34Zm1-.09a1.32,1.32,0,0,0,1.41,1.2,1.31,1.31,0,1,0-1.41-1.2Z"/><path class="cls-6" d="M70.07,76.22a1.83,1.83,0,1,0,1.67-2A1.82,1.82,0,0,0,70.07,76.22Z"/><path class="cls-6" d="M69.54,76.26a2.35,2.35,0,1,1,2.54,2.15A2.35,2.35,0,0,1,69.54,76.26Zm1-.08a1.31,1.31,0,1,0,1.2-1.41A1.31,1.31,0,0,0,70.58,76.18Z"/><path class="cls-7" d="M17.48,70.4a1.83,1.83,0,1,0,1.67-2A1.83,1.83,0,0,0,17.48,70.4Z"/><path class="cls-7" d="M17,70.45a2.35,2.35,0,1,1,2.53,2.15A2.35,2.35,0,0,1,17,70.45Zm1-.09A1.3,1.3,0,1,0,19.2,69,1.31,1.31,0,0,0,18,70.36Z"/><path class="cls-1" d="M81.4,67.44a1.83,1.83,0,1,0,1.67-2A1.83,1.83,0,0,0,81.4,67.44Z"/><path class="cls-1" d="M80.88,67.48a2.35,2.35,0,1,1,2.53,2.16A2.35,2.35,0,0,1,80.88,67.48Zm1-.08A1.3,1.3,0,1,0,83.11,66,1.3,1.3,0,0,0,81.92,67.4Z"/><path class="cls-1" d="M74.61,60.79a1.83,1.83,0,1,0,1.67-2A1.83,1.83,0,0,0,74.61,60.79Z"/><path class="cls-1" d="M74.09,60.84A2.35,2.35,0,1,1,76.62,63,2.35,2.35,0,0,1,74.09,60.84Zm1-.09a1.3,1.3,0,1,0,1.19-1.41A1.31,1.31,0,0,0,75.13,60.75Z"/><path class="cls-1" d="M92.15,46.8a1.83,1.83,0,1,0,1.67-2A1.82,1.82,0,0,0,92.15,46.8Z"/><path class="cls-1" d="M91.63,46.84A2.35,2.35,0,1,1,94.16,49,2.36,2.36,0,0,1,91.63,46.84Zm1-.08a1.3,1.3,0,1,0,1.2-1.41A1.31,1.31,0,0,0,92.67,46.76Z"/><path class="cls-1" d="M115.14,48.25a1.83,1.83,0,1,0,1.67-2A1.81,1.81,0,0,0,115.14,48.25Z"/><path class="cls-1" d="M114.62,48.29a2.35,2.35,0,1,1,2.53,2.16A2.35,2.35,0,0,1,114.62,48.29Zm1-.08a1.3,1.3,0,1,0,1.19-1.41A1.3,1.3,0,0,0,115.66,48.21Z"/><path class="cls-4" d="M94.57,12a1.83,1.83,0,1,0,1.67-2A1.83,1.83,0,0,0,94.57,12Z"/><path class="cls-4" d="M94.05,12.08a2.35,2.35,0,1,1,2.53,2.15A2.34,2.34,0,0,1,94.05,12.08Zm1-.08a1.3,1.3,0,1,0,1.19-1.41A1.31,1.31,0,0,0,95.09,12Z"/><path class="cls-1" d="M82.38,79a1.83,1.83,0,1,0,1.67-2A1.83,1.83,0,0,0,82.38,79Z"/><path class="cls-1" d="M81.86,79a2.35,2.35,0,1,1,2.53,2.15A2.35,2.35,0,0,1,81.86,79Zm1-.08a1.3,1.3,0,1,0,1.2-1.41A1.31,1.31,0,0,0,82.9,78.92Z"/></g></g></svg>
