<svg xmlns="http://www.w3.org/2000/svg" viewBox="0 0 100.73 116.47">
  <defs>
    <style>.cls-1 {
      fill: none;
      stroke-linejoin: round;
      stroke-width: 4px;
    }

    .cls-1, .cls-2, .cls-3 {
      stroke: #0288d1;
    }

    .cls-1, .cls-3 {
      stroke-linecap: round;
    }

    .cls-2, .cls-3, .cls-4 {
      fill: #0288d1;
    }

    .cls-2 {
      stroke-miterlimit: 10;
    }

    .cls-3 {
      stroke-linejoin: bevel;
      stroke-width: 3px;
    }</style>
  </defs>
  <title>evaluacion</title>
  <g id="Capa_2" data-name="Capa 2">
    <g id="Capa_1-2" data-name="Capa 1">
      <path class="cls-1"
            d="M83.8,67.61c9.4-26.55-.56-53-19.08-62C53.34.05,38.84,1.14,27.76,7.35,13.26,15.46,8.84,30,6.18,38.67,0,59.09-2.3,98.13,21.16,110.73c17.47,9.37,40.14-.75,52.09-9.93,19.93-15.29,29.09-42.54,24.17-71.09"/>
      <path class="cls-2"
            d="M27,33a4.63,4.63,0,0,1-.12-.67,10.37,10.37,0,0,1,0-1,2.51,2.51,0,0,1,.35-1,11.93,11.93,0,0,1,1.05-1.65,11.64,11.64,0,0,1,1.13-1.47,9.81,9.81,0,0,1,.93-.92c.33-.51.72-1.08,1.17-1.7a23.82,23.82,0,0,1,1.69-2q1.29-1.38,2.07-2.28a16,16,0,0,0,1.09-1.35c.15-.14.35-.33.57-.57s.48-.52.76-.83a4.55,4.55,0,0,1,.73-.62,1.14,1.14,0,0,1,.65-.23c.28.07.55.14.8.22a2.93,2.93,0,0,1,1.53.79A2,2,0,0,1,41.9,19a14.93,14.93,0,0,1-.09,1.65,14.5,14.5,0,0,1-.29,1.6,5.37,5.37,0,0,0-.1.79c0,.33,0,.72,0,1.16,0,.12,0,.25,0,.38a3.68,3.68,0,0,1-.06.43c0,.18-.07.33-.09.46a2,2,0,0,0,0,.32v.77a5.13,5.13,0,0,1-.07.71c-.05.28-.11.57-.19.88s-.12.81-.18,1.08-.09.44-.1.54c-.08.26-.16.57-.25.93s-.2.8-.34,1.31l.28.85c0,.17-.11.63-.25,1.38s-.33,1.78-.57,3.11q-.26,1.42-.51,2.49a8.87,8.87,0,0,1-.56,1.7,8.06,8.06,0,0,0-.32,1.26c-.1.55-.2,1.24-.31,2.06q-.24.54-.54,1.26c-.21.47-.42,1-.66,1.62l-.61.72c-.21.25-.46.53-.75.83a3.4,3.4,0,0,1-.85.93,1.44,1.44,0,0,1-.85.31.78.78,0,0,1-.5-.14.6.6,0,0,1-.16-.45,4.34,4.34,0,0,1,.06-.64,5.48,5.48,0,0,1,.24-.92l.5-1.55c.18-.73.34-1.4.45-2s.23-1.1.32-1.52c0-.25,0-.55.08-.91s.08-.78.13-1.27a4.83,4.83,0,0,1,.17-.61,2.1,2.1,0,0,0,.16-.7,17.54,17.54,0,0,1,.24-2.22c.17-1.06.42-2.44.76-4.15,0-.1,0-.25.06-.42s.08-.38.15-.63c-.09-.2-.17-.38-.23-.54s.07-.43.11-.72a10,10,0,0,0,0-1,14.83,14.83,0,0,1,.27-2.34,14.73,14.73,0,0,0,.27-2.29,2.45,2.45,0,0,0-.09-.76c-.06-.18-.16-.27-.28-.27l-.28.09c-.94.9-1.7,1.61-2.27,2.12a5,5,0,0,1-1.24.9,12.49,12.49,0,0,1-1,1.32c-.42.48-.91,1-1.49,1.54l-1.34,1.31L27.34,33.1Z"/>
      <path class="cls-2"
            d="M52.69,17.13l.51-.43a6.58,6.58,0,0,0,.68-.64A7.29,7.29,0,0,1,56,14.3a5.16,5.16,0,0,1,2.41-.58,2.48,2.48,0,0,1,1.14.36,10.49,10.49,0,0,1,1.46,1,8.35,8.35,0,0,1,3,5.15c.06.44.12,1.16.17,2.17s.09,2.3.09,3.9a21,21,0,0,1-.35,3.16q-.36,2.06-1.08,5.05c-.09.2-.2.44-.31.72s-.23.61-.37,1a2.89,2.89,0,0,1-.21.83l-.42,1c-.52,1.15-1,2.11-1.36,2.87a14.32,14.32,0,0,1-1,1.67,12.8,12.8,0,0,1-1.65,2.08,8.29,8.29,0,0,1-2,1.48,10.26,10.26,0,0,1-1,.5,1.87,1.87,0,0,1-.66.18l-.37,0-.68,0a3.61,3.61,0,0,0-.56,0h-.5a1.48,1.48,0,0,1-.36-.06,2.32,2.32,0,0,1-.53-.24,9.08,9.08,0,0,1-1.81-1.14,8.19,8.19,0,0,1-1.21-1.23,7.36,7.36,0,0,1-.64-1.41c-.21-.61-.42-1.32-.64-2.15a12.79,12.79,0,0,1-.4-2.16,7.56,7.56,0,0,1,0-1.79c-.08-.19-.13-.34-.17-.46a1,1,0,0,1-.06-.31c0-.41.08-.75.12-1a4.3,4.3,0,0,0,0-.77c0-.36,0-.85,0-1.46a21,21,0,0,1,.3-3.47,27.8,27.8,0,0,1,.87-3.64l.34-1.12c.13-.46.27-1,.43-1.62a11.35,11.35,0,0,0,.5-1.26c.18-.52.37-1.13.58-1.83a1.86,1.86,0,0,1,.15-.63l.38-1c.14-.31.28-.63.41-.95s.29-.64.46-1a2.2,2.2,0,0,1,.68-.76,1.69,1.69,0,0,1,1-.27.77.77,0,0,1,.48.12.37.37,0,0,1,.15.32q-.14.8-.3,1.5Zm.73,25.47a3.4,3.4,0,0,0,2.21-1,10.35,10.35,0,0,0,2.14-2.89c.28-.5.64-1.22,1.06-2.15s.94-2.11,1.54-3.51a22.28,22.28,0,0,0,.51-2.47A19,19,0,0,0,61.21,28q0-4.24-1.38-6.36a4.53,4.53,0,0,0-4-2.12,2.8,2.8,0,0,0-1.18.31,8,8,0,0,0-1.49.91,6.13,6.13,0,0,0-1.3,1.11,1.61,1.61,0,0,0-.43,1c.06.31.12.57.16.79a5.35,5.35,0,0,1-.18.88c-.13.48-.29,1.13-.5,2A13.54,13.54,0,0,0,50.54,28a6.13,6.13,0,0,0-.07,1.24c0,.82.07,1.64.11,2.46a4,4,0,0,1-.14.9,4.51,4.51,0,0,0-.14.9c.1.39.19.77.28,1.14a3.33,3.33,0,0,1,0,.44c0,.19,0,.43,0,.71a13.08,13.08,0,0,0,.15,1.94,11.47,11.47,0,0,0,.51,2.06,5.9,5.9,0,0,0,.94,2.11A1.56,1.56,0,0,0,53.42,42.6Z"/>
      <line class="cls-3" x1="19.9" y1="56.7" x2="71.22" y2="56.7"/>
      <path class="cls-4"
            d="M24.4,84.73a4.63,4.63,0,0,1-.12-.67c0-.29,0-.64,0-1a2.51,2.51,0,0,1,.35-1,11.93,11.93,0,0,1,1.05-1.65,11.81,11.81,0,0,1,1.13-1.48A9.54,9.54,0,0,1,27.7,78q.5-.76,1.17-1.71a25.47,25.47,0,0,1,1.69-2c.86-.92,1.55-1.68,2.07-2.29s.89-1.05,1.09-1.34a8,8,0,0,0,.57-.58c.23-.24.48-.51.76-.83a5.91,5.91,0,0,1,.73-.62,1.21,1.21,0,0,1,.65-.22c.28.06.55.13.8.21a2.94,2.94,0,0,1,1.53.8,2,2,0,0,1,.53,1.43A13.14,13.14,0,0,1,38.91,74a5.39,5.39,0,0,0-.1.78c0,.34,0,.73,0,1.16,0,.13,0,.26,0,.39a2.33,2.33,0,0,1-.06.43c0,.17-.07.33-.09.46a2,2,0,0,0,0,.31v.78a5.13,5.13,0,0,1-.07.71c-.05.27-.11.57-.19.88s-.12.81-.18,1.07-.09.45-.1.54c-.08.27-.16.58-.25.94s-.2.8-.34,1.31l.28.84c0,.17-.11.63-.25,1.38s-.33,1.79-.57,3.12q-.26,1.43-.51,2.49a8.87,8.87,0,0,1-.56,1.7,7.5,7.5,0,0,0-.32,1.26c-.1.55-.2,1.23-.31,2.06-.16.36-.34.78-.54,1.25s-.42,1-.66,1.63c-.18.22-.39.46-.61.71s-.46.54-.75.84a3.4,3.4,0,0,1-.85.93,1.51,1.51,0,0,1-.85.31.78.78,0,0,1-.5-.14.61.61,0,0,1-.16-.45,4.22,4.22,0,0,1,.06-.64,5.82,5.82,0,0,1,.24-.93c.16-.48.32-1,.5-1.54.18-.74.34-1.4.45-2s.23-1.1.32-1.52c0-.25,0-.56.08-.92s.08-.78.13-1.26a3.9,3.9,0,0,1,.18-.61,2.38,2.38,0,0,0,.15-.7,17.83,17.83,0,0,1,.24-2.23c.17-1.06.42-2.44.76-4.14q0-.17.06-.42t.15-.63c-.09-.2-.17-.38-.23-.54s.07-.43.11-.73a9.81,9.81,0,0,0,0-1,14.83,14.83,0,0,1,.27-2.34,14.82,14.82,0,0,0,.27-2.3,2.54,2.54,0,0,0-.09-.76c-.06-.18-.16-.27-.28-.27l-.28.1c-.94.9-1.7,1.61-2.27,2.12a5.69,5.69,0,0,1-1.24.9,14.94,14.94,0,0,1-1,1.32c-.42.47-.91,1-1.49,1.53l-1.34,1.31-1.35,1.31Z"/>
      <path class="cls-4"
            d="M50.08,68.88l.51-.43a6.75,6.75,0,0,0,.68-.65,7.24,7.24,0,0,1,2.13-1.75,5.17,5.17,0,0,1,2.41-.59,2.48,2.48,0,0,1,1.14.36,11.63,11.63,0,0,1,1.46,1,8.28,8.28,0,0,1,3,5.15c.06.44.12,1.16.17,2.16s.09,2.31.09,3.9a20.69,20.69,0,0,1-.35,3.16c-.24,1.38-.6,3.06-1.08,5.06-.09.2-.2.44-.31.71s-.23.61-.37,1a2.89,2.89,0,0,1-.21.83l-.42,1c-.52,1.15-1,2.11-1.36,2.86a13.79,13.79,0,0,1-1,1.68,12.8,12.8,0,0,1-1.65,2.08,8.29,8.29,0,0,1-2,1.48c-.39.21-.72.38-1,.5a1.81,1.81,0,0,1-.66.17,2.93,2.93,0,0,1-.37,0,6.65,6.65,0,0,0-.68,0,3.61,3.61,0,0,0-.56,0h-.5a1.48,1.48,0,0,1-.36-.06,2,2,0,0,1-.53-.25,8.64,8.64,0,0,1-1.81-1.13,9.25,9.25,0,0,1-1.21-1.23,7.49,7.49,0,0,1-.64-1.42c-.21-.6-.42-1.31-.64-2.14a12.79,12.79,0,0,1-.4-2.16,7.64,7.64,0,0,1,0-1.8,4.7,4.7,0,0,1-.17-.45,1,1,0,0,1-.06-.32c.05-.4.08-.75.12-1a4.09,4.09,0,0,0,0-.76c0-.37,0-.85,0-1.46a21.17,21.17,0,0,1,.3-3.48,28.59,28.59,0,0,1,.87-3.64c.09-.28.2-.65.34-1.11s.27-1,.43-1.63a11.9,11.9,0,0,0,.5-1.25c.18-.52.37-1.13.58-1.84a2,2,0,0,1,.15-.63l.38-1c.14-.32.28-.63.41-1s.29-.65.46-1a2.2,2.2,0,0,1,.68-.76,1.69,1.69,0,0,1,1-.27.85.85,0,0,1,.48.11.4.4,0,0,1,.15.33q-.14.8-.3,1.5Zm.73,25.47A3.4,3.4,0,0,0,53,93.4a10.5,10.5,0,0,0,2.14-2.89c.28-.5.64-1.22,1.06-2.16s.94-2.1,1.54-3.51a21.74,21.74,0,0,0,.51-2.47,18.8,18.8,0,0,0,.33-2.68q0-4.23-1.38-6.35a4.53,4.53,0,0,0-4-2.12,2.93,2.93,0,0,0-1.18.3,8.65,8.65,0,0,0-1.49.92,6.13,6.13,0,0,0-1.3,1.11,1.58,1.58,0,0,0-.43,1c.06.32.12.58.16.8a5.56,5.56,0,0,1-.18.88c-.13.47-.29,1.13-.5,2a14.4,14.4,0,0,0-.32,1.59A6.17,6.17,0,0,0,47.86,81c0,.83.07,1.65.11,2.46a3.8,3.8,0,0,1-.14.9,4.62,4.62,0,0,0-.14.9c.1.4.19.78.28,1.15a3.32,3.32,0,0,1,0,.43c0,.2,0,.44,0,.72a13.18,13.18,0,0,0,.15,1.94,11.68,11.68,0,0,0,.51,2.06,6,6,0,0,0,.94,2.11A1.56,1.56,0,0,0,50.81,94.35Z"/>
    </g>
  </g>
</svg>
