<svg xmlns="http://www.w3.org/2000/svg" viewBox="0 0 104.07 104.07"><defs><style>.cls-1{fill:#fff;}.cls-2{fill:#c8aacf;}.cls-3{fill:#d0a828;}.cls-4{fill:#009de0;}.cls-5{fill:#289548;}.cls-6{fill:#5a287f;}.cls-7{fill:#cb4f24;}</style></defs><title>logoico</title><g id="Capa_2" data-name="Capa 2"><g id="Capa_1-2" data-name="Capa 1"><circle class="cls-1" cx="52.03" cy="52.03" r="52.03"/><path class="cls-2" d="M83.35,42.74,69.71,42a.16.16,0,0,1-.11,0,.16.16,0,0,1,0-.12L71,21.19a.16.16,0,0,1,.12-.14.17.17,0,0,1,.17.07L83.49,42.51a.15.15,0,0,1-.12.23Zm-13.47-1,13.2.71L71.29,21.72Z"/><path class="cls-2" d="M69.61,42,60,32.2A.15.15,0,0,1,60,32L71.07,21.09a.15.15,0,0,1,.17,0,.16.16,0,0,1,.09.15L69.87,41.87a.14.14,0,0,1-.1.13h0A.15.15,0,0,1,69.61,42ZM60.33,32.1l9.26,9.4L71,21.6Z"/><path class="cls-2" d="M59.46,50.4a.16.16,0,0,1-.09-.15L60,32.09a.15.15,0,0,1,.1-.14.14.14,0,0,1,.16,0l9.61,9.76a.12.12,0,0,1,0,.11.13.13,0,0,1-.05.11l-10.2,8.41a.11.11,0,0,1-.08,0A.11.11,0,0,1,59.46,50.4Zm.8-17.94-.57,17.46,9.8-8.08Z"/><path class="cls-2" d="M63.22,54l-3.8-3.61a.17.17,0,0,1-.05-.12.14.14,0,0,1,.06-.11l10.19-8.4a.15.15,0,0,1,.2,0,.16.16,0,0,1,0,.19l-6.4,12a.12.12,0,0,1-.11.08h0A.13.13,0,0,1,63.22,54Zm-3.46-3.71,3.52,3.35,5.94-11.15Z"/><path class="cls-2" d="M27.76,37.67a.15.15,0,0,1-.1-.14V23.42a.18.18,0,0,1,.08-.13.15.15,0,0,1,.16,0l8,5.06a.16.16,0,0,1,.07.11.14.14,0,0,1,0,.12l-8,9.05a.16.16,0,0,1-.11,0A.07.07,0,0,1,27.76,37.67Zm.22-14V37.12l7.57-8.61Z"/><path class="cls-2" d="M48.7,33l-6-4.82a.13.13,0,0,1-.06-.14.16.16,0,0,1,.09-.12l9.95-4.69a.14.14,0,0,1,.17,0,.15.15,0,0,1,0,.17l-4,9.51a.14.14,0,0,1-.11.09h0A.15.15,0,0,1,48.7,33Zm-5.58-4.91,5.61,4.54,3.76-9Z"/><path class="cls-2" d="M34.36,89.31l-3.63-.42a.13.13,0,0,1-.1-.06.15.15,0,0,1,0-.13s.17-.77.38-2a.16.16,0,0,1,.17-.13l5,.64a.17.17,0,0,1,.13.1.16.16,0,0,1,0,.16l-1.71,1.82a.13.13,0,0,1-.1,0Zm-3.1-2.43c-.14.84-.27,1.45-.32,1.72l3.38.4,1.45-1.54Z"/><path class="cls-2" d="M71.06,21.3a.15.15,0,0,1,0-.17l.79-1.66a.16.16,0,0,1,.1-.08.13.13,0,0,1,.12,0,12,12,0,0,1,1.45,1.1.17.17,0,0,1,0,.15.14.14,0,0,1-.11.11l-2.23.59h0A.13.13,0,0,1,71.06,21.3Zm1-1.54L71.46,21l1.62-.43C72.74,20.26,72.39,20,72,19.76Z"/><path class="cls-2" d="M27.81,37.68,17,37.6a.15.15,0,0,1-.14-.09.16.16,0,0,1,0-.16,4.42,4.42,0,0,1,.84-.78,6.08,6.08,0,0,1,0-1.28c0-.21.07-.43.12-.67a.16.16,0,0,1,0-.07l9.84-11.23a.16.16,0,0,1,.27.11l0,14.1a.15.15,0,0,1,0,.11.13.13,0,0,1-.1,0Zm-9.69-3c0,.22-.08.41-.1.61a5.65,5.65,0,0,0,0,1.3.17.17,0,0,1-.07.14,3.93,3.93,0,0,0-.63.53l10.34.07V23.84Z"/><path class="cls-2" d="M64,60.89a.12.12,0,0,1-.06-.1l-.73-6.9a.14.14,0,0,1,.06-.14.16.16,0,0,1,.16,0l6.55,2.81a.16.16,0,0,1,.09.19,12.68,12.68,0,0,1-1.74,3.61.14.14,0,0,1-.1.07l-4.12.51h0A.1.1,0,0,1,64,60.89Zm5.73-4.12-6.18-2.65.68,6.48,3.89-.49A12.42,12.42,0,0,0,69.69,56.77Z"/><path class="cls-2" d="M36.15,87.53l.05,0a.14.14,0,0,0,.09-.13h-.15l.15,0a.16.16,0,0,0-.06-.12.13.13,0,0,0-.12,0h0a.18.18,0,0,0-.13.12.17.17,0,0,0,.06.16l0,0A.2.2,0,0,0,36.15,87.53Z"/><path class="cls-2" d="M60.1,32.25a.17.17,0,0,1-.11-.06l-2.91-3.8a.13.13,0,0,1,0-.12.15.15,0,0,1,.08-.11l14-7.1a.16.16,0,0,1,.19.05.14.14,0,0,1,0,.2L60.22,32.2a.12.12,0,0,1-.09,0Zm-2.67-3.9,2.7,3.51L70.36,21.79Z"/><path class="cls-2" d="M60.12,32.25,48.8,33a.16.16,0,0,1-.15-.11.14.14,0,0,1,.07-.18l8.4-4.59a.16.16,0,0,1,.2.05L60.24,32a.15.15,0,0,1,0,.16.16.16,0,0,1-.12.09Zm-10.63.43L59.82,32,57.16,28.5Z"/><path class="cls-2" d="M57.08,28.4l-4.41-4.93a.17.17,0,0,1,0-.12.14.14,0,0,1,.07-.11L56,21a.16.16,0,0,1,.15,0,.22.22,0,0,1,.09.12l1.08,7.14a.15.15,0,0,1-.09.16h0A.14.14,0,0,1,57.08,28.4ZM53,23.4,57,27.81l-1-6.38Z"/><path class="cls-2" d="M48.69,33a.17.17,0,0,1,0-.18l4-9.51a.14.14,0,0,1,.12-.09.16.16,0,0,1,.14.05l4.41,4.93a.15.15,0,0,1,0,.13.16.16,0,0,1-.08.1L48.87,33l-.06,0A.16.16,0,0,1,48.69,33Zm4.14-9.35-3.72,8.89L57,28.26Z"/><path class="cls-2" d="M60.64,65.37l-1.71-2.9a.15.15,0,0,1,0-.13.13.13,0,0,1,.1-.09l5-1.63a.14.14,0,0,1,.16.05.17.17,0,0,1,0,.18l-2.58,4.33a.15.15,0,0,1-.09.06l-.72.2h0A.13.13,0,0,1,60.64,65.37ZM63.71,61,59.3,62.48l1.54,2.63.54-.14Z"/><path class="cls-2" d="M16.18,42.07a.12.12,0,0,1-.07-.11l-.17-1.05a.11.11,0,0,1,0-.11,4.44,4.44,0,0,1-.05-1.26,4.26,4.26,0,0,1,.94-2.19.2.2,0,0,1,.12-.06l10.83.09a.14.14,0,0,1,.15.12.13.13,0,0,1-.09.17L16.31,42.08h0A.15.15,0,0,1,16.18,42.07Zm.88-4.47a3.91,3.91,0,0,0-.78,3.22.1.1,0,0,1,0,.1l.13.81,10.61-4Z"/><path class="cls-2" d="M15.33,42.94a.16.16,0,0,1-.09-.15l0-1.32a.15.15,0,0,1,0-.09,4.1,4.1,0,0,1,.69-.63.16.16,0,0,1,.15,0,.14.14,0,0,1,.09.12l.17,1a.18.18,0,0,1,0,.14l-.87.85a.14.14,0,0,1-.1.05ZM16,41.16a4.75,4.75,0,0,0-.4.38l0,.87.53-.53Z"/><path class="cls-2" d="M84.5,53.91a.16.16,0,0,1-.11-.13L83.2,42.6a.21.21,0,0,1,0-.13.22.22,0,0,1,.13,0l6.12,1.12a.18.18,0,0,1,.13.12,11.88,11.88,0,0,1,.12,3.57,1,1,0,0,1,0,.17l0,.1a.11.11,0,0,1,0,.07l-5,6.28a.24.24,0,0,1-.11.06Zm4.92-6.55,0-.16a11.55,11.55,0,0,0-.11-3.37l-5.81-1,1.13,10.59,4.75-5.95Z"/><path class="cls-2" d="M36.14,89.52l-.93-.1a.2.2,0,0,1-.12-.08.17.17,0,0,1,0-.14L36,87.28a.16.16,0,0,1,.1-.08.12.12,0,0,1,.13,0l0,0a.16.16,0,0,1,.06.13c0,.68,0,1.33,0,2a.17.17,0,0,1-.05.12.12.12,0,0,1-.09,0Zm-.68-.39.54.07c0-.41,0-.81,0-1.23Z"/><path class="cls-2" d="M35.21,89.42l-.85-.11a.14.14,0,0,1-.13-.1.16.16,0,0,1,0-.16L36,87.24a.14.14,0,0,1,.2,0,.15.15,0,0,1,0,.19l-.86,1.92a.16.16,0,0,1-.13.09ZM34.7,89l.43,0,.44-1Z"/><path class="cls-2" d="M15.32,42.93l-.62-.34a.15.15,0,0,1-.06-.2,4.13,4.13,0,0,1,.67-1,.14.14,0,0,1,.17,0,.14.14,0,0,1,.1.14l0,1.32a.18.18,0,0,1-.08.13l-.07,0A.11.11,0,0,1,15.32,42.93ZM15,42.39l.26.15,0-.61A4.34,4.34,0,0,0,15,42.39Z"/><path class="cls-2" d="M57.1,28.42a.16.16,0,0,1-.05-.17l3.24-10.46a.14.14,0,0,1,.08-.09.11.11,0,0,1,.11,0l10.74,3.36a.16.16,0,0,1,0,.29l-14,7.1h-.06A.14.14,0,0,1,57.1,28.42ZM60.54,18,57.45,28l13.32-6.77Z"/><path class="cls-2" d="M57.19,28.45a.14.14,0,0,1-.14-.13L56,21.19A.15.15,0,0,1,56,21l4.32-3.33a.17.17,0,0,1,.19,0,.15.15,0,0,1,0,.17L57.35,28.34a.15.15,0,0,1-.14.11Zm-.91-7.22,1,6.38,2.9-9.36Z"/><path class="cls-2" d="M64,60.92l-7.3-1.62a.15.15,0,0,1-.11-.12.13.13,0,0,1,0-.15l6.57-5.28a.16.16,0,0,1,.15,0,.15.15,0,0,1,.1.12l.73,6.9a.19.19,0,0,1,0,.13.13.13,0,0,1-.1,0ZM57.1,59.07l6.78,1.5-.68-6.4Z"/><path class="cls-2" d="M58.94,62.48l-2.31-3.24a.15.15,0,0,1,0-.18.14.14,0,0,1,.16-.06l7.3,1.62a.16.16,0,0,1,.12.14.17.17,0,0,1-.11.16l-5,1.62h0A.15.15,0,0,1,58.94,62.48Zm-1.82-3.09,2,2.82,4.34-1.41Z"/><path class="cls-2" d="M56.67,59.28a.16.16,0,0,1-.06-.18l2.77-8.89a.13.13,0,0,1,.11-.1.15.15,0,0,1,.14,0l3.8,3.61a.17.17,0,0,1,0,.12.14.14,0,0,1-.06.11l-6.57,5.28a.11.11,0,0,1-.08,0A.12.12,0,0,1,56.67,59.28Zm2.93-8.74-2.54,8.17,6-4.85Z"/><path class="cls-2" d="M56.74,59.3,42.82,57.67a.14.14,0,0,1-.13-.13.15.15,0,0,1,.09-.16l16.68-7.26a.15.15,0,0,1,.17,0,.18.18,0,0,1,0,.17l-2.76,8.88a.15.15,0,0,1-.14.11ZM43.43,57.43,56.65,59l2.63-8.44Z"/><path class="cls-2" d="M83.22,42.66,71,21.28a.17.17,0,0,1,0-.18.16.16,0,0,1,.18,0L80,25A.1.1,0,0,1,80,25a11.8,11.8,0,0,1,2.8,5,11.88,11.88,0,0,1,4.92,9.12,10.55,10.55,0,0,1,.67,1.09.16.16,0,0,1,0,.12.14.14,0,0,1-.08.09l-4.91,2.28h0A.14.14,0,0,1,83.22,42.66Zm4.24-3.37a.11.11,0,0,1,0-.08,11.6,11.6,0,0,0-4.84-9,.15.15,0,0,1-.06-.09,11.61,11.61,0,0,0-2.72-4.89l-8.27-3.73L83.42,42.39l4.63-2.15C87.86,39.91,87.66,39.59,87.46,39.29Z"/><path class="cls-2" d="M89.45,43.85l-6.12-1.11a.16.16,0,0,1-.13-.13.15.15,0,0,1,.09-.16l4.91-2.28a.14.14,0,0,1,.2.07,11.92,11.92,0,0,1,1.23,3.43.19.19,0,0,1,0,.14.11.11,0,0,1-.09,0Zm-5.59-1.33,5.42,1a11.45,11.45,0,0,0-1.08-3Z"/><path class="cls-2" d="M30.49,70.71a.16.16,0,0,1-.07-.19l5.07-13.8a.16.16,0,0,1,.17-.1l4.43.71a.17.17,0,0,1,.12.1.14.14,0,0,1,0,.14l-9.5,13.1a.17.17,0,0,1-.11.06A.15.15,0,0,1,30.49,70.71ZM35.74,57,31.1,69.58l8.69-12Z"/><path class="cls-2" d="M30.54,70.73a.16.16,0,0,1-.13-.16l.29-12.34a.18.18,0,0,1,.11-.15l4.78-1.45a.16.16,0,0,1,.16,0,.15.15,0,0,1,0,.16l-5.07,13.8a.14.14,0,0,1-.13.1ZM31,58.35l-.27,11.3L35.38,57Z"/><path class="cls-2" d="M56.09,21.32a.14.14,0,0,1-.1-.07l-4.56-6.52a.14.14,0,0,1,0-.14.19.19,0,0,1,.1-.1,7,7,0,0,1,3-.29l.18,0h.07l.06,0,5.72,3.44a.15.15,0,0,1,.07.12.18.18,0,0,1-.06.14l-4.32,3.33a.13.13,0,0,1-.08,0Zm-1.43-6.78h0l-.16,0a6.63,6.63,0,0,0-2.66.22L56.15,21l4-3.1Z"/><path class="cls-2" d="M56.45,65.68l-.2,0-.07,0a.13.13,0,0,1-.12-.1.14.14,0,0,1,0-.15L59,62.29a.13.13,0,0,1,.13,0,.15.15,0,0,1,.12.07l1.7,2.9a.14.14,0,0,1,0,.14.17.17,0,0,1-.11.09,12.72,12.72,0,0,1-1.85.29h0A12.29,12.29,0,0,1,56.45,65.68Zm2.59-3-2.52,2.73a12.27,12.27,0,0,0,4-.2Z"/><path class="cls-2" d="M56.18,65.64a12.88,12.88,0,0,1-3-.79.16.16,0,0,1-.08-.1.15.15,0,0,1,0-.13l3.52-5.55a.13.13,0,0,1,.12-.08.16.16,0,0,1,.13.07l2.31,3.24a.17.17,0,0,1,0,.2l-2.86,3.1a.22.22,0,0,1-.11.05Zm.58-6.21-3.29,5.2a13,13,0,0,0,2.67.7l2.73-2.95Z"/><path class="cls-2" d="M43.76,66a.19.19,0,0,1-.07-.12l-1-8.35a.15.15,0,0,1,.17-.17L56.78,59a.14.14,0,0,1,.12.08.16.16,0,0,1,0,.15l-3.52,5.56a.17.17,0,0,1-.19.06,12.76,12.76,0,0,1-4.7-3.32A7.94,7.94,0,0,1,43.9,66h0Zm4.79-4.88a12.31,12.31,0,0,0,4.63,3.38l3.32-5.24L43,57.7l.95,8a7.62,7.62,0,0,0,4.31-4.48.17.17,0,0,1,.12-.1h0A.15.15,0,0,1,48.55,61.13Z"/><path class="cls-2" d="M36.1,87.5h.06a.15.15,0,0,0,.13-.15.19.19,0,0,0-.1-.17.17.17,0,0,0-.17,0l0,0a.14.14,0,0,0,0,.18A.15.15,0,0,0,36.1,87.5Z"/><path class="cls-2" d="M42.55,67.28a.17.17,0,0,1-.14-.12l-2.5-9.64a.16.16,0,0,1,0-.13.16.16,0,0,1,.12-.06l2.78,0a.14.14,0,0,1,.15.13l1,8.36a.18.18,0,0,1-.1.16,8.45,8.45,0,0,1-.81.26,7.54,7.54,0,0,1-.39.91.16.16,0,0,1-.12.09Zm.15-9.61-2.44,0,2.34,9a6,6,0,0,0,.22-.57.16.16,0,0,1,.11-.1,7.16,7.16,0,0,0,.75-.23Z"/><path class="cls-2" d="M29.62,40l-1.93-2.34a.15.15,0,0,1,0-.2l8-9a.17.17,0,0,1,.21,0,.16.16,0,0,1,0,.2l-6,11.39a.15.15,0,0,1-.12.08h0A.19.19,0,0,1,29.62,40ZM28,37.53l1.71,2.06,5.31-10Z"/><path class="cls-2" d="M25.51,71.14a7.86,7.86,0,0,1-2.23-1.23.15.15,0,0,1,0-.2l7.49-11.56a.15.15,0,0,1,.17-.07.15.15,0,0,1,.11.15l-.29,12.35a.15.15,0,0,1-.14.15l-5,.42h-.07Zm5.18-12.37-7.11,11a7.75,7.75,0,0,0,2,1.08l4.84-.41Z"/><path class="cls-2" d="M23.28,69.91c-.19-.15-.38-.31-.55-.47a.16.16,0,0,1-.05-.14l2.85-13.62a.14.14,0,0,1,.09-.11.15.15,0,0,1,.13,0l5.18,2.52a.16.16,0,0,1,.08.1.2.2,0,0,1,0,.13L23.5,69.88a.18.18,0,0,1-.1.07h0A.15.15,0,0,1,23.28,69.91Zm2.52-14L23,69.27l.34.3,7.3-11.28Z"/><path class="cls-2" d="M22.73,69.44a7.88,7.88,0,0,1-2.5-5.22l-.18-.08-.46-.24a.16.16,0,0,1-.06-.08l-2.78-7.55a.17.17,0,0,1,0-.14s.08-.08.12-.07l8.8-.51a.16.16,0,0,1,.12.06.15.15,0,0,1,0,.13L23,69.36a.17.17,0,0,1-.1.12h0A.12.12,0,0,1,22.73,69.44ZM17.11,56.36l2.69,7.3.38.2.21.1.05,0a.14.14,0,0,1,.09.13A7.64,7.64,0,0,0,22.74,69l2.75-13.15Z"/><path class="cls-2" d="M19.59,63.9a7.93,7.93,0,0,1-3.69-4.7.11.11,0,0,1,0-.08l.84-2.95a.15.15,0,0,1,.15-.11.18.18,0,0,1,.15.1l2.78,7.55a.16.16,0,0,1-.05.17.19.19,0,0,1-.09,0Zm-3.38-4.74a7.58,7.58,0,0,0,3.16,4.24l-2.46-6.69Z"/><path class="cls-2" d="M59.4,50.35,50.58,38a.12.12,0,0,1,0-.12.14.14,0,0,1,.07-.1L60,32a.15.15,0,0,1,.16,0,.16.16,0,0,1,.08.14l-.59,18.16a.16.16,0,0,1-.11.15h0A.14.14,0,0,1,59.4,50.35ZM50.92,38,59.38,49.8,60,32.38Z"/><path class="cls-2" d="M50.65,38.05a.16.16,0,0,1-.09-.09l-1.91-5a.17.17,0,0,1,0-.14s.07-.08.12-.07l11.32-.79a.16.16,0,0,1,.16.11.15.15,0,0,1-.07.18L50.78,38l-.07,0ZM49,33l1.77,4.65,8.72-5.38Z"/><path class="cls-2" d="M59.46,50.4l-19.12-8a.17.17,0,0,1-.09-.14.17.17,0,0,1,.09-.15l10.3-4.36a.17.17,0,0,1,.19.05l8.82,12.36a.15.15,0,0,1,0,.19.12.12,0,0,1-.1,0A.11.11,0,0,1,59.46,50.4ZM40.8,42.26l18.28,7.65L50.65,38.09Z"/><path class="cls-2" d="M42.77,57.66a.21.21,0,0,1-.08-.11L40.25,42.29a.15.15,0,0,1,.06-.15.16.16,0,0,1,.15,0l19.12,8a.15.15,0,0,1,.1.14.16.16,0,0,1-.09.14L42.9,57.66h0A.11.11,0,0,1,42.77,57.66ZM40.6,42.51,43,57.3l16.17-7Z"/><path class="cls-2" d="M40.28,42.36a.17.17,0,0,1,0-.2l8.39-9.38a.15.15,0,0,1,.14-.05.17.17,0,0,1,.12.1l1.91,5a.17.17,0,0,1-.09.2l-10.3,4.36h0A.17.17,0,0,1,40.28,42.36Zm8.46-9.19L41,41.85l9.52-4Z"/><path class="cls-2" d="M40.34,42.4a.14.14,0,0,1-.09-.16L42.68,28a.17.17,0,0,1,.1-.12.14.14,0,0,1,.15,0l6,4.82a.24.24,0,0,1,.06.11.19.19,0,0,1,0,.12l-8.39,9.38a.16.16,0,0,1-.1.05A.11.11,0,0,1,40.34,42.4Zm2.6-14.06L40.65,41.76l7.92-8.86Z"/><path class="cls-2" d="M42.84,57.68l-2.78,0a.16.16,0,0,1-.11,0,.15.15,0,0,1,0-.11l.34-15.22a.15.15,0,0,1,.14-.15h0a.17.17,0,0,1,.17.13L43,57.5a.13.13,0,0,1,0,.12.16.16,0,0,1-.11.05Zm-2.62-.35,2.44,0L40.52,44Z"/><path class="cls-2" d="M40,57.64l-4.43-.71a.21.21,0,0,1-.11-.08.16.16,0,0,1,0-.12l4.77-14.51a.15.15,0,0,1,.17-.11.16.16,0,0,1,.13.16l-.34,15.22a.14.14,0,0,1-.06.11.13.13,0,0,1-.09,0Zm-4.2-1,4.07.65.32-14Z"/><path class="cls-2" d="M40.26,42.31,35.63,28.53a.17.17,0,0,1,0-.14.13.13,0,0,1,.12-.06l7-.43A.16.16,0,0,1,43,28a.17.17,0,0,1,0,.12L40.56,42.29a.17.17,0,0,1-.14.13A.14.14,0,0,1,40.26,42.31ZM36,28.62l4.36,13,2.3-13.41Z"/><path class="cls-2" d="M40.37,42.42,29.71,40a.17.17,0,0,1-.11-.09.14.14,0,0,1,0-.14l6-11.38a.14.14,0,0,1,.15-.08.14.14,0,0,1,.13.1l4.63,13.79a.14.14,0,0,1,0,.15.16.16,0,0,1-.1.05ZM30,39.76l10.2,2.3L35.75,28.87Z"/><path class="cls-2" d="M71.06,21.3l-2.72-3.14a.15.15,0,0,1,0-.18.14.14,0,0,1,.17-.07,11.17,11.17,0,0,1,3.56,1.49.16.16,0,0,1,.06.2l-.8,1.67a.13.13,0,0,1-.11.08h0A.13.13,0,0,1,71.06,21.3Zm-2.17-3,2.25,2.59.63-1.33A10.73,10.73,0,0,0,68.89,18.33Z"/><path class="cls-2" d="M71.13,21.35,60.39,18a.16.16,0,0,1-.11-.13L60,15.54a.13.13,0,0,1,0-.12.11.11,0,0,1,.12-.05,8.39,8.39,0,0,1,.84.07,11.41,11.41,0,0,1,5.51,2.19c.23,0,.45,0,.68.06a9.8,9.8,0,0,1,1.26.22.1.1,0,0,1,.08.05l2.72,3.14a.14.14,0,0,1,0,.18.12.12,0,0,1-.11.07ZM67.19,18c-.23,0-.47,0-.7-.06a.16.16,0,0,1-.09,0A11.17,11.17,0,0,0,61,15.74l-.64-.05.22,2L70.7,20.89,68.37,18.2C68,18.11,67.57,18,67.19,18Z"/><path class="cls-2" d="M60.36,18l-5.72-3.45a.16.16,0,0,1-.07-.18.16.16,0,0,1,.17-.1,7,7,0,0,1,3.09,1.27,11.75,11.75,0,0,1,2.37-.14.14.14,0,0,1,.14.14l.25,2.31a.13.13,0,0,1-.07.14.11.11,0,0,1-.07,0Zm-2.54-2.14a.16.16,0,0,1-.12,0,6.79,6.79,0,0,0-2.08-1.05l4.63,2.79-.2-1.87A11.06,11.06,0,0,0,57.82,15.83Z"/><path class="cls-2" d="M79.44,57.59l-2.51-.24a.19.19,0,0,1-.14-.13.17.17,0,0,1,.09-.17l7.6-3.43a.16.16,0,0,1,.2.07l.65,1.3a.16.16,0,0,1,0,.19,11.8,11.8,0,0,1-5.81,2.41h0Zm5-3.63-6.93,3.13,1.91.19A11.39,11.39,0,0,0,85,55Z"/><path class="cls-2" d="M79,57.64h0l.48,0a.16.16,0,0,0,.14-.16.15.15,0,0,0-.14-.15L77,57a.15.15,0,0,0-.16.2l.11.29a.14.14,0,0,0,.13.1A11.55,11.55,0,0,0,79,57.64Z"/><path class="cls-2" d="M76.84,57.3a.15.15,0,0,1,0-.17l6.41-14.61a.17.17,0,0,1,.17-.09.16.16,0,0,1,.13.14L84.7,53.74a.15.15,0,0,1-.09.16L77,57.33l-.05,0A.17.17,0,0,1,76.84,57.3Zm6.42-14.12-6,13.7,7.13-3.21Z"/><path class="cls-2" d="M77,57.35a.16.16,0,0,1-.14-.09L69.58,41.92a.16.16,0,0,1,0-.15.15.15,0,0,1,.14-.07l13.63.73a.16.16,0,0,1,.13.08.17.17,0,0,1,0,.14l-6.41,14.6a.21.21,0,0,1-.13.1ZM70,42l7,14.8,6.19-14.09Z"/><path class="cls-2" d="M77,57.63a.16.16,0,0,0,.13-.06.18.18,0,0,0,0-.14l-.11-.29A.14.14,0,0,0,77,57a.13.13,0,0,0-.14.08l-.13.27a.17.17,0,0,0,0,.14.14.14,0,0,0,.12.08l.2,0Z"/><path class="cls-2" d="M69.82,56.82,63.26,54a.15.15,0,0,1-.08-.19.15.15,0,0,1,.18-.1l6.83,1.67a.16.16,0,0,1,.12.18c-.08.39-.17.78-.28,1.16a.2.2,0,0,1-.09.09l0,0Zm-4.73-2.36,4.69,2c.07-.27.14-.54.2-.82Z"/><path class="cls-2" d="M76.8,57.61h-.15a11.71,11.71,0,0,1-4.32-1.38.15.15,0,0,1-.07-.19.17.17,0,0,1,.18-.1L77,57a.14.14,0,0,1,.11.09.15.15,0,0,1,0,.13l-.13.27a.16.16,0,0,1-.13.08Zm-.12-.32h0l-2.83-.7A11.07,11.07,0,0,0,76.68,57.29Z"/><path class="cls-2" d="M76.91,57.34l-4.54-1.11h0a11.34,11.34,0,0,1-1.91-1.31c0,.2-.07.42-.11.66a.17.17,0,0,1-.07.1.17.17,0,0,1-.12,0L63.29,54a.14.14,0,0,1-.11-.09.15.15,0,0,1,0-.13l6.39-12a.16.16,0,0,1,.14-.08.17.17,0,0,1,.14.09l7.23,15.34a.18.18,0,0,1,0,.16.24.24,0,0,1-.11.06ZM63.55,53.77,70,55.35c0-.28.09-.53.11-.76a.17.17,0,0,1,.1-.13.16.16,0,0,1,.16,0,11.7,11.7,0,0,0,2,1.45l4.21,1-7-14.76Z"/><path class="cls-2" d="M52.74,23.52a.22.22,0,0,1-.1-.09l-3.7-8.92a.14.14,0,0,1,0-.15.14.14,0,0,1,.15-.06,7.18,7.18,0,0,1,1.56.53h0l.05,0a.15.15,0,0,1,.18,0l5.31,6.23a.16.16,0,0,1,0,.12.14.14,0,0,1-.07.1L52.87,23.5l-.07,0Zm-2-8.39h0a.14.14,0,0,1-.14,0,6.86,6.86,0,0,0-1.27-.46l3.52,8.47,3-2Z"/><path class="cls-2" d="M56,21.27,50.69,15a.14.14,0,0,1,0-.13.17.17,0,0,1,.09-.11c.27-.12.52-.22.77-.31a.16.16,0,0,1,.17.06l4.56,6.53a.16.16,0,0,1,0,.21l-.08,0A.15.15,0,0,1,56,21.27ZM51.06,15l3.09,3.63L51.5,14.82Z"/><path class="cls-2" d="M24.47,24.87a.17.17,0,0,1,0-.17,4.84,4.84,0,0,1,2.71-2.58.14.14,0,0,1,.19.07L28,23.35a.12.12,0,0,1,0,.13.14.14,0,0,1-.08.09L24.64,24.9l0,0A.21.21,0,0,1,24.47,24.87Zm2.67-2.42a4.58,4.58,0,0,0-2.24,2l2.71-1.11Z"/><path class="cls-2" d="M17.91,34.79a.17.17,0,0,1-.08-.17,6.13,6.13,0,0,1,2.9-3.91c0-.15,0-.31,0-.46a6.05,6.05,0,0,1,3.42-4.79,4.22,4.22,0,0,1,.25-.76.15.15,0,0,1,.08-.08l3.25-1.34a.17.17,0,0,1,.18,0,.15.15,0,0,1,0,.2L18.1,34.75a.16.16,0,0,1-.11,0A.12.12,0,0,1,17.91,34.79Zm6.79-9.91a4,4,0,0,0-.23.72.14.14,0,0,1-.09.11,5.78,5.78,0,0,0-3.31,4.58,4.53,4.53,0,0,0,0,.52.16.16,0,0,1-.08.13A5.8,5.8,0,0,0,18.33,34l9-10.2Z"/><path class="cls-2" d="M85.15,55.21a.16.16,0,0,1-.1-.08l-.64-1.3a.16.16,0,0,1,0-.2l3.81-2.49a.14.14,0,0,1,.18,0,.16.16,0,0,1,0,.19,11.88,11.88,0,0,1-3.21,3.84.11.11,0,0,1-.08,0Zm-.41-1.39.5,1a11.75,11.75,0,0,0,2.67-3.08Z"/><path class="cls-2" d="M84.43,53.87a.18.18,0,0,1,0-.21l5-6.27a.14.14,0,0,1,.18,0,.15.15,0,0,1,.09.17,11.75,11.75,0,0,1-1.22,3.83l0,.06-3.81,2.49-.07,0A.19.19,0,0,1,84.43,53.87ZM89.31,48l-4,5.06,3-1.94A11.43,11.43,0,0,0,89.31,48Z"/><path class="cls-2" d="M35.69,28.61l-7.94-5.06a.12.12,0,0,1-.07-.15.15.15,0,0,1,.12-.13l6.08-1.11a.16.16,0,0,1,.18.11l1.86,6.17a.14.14,0,0,1-.05.16.2.2,0,0,1-.08,0A.19.19,0,0,1,35.69,28.61Zm-7.45-5.1,7.27,4.62L33.8,22.49Z"/><path class="cls-2" d="M33.86,22.46,30,21.14a.24.24,0,0,1-.09-.08.19.19,0,0,1,0-.13A4.78,4.78,0,0,1,34.26,18l0,0a.15.15,0,0,1,.18-.05.14.14,0,0,1,.1.16l-.5,4.26a.12.12,0,0,1-.07.11s-.05,0-.07,0ZM30.27,20.9l3.51,1.2.44-3.8A4.48,4.48,0,0,0,30.27,20.9Z"/><path class="cls-2" d="M27.69,23.5l-.62-1.17a.17.17,0,0,1,0-.12.13.13,0,0,1,.09-.09,3.74,3.74,0,0,1,.47-.16h0l6.25.2a.15.15,0,0,1,0,.3l-6.08,1.12h0A.18.18,0,0,1,27.69,23.5Zm0-1.23-.25.07.48.91,4.55-.83Z"/><path class="cls-2" d="M33.9,22.47l-6.25-.2a.17.17,0,0,1-.15-.14.16.16,0,0,1,.12-.17,4.94,4.94,0,0,1,1.8-.13l.21,0a5.36,5.36,0,0,1,.29-.94.15.15,0,0,1,.19-.08L34,22.17a.16.16,0,0,1,.1.17.16.16,0,0,1-.14.13Zm-4-.44,3,.1-2.74-.94A5.25,5.25,0,0,0,29.92,22Z"/><path class="cls-2" d="M52.77,23.52,38.07,22a.17.17,0,0,1-.13-.1.16.16,0,0,1,0-.16l6.27-6.68.07,0a7,7,0,0,1,4.18-.82l.62.1a.16.16,0,0,1,.11.1l3.7,8.91a.16.16,0,0,1,0,.15.14.14,0,0,1-.11.06Zm-4.3-9a6.66,6.66,0,0,0-4,.79l-6,6.42,14.12,1.47L49,14.59Z"/><path class="cls-2" d="M42.71,28.15,38,21.94a.15.15,0,0,1,0-.17.14.14,0,0,1,.15-.08l14.7,1.52a.16.16,0,0,1,.14.13.17.17,0,0,1-.09.17l-10,4.69h-.06A.12.12,0,0,1,42.71,28.15ZM38.43,22l4.45,5.84,9.34-4.41Z"/><path class="cls-2" d="M38,22a.15.15,0,0,1-.1-.14l-.45-5.76a.14.14,0,0,1,.08-.15,4.74,4.74,0,0,1,2.69-.47h0A4.8,4.8,0,0,1,44.42,15a.18.18,0,0,1,.1.11.18.18,0,0,1,0,.14L38.2,22a.19.19,0,0,1-.1.05Zm5.31-6.9a4.5,4.5,0,0,0-3,.68.12.12,0,0,1-.1,0h-.08a4.48,4.48,0,0,0-2.42.39l.42,5.31,5.87-6.24A4.85,4.85,0,0,0,43.35,15.09Z"/><path class="cls-2" d="M42.84,28.21l-7.05.43a.17.17,0,0,1-.14-.07.14.14,0,0,1,0-.14l2.31-6.64a.17.17,0,0,1,.12-.1.14.14,0,0,1,.15.06L43,28a.15.15,0,0,1,0,.16.14.14,0,0,1-.13.09Zm-6.84.1,6.53-.39-4.39-5.76Z"/><path class="cls-2" d="M35.77,28.64a.18.18,0,0,1-.14-.11l-1.87-6.17a.15.15,0,0,1,0-.13.14.14,0,0,1,.11-.07l4.18-.47a.13.13,0,0,1,.14.06.17.17,0,0,1,0,.14l-2.32,6.64a.16.16,0,0,1-.13.11Zm-1.66-6.19L35.79,28l2.07-6Z"/><path class="cls-2" d="M33.8,22.42a.19.19,0,0,1,0-.13l.5-4.26,0-.07a4.8,4.8,0,0,1,2.88-1.79,3.76,3.76,0,0,1,.41-.23.16.16,0,0,1,.15,0,.2.2,0,0,1,.08.12l.44,5.77a.16.16,0,0,1-.13.17l-4.18.47h0A.18.18,0,0,1,33.8,22.42Zm3.71-6.1-.21.12-.06,0a4.55,4.55,0,0,0-2.69,1.65l-.47,4,3.84-.43Z"/><path class="cls-2" d="M37.82,75.29,31.93,73.5a.15.15,0,0,1-.11-.14l0-.18a.19.19,0,0,1,0-.08l8.11-15.69a.15.15,0,0,1,.15-.08.15.15,0,0,1,.13.11l2.5,9.64a.14.14,0,0,1,0,.11,8,8,0,0,1-2.59,3,26.23,26.23,0,0,0-2.09,5,.18.18,0,0,1-.14.11ZM40,57.91,32.11,73.2v0L37.77,75A26.57,26.57,0,0,1,39.86,70a.12.12,0,0,1,0,0A7.71,7.71,0,0,0,42.4,67.1Z"/><path class="cls-2" d="M36.06,87.49a.15.15,0,0,1-.12-.1l-4.1-13.67c0-.12,0-.24,0-.36a.13.13,0,0,1,.05-.13.2.2,0,0,1,.15,0L37.91,75s.08,0,.09.08a.17.17,0,0,1,0,.12A41.63,41.63,0,0,0,36.29,87.3a.18.18,0,0,1,0,.1l0,0a.12.12,0,0,1-.1,0ZM32.14,73.56v.11L36,86.48a42,42,0,0,1,1.68-11.24Z"/><path class="cls-2" d="M32,73.32a.17.17,0,0,1-.17-.14.11.11,0,0,1,0-.05c-.07-.8-.16-1.57-.28-2.28-.22.1-.45.19-.7.28a.14.14,0,0,1-.19-.07l-.2-.42a.14.14,0,0,1,0-.15l9.5-13.1a.16.16,0,0,1,.2,0,.15.15,0,0,1,.06.2L32.09,73.24a.13.13,0,0,1-.12.08Zm-1.21-2.73.09.21a5.52,5.52,0,0,0,.73-.32.17.17,0,0,1,.14,0,.13.13,0,0,1,.08.11c.11.64.2,1.32.27,2L39,59.23Z"/><path class="cls-2" d="M36.07,87.5l-5-.64a.17.17,0,0,1-.1-.06.13.13,0,0,1,0-.12,59.7,59.7,0,0,0,.86-13,.17.17,0,0,1,.13-.16.15.15,0,0,1,.17.11l4.1,13.63a.21.21,0,0,1,0,.15.16.16,0,0,1-.11,0Zm-4.76-.93,4.57.59L32.21,75A62.54,62.54,0,0,1,31.31,86.57Z"/><path class="cls-2" d="M27.25,71.54a7.86,7.86,0,0,1-1.74-.4.15.15,0,0,1-.1-.17.16.16,0,0,1,.14-.13l5-.42h0a.17.17,0,0,1,.16.09l.19.41a.2.2,0,0,1,0,.13.14.14,0,0,1-.09.08,7.94,7.94,0,0,1-2,.44h0A8,8,0,0,1,27.25,71.54Zm3.22-.8-4.07.34a6.47,6.47,0,0,0,.88.15,7.44,7.44,0,0,0,1.49,0h0a7.81,7.81,0,0,0,1.78-.36Z"/><path class="cls-2" d="M66.45,62.31,64,60.9a.15.15,0,0,1-.08-.16.14.14,0,0,1,.13-.12l4.12-.52a.18.18,0,0,1,.15.07.15.15,0,0,1,0,.17,11.42,11.42,0,0,1-1.66,1.94.2.2,0,0,1-.09,0Zm-1.92-1.44,2,1.11a13.11,13.11,0,0,0,1.34-1.53Z"/><path class="cls-2" d="M61.36,65.19a.14.14,0,0,1,0-.17l2.57-4.33a.15.15,0,0,1,.21,0L66.6,62a.15.15,0,0,1,.08.11.19.19,0,0,1-.05.13,12.65,12.65,0,0,1-5.11,3h0A.14.14,0,0,1,61.36,65.19ZM64.11,61l-2.29,3.85a12.29,12.29,0,0,0,4.44-2.63Z"/><path class="cls-2" d="M35.54,56.89l-9.88-8.25a.2.2,0,0,1-.06-.14.15.15,0,0,1,.1-.12l14.64-6.26a.17.17,0,0,1,.17,0,.16.16,0,0,1,0,.16L35.78,56.82a.13.13,0,0,1-.1.1h0A.15.15,0,0,1,35.54,56.89Zm-9.49-8.33,9.51,7.95,4.59-14Z"/><path class="cls-2" d="M25.65,48.63a.15.15,0,0,1,0-.18l4-8.65a.16.16,0,0,1,.18-.08l10.66,2.39a.17.17,0,0,1,.12.14.16.16,0,0,1-.1.16L25.82,48.66h-.05A.14.14,0,0,1,25.65,48.63ZM29.83,40l-3.76,8.18L39.9,42.31Z"/><path class="cls-2" d="M30.72,58.3l-5.1-9.71a.16.16,0,0,1,.24-.19l9.87,8.26a.13.13,0,0,1,.06.14.17.17,0,0,1-.11.12L30.9,58.38h0A.14.14,0,0,1,30.72,58.3Zm-4.46-9.16,4.68,8.91,4.38-1.34Z"/><path class="cls-2" d="M30.79,58.37l-5.17-2.52a.16.16,0,0,1-.09-.15l.07-7.18a.15.15,0,0,1,.12-.15.14.14,0,0,1,.17.08L31,58.16a.15.15,0,0,1,0,.18.13.13,0,0,1-.1,0A.11.11,0,0,1,30.79,58.37Zm-4.95-2.76,4.66,2.28-4.59-8.76Z"/><path class="cls-2" d="M25.71,48.67a.16.16,0,0,1-.1-.18l2.05-11a.15.15,0,0,1,.11-.12.16.16,0,0,1,.16,0l1.93,2.34a.14.14,0,0,1,0,.16l-4,8.65a.17.17,0,0,1-.13.09ZM27.9,37.88l-1.76,9.44,3.42-7.43Z"/><path class="cls-2" d="M25.67,48.65l-9.5-6.59a.13.13,0,0,1-.06-.14.14.14,0,0,1,.09-.13l11.56-4.4a.16.16,0,0,1,.15,0,.17.17,0,0,1,.05.15l-2.05,11a.17.17,0,0,1-.09.11h-.05A.12.12,0,0,1,25.67,48.65ZM16.59,42l9.06,6.27,2-10.48Z"/><path class="cls-2" d="M25.69,55.86l-8.79.51a.16.16,0,0,1-.15-.1.14.14,0,0,1,0-.17l8.87-7.7a.14.14,0,0,1,.16,0,.14.14,0,0,1,.09.14l-.07,7.19a.15.15,0,0,1-.14.15ZM17.34,56l8.19-.47.07-6.7Z"/><path class="cls-2" d="M16.84,56.36a.15.15,0,0,1-.1-.13l-.31-2.76a.11.11,0,0,1,0-.08,7.66,7.66,0,0,1,1-1.48,4.36,4.36,0,0,1-1.15-.5.15.15,0,0,1-.07-.12l-1-8.48a.16.16,0,0,1,.23-.15l10.36,5.72a.14.14,0,0,1,.08.12.13.13,0,0,1-.05.13L17,56.33a.12.12,0,0,1-.08,0ZM15.58,43.07l.91,8.11a3.65,3.65,0,0,0,1.23.49.14.14,0,0,1,.11.1.14.14,0,0,1,0,.15,7.94,7.94,0,0,0-1.06,1.56L17,55.9l8.48-7.35Z"/><path class="cls-2" d="M25.68,48.65,15.32,42.93a.15.15,0,0,1,0-.24l.87-.86a.17.17,0,0,1,.2,0l9.5,6.58a.17.17,0,0,1,0,.21.15.15,0,0,1-.12.07A.15.15,0,0,1,25.68,48.65Zm-10-5.89,7.52,4.15-6.89-4.77Z"/><path class="cls-2" d="M16.26,51.41a4.26,4.26,0,0,1-2-4.07,4.21,4.21,0,0,1,.36-1.29,4.16,4.16,0,0,1-.4-2.36,4,4,0,0,1,.33-1.2.16.16,0,0,1,.19-.09l.66.25a.17.17,0,0,1,.1.13l.94,8.48a.15.15,0,0,1-.07.15l-.07,0A.15.15,0,0,1,16.26,51.41Zm-1.44-8.66a4.28,4.28,0,0,0-.25,1A3.89,3.89,0,0,0,15,46a.14.14,0,0,1,0,.14A3.94,3.94,0,0,0,16.15,51l-.9-8.05Z"/><path class="cls-2" d="M16.76,56.3l-.86-1.36a.15.15,0,0,1,0-.13,8.47,8.47,0,0,1,.5-1.33l.06-.09a.14.14,0,0,1,.16-.09.16.16,0,0,1,.13.14l.31,2.76a.16.16,0,0,1-.11.16h0A.17.17,0,0,1,16.76,56.3Zm-.56-1.47.46.73L16.49,54A7.06,7.06,0,0,0,16.2,54.83Z"/><path class="cls-2" d="M16,59.31a.15.15,0,0,1-.14-.11,7.9,7.9,0,0,1,0-4.39A.15.15,0,0,1,16,54.7a.17.17,0,0,1,.15.07L17,56.13a.15.15,0,0,1,0,.13l-.85,2.94a.14.14,0,0,1-.13.11Zm.05-4.07a7.59,7.59,0,0,0,0,3.32l.67-2.32Z"/><path class="cls-2" d="M15.4,43a.16.16,0,0,0,.13-.09.15.15,0,0,0-.06-.2l-.62-.34a.13.13,0,0,0-.12,0,.14.14,0,0,0-.09.08l0,.06a.23.23,0,0,0,0,.14s0,.09.08.1l.66.25Z"/><path class="cls-2" d="M74.92,22.17l-3.78-.82A.14.14,0,0,1,71,21.2a.16.16,0,0,1,.12-.15l2.22-.58a.12.12,0,0,1,.14,0,11.65,11.65,0,0,1,1.25,1.29l.14.05.11,0a.16.16,0,0,1,.1.19.14.14,0,0,1-.13.11Zm-3.08-1,2.44.53a10.18,10.18,0,0,0-.92-.94Z"/><path class="cls-2" d="M79.84,25.28l-8.73-3.94a.15.15,0,0,1-.08-.19.15.15,0,0,1,.18-.1l3.79.82A11.73,11.73,0,0,1,80,25a.15.15,0,0,1,0,.19.19.19,0,0,1-.12.07Zm-.66-.63a11.3,11.3,0,0,0-4.26-2.48l-2.35-.51Z"/><path class="cls-3" d="M59.17,32a1.08,1.08,0,1,0,1-1.16A1.08,1.08,0,0,0,59.17,32Z"/><path class="cls-3" d="M58.86,32a1.39,1.39,0,1,1,1.5,1.27A1.39,1.39,0,0,1,58.86,32Zm.62-.05a.76.76,0,0,0,.83.7.77.77,0,1,0-.13-1.53A.76.76,0,0,0,59.48,32Z"/><path class="cls-3" d="M51.71,23.46a1.08,1.08,0,1,0,1-1.17A1.09,1.09,0,0,0,51.71,23.46Z"/><path class="cls-3" d="M51.4,23.48a1.39,1.39,0,1,1,2.77-.22,1.39,1.39,0,0,1-2.77.22Zm.62-.05a.77.77,0,1,0,.7-.83A.77.77,0,0,0,52,23.43Z"/><path class="cls-3" d="M55.31,21.38a.69.69,0,1,0,.64-.75A.7.7,0,0,0,55.31,21.38Z"/><path class="cls-3" d="M55,21.41a1,1,0,0,1,.92-1.08,1,1,0,0,1,1.08.92,1,1,0,0,1-2,.16Zm.62-.05a.37.37,0,0,0,.41.35.4.4,0,0,0,.36-.41.39.39,0,1,0-.77.06Z"/><path class="cls-4" d="M33.08,22.33a.85.85,0,1,0,1.69-.13.84.84,0,0,0-.91-.78A.85.85,0,0,0,33.08,22.33Z"/><path class="cls-4" d="M32.77,22.36A1.16,1.16,0,1,1,34,23.42,1.16,1.16,0,0,1,32.77,22.36Zm.62-.05a.53.53,0,0,0,.58.49.54.54,0,0,0,.5-.58.55.55,0,0,0-.59-.49A.53.53,0,0,0,33.39,22.31Z"/><path class="cls-4" d="M37,21.93a1.08,1.08,0,1,0,1-1.17A1.09,1.09,0,0,0,37,21.93Z"/><path class="cls-4" d="M36.7,22a1.39,1.39,0,1,1,1.5,1.28A1.4,1.4,0,0,1,36.7,22Zm.62-.05a.77.77,0,0,0,1.54-.12.77.77,0,1,0-1.54.12Z"/><path class="cls-4" d="M41.75,28.15a1.08,1.08,0,1,0,1-1.17A1.09,1.09,0,0,0,41.75,28.15Z"/><path class="cls-4" d="M41.45,28.17A1.39,1.39,0,1,1,44.22,28a1.39,1.39,0,0,1-2.77.22Zm.61-.05A.77.77,0,1,0,43.6,28a.77.77,0,0,0-.83-.71A.78.78,0,0,0,42.06,28.12Z"/><path class="cls-5" d="M39.33,42.05a1.08,1.08,0,1,0,1-1.16A1.08,1.08,0,0,0,39.33,42.05Z"/><path class="cls-5" d="M39,42.08a1.39,1.39,0,0,1,2.77-.23,1.38,1.38,0,0,1-1.27,1.5A1.4,1.4,0,0,1,39,42.08Zm.62,0a.77.77,0,1,0,1.54-.13.77.77,0,0,0-1.54.13Z"/><path class="cls-6" d="M24.83,48.5A1.08,1.08,0,1,0,27,48.32a1.07,1.07,0,0,0-1.16-1A1.09,1.09,0,0,0,24.83,48.5Z"/><path class="cls-6" d="M24.52,48.52a1.39,1.39,0,1,1,2.77-.22,1.39,1.39,0,0,1-2.77.22Zm.62-.05a.77.77,0,0,0,.83.71.77.77,0,0,0-.12-1.54A.77.77,0,0,0,25.14,48.47Z"/><path class="cls-6" d="M26.73,37.81a1.08,1.08,0,1,0,1-1.16A1.07,1.07,0,0,0,26.73,37.81Z"/><path class="cls-6" d="M26.42,37.84a1.39,1.39,0,1,1,1.49,1.27A1.39,1.39,0,0,1,26.42,37.84Zm.61-.05a.77.77,0,1,0,.71-.84A.79.79,0,0,0,27,37.79Z"/><path class="cls-5" d="M49.62,38a1.08,1.08,0,1,0,1-1.16A1.08,1.08,0,0,0,49.62,38Z"/><path class="cls-5" d="M49.32,38a1.38,1.38,0,0,1,1.27-1.5,1.39,1.39,0,1,1,.22,2.77A1.39,1.39,0,0,1,49.32,38Zm.61-.05a.77.77,0,0,0,.83.7.76.76,0,0,0,.71-.83.77.77,0,1,0-1.54.13Z"/><path class="cls-4" d="M34.61,28.6a1.08,1.08,0,1,0,1-1.17A1.09,1.09,0,0,0,34.61,28.6Z"/><path class="cls-4" d="M34.3,28.62a1.39,1.39,0,1,1,1.5,1.28A1.4,1.4,0,0,1,34.3,28.62Zm.62-.05a.77.77,0,0,0,1.54-.12.79.79,0,0,0-.83-.71A.77.77,0,0,0,34.92,28.57Z"/><path class="cls-6" d="M26.82,23.69a.92.92,0,1,0,1.84-.15.91.91,0,0,0-1-.84A.92.92,0,0,0,26.82,23.69Z"/><path class="cls-6" d="M26.51,23.72a1.23,1.23,0,1,1,1.33,1.13A1.23,1.23,0,0,1,26.51,23.72Zm.61,0a.62.62,0,0,0,1.24-.1.62.62,0,1,0-1.24.1Z"/><path class="cls-3" d="M59.29,17.77a1.08,1.08,0,1,0,1-1.17A1.08,1.08,0,0,0,59.29,17.77Z"/><path class="cls-3" d="M59,17.79a1.39,1.39,0,1,1,1.5,1.28A1.4,1.4,0,0,1,59,17.79Zm.62-.05a.77.77,0,0,0,.83.71.77.77,0,1,0-.13-1.54A.76.76,0,0,0,59.6,17.74Z"/><path class="cls-3" d="M56.19,28.24a1.08,1.08,0,1,0,1-1.16A1.08,1.08,0,0,0,56.19,28.24Z"/><path class="cls-3" d="M55.88,28.27a1.39,1.39,0,1,1,1.5,1.27A1.39,1.39,0,0,1,55.88,28.27Zm.62-.05a.76.76,0,0,0,.83.7.77.77,0,0,0,.71-.83.79.79,0,0,0-.84-.71A.77.77,0,0,0,56.5,28.22Z"/><path class="cls-6" d="M34.56,56.86a1.08,1.08,0,1,0,1-1.16A1.08,1.08,0,0,0,34.56,56.86Z"/><path class="cls-6" d="M34.25,56.89a1.39,1.39,0,1,1,1.5,1.27A1.39,1.39,0,0,1,34.25,56.89Zm.62,0a.77.77,0,1,0,1.53-.13.77.77,0,1,0-1.53.13Z"/><path class="cls-5" d="M41.89,57.51a1.09,1.09,0,0,0,1.17,1,1.08,1.08,0,1,0-1.17-1Z"/><path class="cls-5" d="M41.58,57.53A1.4,1.4,0,0,1,42.86,56a1.39,1.39,0,1,1-1.28,1.5Zm.62-.05a.77.77,0,0,0,.83.71.79.79,0,0,0,.71-.83.77.77,0,0,0-.84-.71A.76.76,0,0,0,42.2,57.48Z"/><path class="cls-5" d="M55.68,59.24a1.09,1.09,0,0,0,1.17,1,1.08,1.08,0,1,0-1.17-1Z"/><path class="cls-5" d="M55.37,59.26a1.4,1.4,0,0,1,1.28-1.5,1.39,1.39,0,1,1-1.28,1.5Zm.62,0a.77.77,0,0,0,.83.71.77.77,0,0,0-.12-1.54A.77.77,0,0,0,56,59.21Z"/><path class="cls-6" d="M24.58,55.8a1.08,1.08,0,1,0,1-1.17A1.08,1.08,0,0,0,24.58,55.8Z"/><path class="cls-6" d="M24.27,55.82a1.39,1.39,0,1,1,1.5,1.27A1.39,1.39,0,0,1,24.27,55.82Zm.61,0a.78.78,0,0,0,.84.71.77.77,0,0,0-.13-1.54A.78.78,0,0,0,24.88,55.77Z"/><path class="cls-7" d="M62.38,54.05a1.08,1.08,0,1,0,1-1.17A1.09,1.09,0,0,0,62.38,54.05Z"/><path class="cls-7" d="M62.08,54.07a1.39,1.39,0,1,1,1.49,1.27A1.38,1.38,0,0,1,62.08,54.07Zm.61,0a.79.79,0,0,0,.83.71.77.77,0,1,0-.83-.71Z"/><path class="cls-7" d="M58.37,50.11a1.08,1.08,0,1,0,1-1.16A1.08,1.08,0,0,0,58.37,50.11Z"/><path class="cls-7" d="M58.06,50.14a1.39,1.39,0,1,1,1.5,1.27A1.39,1.39,0,0,1,58.06,50.14Zm.62,0a.77.77,0,1,0,.7-.83A.76.76,0,0,0,58.68,50.09Z"/><path class="cls-7" d="M68.75,41.84a1.08,1.08,0,1,0,1-1.17A1.08,1.08,0,0,0,68.75,41.84Z"/><path class="cls-7" d="M68.44,41.86a1.39,1.39,0,1,1,1.49,1.27A1.4,1.4,0,0,1,68.44,41.86Zm.61,0a.79.79,0,0,0,.83.71A.77.77,0,0,0,69.76,41,.78.78,0,0,0,69.05,41.81Z"/><path class="cls-7" d="M82.34,42.69a1.08,1.08,0,1,0,1-1.16A1.08,1.08,0,0,0,82.34,42.69Z"/><path class="cls-7" d="M82,42.72a1.39,1.39,0,0,1,2.77-.23A1.38,1.38,0,0,1,83.53,44,1.4,1.4,0,0,1,82,42.72Zm.62,0a.77.77,0,1,0,1.54-.13.77.77,0,0,0-1.54.13Z"/><path class="cls-3" d="M70.17,21.27a1.08,1.08,0,1,0,1-1.16A1.08,1.08,0,0,0,70.17,21.27Z"/><path class="cls-3" d="M69.87,21.3a1.38,1.38,0,0,1,1.27-1.5,1.39,1.39,0,1,1,.22,2.77A1.39,1.39,0,0,1,69.87,21.3Zm.61-.05a.77.77,0,0,0,.83.7.77.77,0,1,0-.83-.7Z"/><path class="cls-7" d="M63,60.86a1.08,1.08,0,1,0,1-1.17A1.09,1.09,0,0,0,63,60.86Z"/><path class="cls-7" d="M62.66,60.88a1.39,1.39,0,0,1,2.77-.22,1.4,1.4,0,0,1-1.28,1.5A1.39,1.39,0,0,1,62.66,60.88Zm.61-.05a.78.78,0,0,0,.83.71A.77.77,0,1,0,64,60,.78.78,0,0,0,63.27,60.83Z"/></g></g></svg>