<svg xmlns="http://www.w3.org/2000/svg" viewBox="0 0 243.99 219.03"><defs><style>.cls-1{fill:#e7c2ca;stroke:#213385;stroke-miterlimit:10;stroke-width:3px;}.cls-2{fill:#343c8c;}.cls-3{fill:#edcebb;}.cls-4{fill:#e9e9f4;}.cls-5{fill:#e3e0ef;}.cls-6{fill:#5d60a1;}.cls-7{fill:#da9448;}.cls-8{fill:#c64e54;}.cls-9{fill:#fefefe;}.cls-10{fill:#8888ba;}.cls-11{fill:#7575af;}.cls-12{fill:#495097;}.cls-13{fill:#cecce4;}.cls-14{fill:#cc696e;}.cls-15{fill:#dea26e;}.cls-16{fill:#213385;}</style></defs><title>sinDatos_2</title><g id="Capa_2" data-name="Capa 2"><g id="Capa_1-2" data-name="Capa 1"><path class="cls-1" d="M76.27,26.3S-24.32,67.16,7.85,144.77s203.74,129.7,231.83-40.34S76.27,26.3,76.27,26.3Z"/><path class="cls-2" d="M166.39,74.86a48.38,48.38,0,0,1,2.39,15.93,45.38,45.38,0,0,1-3.37,16c-.56,1.37-.57,1.37,1,1.38,1,0,1.95,0,2.92,0a4,4,0,0,1,4.18,4.08c.05,8.19,0,16.39,0,24.59a4.62,4.62,0,0,1-1.26,3,5.51,5.51,0,0,1-3.57,1.07c-4.14,0-8.28,0-12.41,0-7.74,0-15.47,0-23.21,0a5.73,5.73,0,0,1-3.38-.91l-.5-.49a5.17,5.17,0,0,1-.88-3.66c.1-.92-.19-1.21-1.16-1.14a48.06,48.06,0,0,1-8.48-.1,53.54,53.54,0,0,1-11.83-2.83,47.07,47.07,0,0,1-15.35-10.3,2.05,2.05,0,0,0-1.71-.47c-7.5,0-15,0-22.5,0a5.84,5.84,0,0,1-3.64-1,5.46,5.46,0,0,1-1.32-3.9c0-7.66,0-15.32,0-23,0-3.3,1.49-4.8,4.76-4.82,1.94,0,3.88-.06,5.83-.1a38.27,38.27,0,0,0,6.77-.06l13.2,0c1.33,0,2.67,0,4,0,.77,0,1.11-.19,1.11-1a17.58,17.58,0,0,1,.27-2.9A25.6,25.6,0,0,1,111,65.79l1.91-1c1.24-.45,2.47-1,3.74-1.34a25.58,25.58,0,0,1,9.42-.82c.63,0,1.22.12,1.21-.88,0-4.56,0-9.13,0-13.69,0-.42,0-.87-.58-.85-2.38.07-4.78-.33-7.14.25A21.27,21.27,0,0,0,111,49.28c-.32-.41-.66-.05-1,0a38.05,38.05,0,0,0-9.18,4.35,34.82,34.82,0,0,0-6.91,5.47,35.4,35.4,0,0,0-6,7.22,41.56,41.56,0,0,0-6.09,15c-.18,1-.69,1.63-1.82,1.49-1.16-.35-1.08-1.22-.89-2.15a50.44,50.44,0,0,1,3-9.6c6.15-12.95,16.09-21.43,29.9-25.34a43.66,43.66,0,0,1,14.26-1.3c.67.06,1-.09.92-.83-.07-1,0-1.94-.06-2.91.8-2.81,1.94-3.69,4.84-3.71l1.06,0c6.66,0,13.32.06,20,0,1.07,0,1.79.27,2.09,1.34-.29,1.07-1,1.38-2.08,1.37-7,0-14,0-21,0-1.77,0-2.16.39-2.16,2.19,0,6.47.06,13,0,19.42,0,1.54.38,2.3,1.88,2.58a5.72,5.72,0,0,1,2.33.91c3.16,2.36,6.76,2.5,10.46,2.26.75,0,1.51,0,2.26,0h20.89c1.58,0,2.09-.38,2.09-1.73q0-12,0-23.94A1.51,1.51,0,0,0,168,39.7c-2,0-4.08,0-6.12,0a1.68,1.68,0,0,1-2-1.35A1.66,1.66,0,0,1,161.89,37c2,0,4,.13,6,0,3-.22,4.68,2.27,4.65,4.69-.08,8,0,16,0,24.07a5.67,5.67,0,0,1-1.37,3,6.12,6.12,0,0,1-3.46,1.12h-3.28a5.56,5.56,0,0,0,.81,1.85A16.21,16.21,0,0,0,166.39,74.86ZM100.82,99.71,99,95.63a2.72,2.72,0,0,0-.33-1.37c.13-.77-.29-1.46-.31-2.22s-.4-1-1.19-1q-15.24,0-30.49,0c-1.12,0-1.68.48-1.68,1.56q0,12,0,24.1a1.4,1.4,0,0,0,1.64,1.59c1.69,0,3.37,0,5.06,0h31c1.91,0,2.13-.23,2.12-2.17,0-1.51,0-3-.06-4.52,0-1.9,0-3.79.07-5.68a1.3,1.3,0,0,0-.35-1A29.4,29.4,0,0,1,100.82,99.71Zm50.35-29.89h-9.63a42.69,42.69,0,0,1,4,5,27.14,27.14,0,0,1,3.53,14.63c0,2.17-.9,4.22-.85,6.39-.55,0-.53.54-.67.88a25.07,25.07,0,0,1-7.43,10.61c-.2.16-.56.33-.37.77h11.68c3.06,0,6.12,0,9.18,0a1.66,1.66,0,0,0,1.8-1.18,44.09,44.09,0,0,0,3.67-17.49,37,37,0,0,0-.88-8.27,20.36,20.36,0,0,0-2-6.39c-.13-1.55-1-2.81-1.58-4.18a1.31,1.31,0,0,0-1.42-.87C157.18,69.83,154.18,69.81,151.17,69.82Zm-49,51.39H95.46a1.47,1.47,0,0,0,.73,1,42.74,42.74,0,0,0,7.34,5,28.71,28.71,0,0,0,7.72,3,25.29,25.29,0,0,0,8.25,1.6,25.46,25.46,0,0,0,7.89.06c.69-.08.88-.35.88-1,0-3.49,0-7,0-10.48,0-1.54.06-3.09,0-4.63,0-.82.37-1.82-.22-2.42s-1.33.11-2,.13a36,36,0,0,1-9.71-.83,31.67,31.67,0,0,1-8.08-4.19c-.71-.57-.7,0-.7.5q0,3.06,0,6.12c0,.57,0,1.15,0,1.72a4,4,0,0,1-3.47,4.31A14.15,14.15,0,0,1,102.2,121.21ZM143,111a42.53,42.53,0,0,0-4.37-.14,13.33,13.33,0,0,0-6.92,1.31c-.49.22-.77.43-.75,1,0,2.12,0,4.25,0,6.38L131,136c0,1.91.34,2.26,2.2,2.26h35.41c1.9,0,2.23-.33,2.24-2.25V113.22c0-2-.31-2.34-2.42-2.34h-24C143.94,110.89,143.46,111,143,111ZM100.82,88a22.76,22.76,0,1,0,23.36-22.72C111,64.89,100.57,75.75,100.82,88Z"/><path class="cls-3" d="M172.52,65.78c0-8-.08-16.05,0-24.07,0-2.42-1.63-4.91-4.65-4.69-2,.14-4,.06-6,0a1.66,1.66,0,0,0-1.95,1.35l-4.79,0c-.3-1.07-1-1.34-2.09-1.34-6.67,0-13.33,0-20,0,3.57-2.86,6.25-6.63,9.75-9.56,5.29-4.43,11.26-7.2,18.26-6.56,7.78.71,13.66,4.77,17.43,11.55,4.24,7.61,4,15.5.7,23.4A30.39,30.39,0,0,1,172.52,65.78Z"/><path class="cls-4" d="M63.61,120.06a5.84,5.84,0,0,0,3.64,1c7.5,0,15,0,22.5,0a2.05,2.05,0,0,1,1.71.47,47.07,47.07,0,0,0,15.35,10.3c-.68.57,0,.93.25,1.3a27.74,27.74,0,0,0,3.49,3.78c.37.38.78.73.7,1.34a43.29,43.29,0,0,1-16-8.6c-.37-.32-.87-.53-1.13-.91-1.55-2.32-3.78-2.56-6.35-2.51-6.78.14-13.56.07-20.34,0-2.65,0-4.06-1-3.9-3.92C63.62,121.57,63.6,120.81,63.61,120.06Z"/><path class="cls-5" d="M153.32,146H132.9c-2.33,0-3.28-1-3.28-3.29,0-.88,0-1.77,0-2.65a5.73,5.73,0,0,0,3.38.91c7.74,0,15.47,0,23.21,0-.51,1.8-1.84,3.21-2.41,5Z"/><path class="cls-5" d="M129.16,139.53a20.41,20.41,0,0,1-4.87.32h-2.93a40.65,40.65,0,0,1-10.11-1.62c.08-.62-.33-1-.7-1.35a27.74,27.74,0,0,1-3.49-3.78c-.25-.37-.93-.73-.25-1.3a53.54,53.54,0,0,0,11.83,2.83,48.06,48.06,0,0,0,8.48.1c1-.07,1.26.22,1.16,1.14A5.17,5.17,0,0,0,129.16,139.53Z"/><path class="cls-4" d="M153.84,146c.57-1.78,1.9-3.19,2.41-5,4.13,0,8.27-.06,12.41,0a5.51,5.51,0,0,0,3.57-1.07c0,1,0,2,0,3.06a2.85,2.85,0,0,1-3.08,3Z"/><path class="cls-6" d="M117.93,29.89a1.32,1.32,0,0,1,1.27,1.18,1.64,1.64,0,0,0,1.57,1.65,1.32,1.32,0,0,1,0,2.64,1.56,1.56,0,0,0-1.53,1.52,1.32,1.32,0,0,1-2.64,0,1.55,1.55,0,0,0-1.5-1.55,1.3,1.3,0,0,1-1.28-1.29c0-.84.5-1.27,1.31-1.38a1.58,1.58,0,0,0,1.48-1.59A1.33,1.33,0,0,1,117.93,29.89Z"/><path class="cls-7" d="M174.7,80.6a1.33,1.33,0,0,1-1.33-1.18,1.66,1.66,0,0,0-1.58-1.64,1.21,1.21,0,0,1-1.19-1.33,1.24,1.24,0,0,1,1.23-1.31,1.55,1.55,0,0,0,1.52-1.53,1.32,1.32,0,0,1,2.64,0,1.66,1.66,0,0,0,1.66,1.57,1.23,1.23,0,0,1,1.15,1.26,1.26,1.26,0,0,1-1.2,1.35A1.66,1.66,0,0,0,176,79.4,1.29,1.29,0,0,1,174.7,80.6Z"/><path class="cls-4" d="M167.69,69.85a6.12,6.12,0,0,0,3.46-1.12c0,.88,0,1.76,0,2.65,0,2.41-1.05,3.47-3.44,3.48h-1.32a16.21,16.21,0,0,1-1.17-3.16A8.6,8.6,0,0,0,167.69,69.85Z"/><path class="cls-3" d="M112.05,45.79l.28-.47a55.86,55.86,0,0,0,13.72-4.2,8.64,8.64,0,0,1,1.12-.37c0,1,0,1.94.06,2.91.06.74-.25.89-.92.83A43.66,43.66,0,0,0,112.05,45.79Z"/><path class="cls-7" d="M125.3,143.47l.42.42c.06.33.13.67.2,1a16.69,16.69,0,0,1-3.23,3.43,1.18,1.18,0,0,1-1.77-.15,1.15,1.15,0,0,1-.07-1.67,18.22,18.22,0,0,1,3.44-3.24Z"/><path class="cls-8" d="M100.82,88c-.25-12.22,10.2-23.08,23.36-22.72A22.79,22.79,0,1,1,100.82,88Zm22.59,16.2a16.56,16.56,0,0,0,12.64-6c3.73-4.39,4.69-11.91,2.07-16.93-.64-1.23-1.56-1.43-2.52-.47q-9.66,9.63-19.3,19.3c-1,1-.79,2,.5,2.58A16.75,16.75,0,0,0,123.41,104.17Zm-15.9-16.08a13.74,13.74,0,0,0,1.3,6.33c.83,1.85,1.56,2,3,.57q9.41-9.39,18.8-18.81c1.28-1.29,1.13-2.18-.55-2.87a17.07,17.07,0,0,0-8.9-1.17A16.08,16.08,0,0,0,107.51,88.09Z"/><path class="cls-9" d="M155.15,38.36l4.79,0a1.68,1.68,0,0,0,2,1.35c2-.06,4.08,0,6.12,0a1.51,1.51,0,0,1,1.74,1.69q0,12,0,23.94c0,1.35-.51,1.73-2.09,1.73H146.78c-.75,0-1.51,0-2.26,0-3.7.24-7.3.1-10.46-2.26a5.72,5.72,0,0,0-2.33-.91c-1.5-.28-1.91-1-1.88-2.58.1-6.47,0-13,0-19.42,0-1.8.39-2.19,2.16-2.19,7,0,14,0,21,0C154.17,39.74,154.86,39.43,155.15,38.36ZM144,53.34l19.68,0c1.51,0,1.9-.39,1.91-1.87q0-3.33,0-6.65c0-1.5-.39-1.88-1.9-1.89H136.15c-1.46,0-1.92.44-1.94,1.89,0,1.72,0,3.45,0,5.18-.06,3.6.35,3.34,3.16,3.38a5.17,5.17,0,0,0-1.11,3.19c0,1.07.83,1.9,1,2.82s-1,1.77-1,2.91v.13a1.29,1.29,0,0,0,1.2,1.48,1.22,1.22,0,0,0,1.41-1.12c.13-1.13.64-1.92,1.79-1.92s1.66.78,1.79,1.91a1.22,1.22,0,0,0,1.4,1.13,1.3,1.3,0,0,0,1.22-1.47,4.11,4.11,0,0,0-.78-2.35c-.25-.35-.39-.63-.09-1.06C145.56,57.07,145.28,55.18,144,53.34Zm12.77,7.91c-2.3,0-4.6,0-6.9,0-.89,0-1.52.35-1.55,1.25s.62,1.42,1.55,1.42q6.77,0,13.54,0c.91,0,1.6-.37,1.62-1.36s-.7-1.31-1.62-1.31C161.18,61.26,159,61.25,156.75,61.25Zm-.1-2.09c2.17,0,4.34,0,6.51,0,1,0,1.86-.2,1.84-1.38s-.84-1.3-1.78-1.3H150.08c-1,0-1.76.25-1.78,1.31s.87,1.38,1.85,1.37C152.32,59.15,154.49,59.16,156.65,59.16Z"/><path class="cls-9" d="M143,111c.49,0,1-.12,1.45-.12h24c2.11,0,2.42.29,2.42,2.34V136c0,1.92-.34,2.25-2.24,2.25H133.15c-1.86,0-2.21-.35-2.2-2.26l0-16.37,4.25-1.63c0,1.06,0,2.13,0,3.19,0,3.2,0,3.2,3.16,3.31-.73,1-1.49,2.22-1,3.43a6.08,6.08,0,0,1-.05,5.33.74.74,0,0,0,0,.26c0,.82.27,1.41,1.12,1.53a1.25,1.25,0,0,0,1.5-1.17c.15-1.14.65-1.85,1.84-1.82s1.57.78,1.72,1.83A1.22,1.22,0,0,0,145,135a1.3,1.3,0,0,0,1.14-1.52,4.21,4.21,0,0,0-.76-2.24c-.22-.32-.48-.58-.15-1,1.41-2,1.13-3.89-.24-5.75l19.69,0c1.63,0,2-.33,2-1.94,0-2,0-4,0-6,0-2.23-.27-2.48-2.54-2.49l-23.54,0C141.21,112.87,142.57,112.33,143,111Zm14.75,19.29c2.16,0,4.33,0,6.5,0,.92,0,1.8-.11,1.83-1.23s-.79-1.45-1.8-1.45q-6.57,0-13.15,0c-.94,0-1.73.28-1.76,1.36s.79,1.33,1.73,1.32C153.29,130.29,155.5,130.3,157.72,130.3Zm-.08,4.75c2.17,0,4.34,0,6.5,0,1,0,1.9-.13,1.91-1.31s-.87-1.37-1.86-1.37c-4.34,0-8.67,0-13,0-1,0-1.85.21-1.83,1.39s.86,1.3,1.79,1.29C153.31,135,155.47,135.05,157.64,135.05Z"/><path class="cls-9" d="M104.79,111.63c0,1.5,0,3,.06,4.52,0,1.94-.21,2.16-2.12,2.17h-31c-1.69,0-3.37,0-5.06,0A1.4,1.4,0,0,1,65,116.73q0-12,0-24.1c0-1.08.56-1.56,1.68-1.56q15.25,0,30.49,0c.79,0,1.16.22,1.19,1s.44,1.45.31,2.22H71.19c-1.5,0-1.79.29-1.8,1.79,0,1.86,0,3.71,0,5.57,0,3,0,3,3,3.07a5.79,5.79,0,0,0-1.08,3.08c0,1.11.89,2,1,2.93s-1,1.8-1,2.91a2,2,0,0,0,.08.65,1.23,1.23,0,0,0,1.18.91,1.26,1.26,0,0,0,1.34-.88c.08-.24,0-.53.13-.78a1.69,1.69,0,0,1,1.74-1.35,1.62,1.62,0,0,1,1.66,1.42c0,.13,0,.26.06.39.18.79.63,1.29,1.49,1.18s1.18-.77,1.14-1.63a3.91,3.91,0,0,0-.79-2.21.74.74,0,0,1,0-1,4.45,4.45,0,0,0-.24-5.54c.53,0,1.06-.07,1.59-.07H98.37a3.35,3.35,0,0,0,1.69-.23c1,1.18,1.31,2.73,2.14,4S103.45,111,104.79,111.63Zm-13.08,3.62c2.21,0,4.43,0,6.64,0,.91,0,1.75-.27,1.73-1.38s-.81-1.38-1.74-1.38H85.19c-.94,0-1.77.29-1.81,1.33s.82,1.44,1.82,1.44C87.37,115.24,89.54,115.25,91.71,115.25Zm0-7.41c-2.21,0-4.42,0-6.63,0-1,0-1.76.26-1.74,1.35s.75,1.33,1.66,1.33h13.4c.89,0,1.62-.26,1.64-1.31s-.74-1.36-1.69-1.36C96.17,107.85,94,107.84,91.75,107.84Z"/><path class="cls-6" d="M79.66,88.2c.13-1.77.25-3.55.37-5.32,1.13.14,1.64-.51,1.82-1.49a41.56,41.56,0,0,1,6.09-15,35.4,35.4,0,0,1,6-7.22c1.66.53,3,1.63,4.6,2.34.79.35,1.21.36,1.7-.48a37.69,37.69,0,0,1,5.37-7c1.65-1.73,3.62-3.07,5.37-4.68a21.27,21.27,0,0,1,8.53-1.84c-.06.8-.78,1.15-1.17,1.72-2.94,4.3-4.27,9.2-5.46,14.15-.11.44-.62,1,0,1.46l-1.9,1a2.36,2.36,0,0,0-.57-.29,50.28,50.28,0,0,1-10-3.27c-.58-.27-.8.07-1,.45A21.84,21.84,0,0,0,97.68,66a58.14,58.14,0,0,0-4.82,22.17Z"/><path class="cls-10" d="M72.39,104.68c-3-.08-3-.08-3-3.07,0-1.86,0-3.71,0-5.57,0-1.5.3-1.79,1.8-1.79H98.68A2.72,2.72,0,0,1,99,95.63c-.47.5-.17,1.06-.16,1.61a44.25,44.25,0,0,0,1.21,7,.59.59,0,0,1,0,.23,3.35,3.35,0,0,1-1.69.23H80.68c-.53,0-1.06,0-1.59.07C76.91,102.67,74.93,102.65,72.39,104.68ZM92,96.46c-.79.16-1.34.52-1.29,1.4a1.31,1.31,0,0,0,2.61,0C93.35,97,92.79,96.59,92,96.46ZM86,97.84c.17.8.56,1.32,1.43,1.26a1.17,1.17,0,0,0,1.21-1.27,1.22,1.22,0,0,0-1.32-1.33A1.32,1.32,0,0,0,86,97.84Zm10.8,1.28A1.26,1.26,0,0,0,98,97.72a1.31,1.31,0,0,0-2.61,0A1.26,1.26,0,0,0,96.76,99.12Z"/><path class="cls-11" d="M116.3,112.66a36,36,0,0,0,9.71.83c.7,0,1.55-.62,2-.13s.2,1.6.22,2.42c0,1.54,0,3.09,0,4.63a1.22,1.22,0,0,0-.27,0A25.28,25.28,0,0,1,114.38,119c-.2-.08-.42-.26-.6-.05s-.11.58,0,.88a67.25,67.25,0,0,0,2.46,6.56,53.44,53.44,0,0,0,3.27,5.4,25.29,25.29,0,0,1-8.25-1.6c0-.44-.38-.57-.66-.76a33.6,33.6,0,0,1-8.39-8.26,14.15,14.15,0,0,0,1.85-.09,4,4,0,0,0,3.47-4.31c0-.57,0-1.15,0-1.72.41,0,.62.28.9.49a18.39,18.39,0,0,0,5.07,2.88c-.47-1.56-.74-2.89-1-4.22-.18-.8,0-.95.74-1.07A9.69,9.69,0,0,0,116.3,112.66Z"/><path class="cls-12" d="M166.09,89.5A44.09,44.09,0,0,1,162.42,107a1.66,1.66,0,0,1-1.8,1.18c-3.06-.07-6.12,0-9.18,0a3.07,3.07,0,0,1,.06-.53,56.57,56.57,0,0,0,2.63-18.08Z"/><path class="cls-11" d="M92.86,88.18A58.14,58.14,0,0,1,97.68,66a21.84,21.84,0,0,1,1.63-3.33c.25-.38.47-.72,1-.45a50.28,50.28,0,0,0,10,3.27,2.36,2.36,0,0,1,.57.29A25.59,25.59,0,0,0,98.24,84.28a17.58,17.58,0,0,0-.27,2.9c0,.84-.34,1.06-1.11,1C95.53,88.16,94.19,88.19,92.86,88.18Z"/><path class="cls-11" d="M112.86,64.77c-.61-.48-.1-1,0-1.46,1.19-5,2.52-9.85,5.46-14.15.39-.57,1.11-.92,1.17-1.72,2.36-.58,4.76-.18,7.14-.25.57,0,.58.43.58.85,0,4.56,0,9.13,0,13.69,0,1-.58.93-1.21.88a25.58,25.58,0,0,0-9.42.82C115.33,63.8,114.1,64.32,112.86,64.77Z"/><path class="cls-6" d="M166.09,89.5l-12,0,0,0c0-1.77.09-3.55-.07-5.31a76,76,0,0,0-1.52-9.34l10.67,0a20.36,20.36,0,0,1,2,6.39A37,37,0,0,1,166.09,89.5Z"/><path class="cls-10" d="M119.5,131.83a53.44,53.44,0,0,1-3.27-5.4,67.25,67.25,0,0,1-2.46-6.56c-.1-.3-.23-.61,0-.88s.4,0,.6.05A25.28,25.28,0,0,0,128,120.41a1.22,1.22,0,0,1,.27,0c0,3.5,0,7,0,10.48,0,.65-.19.92-.88,1A25.46,25.46,0,0,1,119.5,131.83Z"/><path class="cls-6" d="M154.13,89.53a56.57,56.57,0,0,1-2.63,18.08,3.07,3.07,0,0,0-.06.53h-6.11c.14-.36.26-.74.42-1.1a24.07,24.07,0,0,0,2.48-11.16c0-2.17.85-4.22.84-6.39l5,0Z"/><path class="cls-11" d="M154.11,89.51l-5,0a27,27,0,0,0-3.52-14.63h7A76,76,0,0,1,154,84.2C154.2,86,154.1,87.74,154.11,89.51Z"/><path class="cls-12" d="M111,49.28c-1.75,1.61-3.72,2.95-5.37,4.68a37.69,37.69,0,0,0-5.37,7c-.49.84-.91.83-1.7.48-1.57-.71-2.94-1.81-4.6-2.34a34.82,34.82,0,0,1,6.91-5.47A38.05,38.05,0,0,1,110,49.32C110.31,49.23,110.65,48.87,111,49.28Z"/><path class="cls-12" d="M163.19,74.84l-10.67,0h0c-.27-1.73-1.21-3.28-1.35-5,3,0,6,0,9,0a1.31,1.31,0,0,1,1.42.87C162.21,72,163.06,73.29,163.19,74.84Z"/><path class="cls-13" d="M143,111c-.4,1.32-1.76,1.86-2.42,3l-.56.07c-.49,0-1,0-1.46,0-3.34,0-3.4.06-3.27,3.43l0,.53L131,119.61c0-2.13,0-4.26,0-6.38,0-.62.26-.83.75-1a13.33,13.33,0,0,1,6.92-1.31A42.53,42.53,0,0,1,143,111Z"/><path class="cls-6" d="M102.2,121.21a33.6,33.6,0,0,0,8.39,8.26c.28.19.66.32.66.76a28.71,28.71,0,0,1-7.72-3,42.74,42.74,0,0,1-7.34-5,1.47,1.47,0,0,1-.73-1Z"/><path class="cls-6" d="M151.17,69.82c.14,1.76,1.08,3.31,1.35,5h-7a42.69,42.69,0,0,0-4-5Z"/><path class="cls-6" d="M116.3,112.66a9.69,9.69,0,0,1-3.07.51c-.78.12-.92.27-.74,1.07.28,1.33.55,2.66,1,4.22a18.39,18.39,0,0,1-5.07-2.88c-.28-.21-.49-.52-.9-.49q0-3.06,0-6.12c0-.46,0-1.07.7-.5A31.67,31.67,0,0,0,116.3,112.66Z"/><path class="cls-12" d="M148.23,95.88A24.07,24.07,0,0,1,145.75,107c-.16.36-.28.74-.42,1.1h-5.57c-.19-.44.17-.61.37-.77a25.07,25.07,0,0,0,7.43-10.61C147.7,96.42,147.68,95.92,148.23,95.88Z"/><path class="cls-13" d="M100.06,104.43a.59.59,0,0,0,0-.23c.71-.19.54-.79.59-1.28.11-1.07-.21-2.16.17-3.21a29.4,29.4,0,0,0,3.69,5.28,1.3,1.3,0,0,1,.35,1c0,1.89,0,3.78-.07,5.68-1.34-.68-1.83-2-2.59-3.19S101.07,105.61,100.06,104.43Z"/><path class="cls-6" d="M100.82,99.71c-.38,1.05-.06,2.14-.17,3.21-.05.49.12,1.09-.59,1.28a44.25,44.25,0,0,1-1.21-7c0-.55-.31-1.11.16-1.61Z"/><path class="cls-3" d="M167.69,69.85a8.6,8.6,0,0,1-2.47,1.85,5.56,5.56,0,0,1-.81-1.85Z"/><path class="cls-14" d="M67.58,79.34a1.41,1.41,0,0,1-1.32-1.29,1.58,1.58,0,0,0-1.52-1.55,1.33,1.33,0,0,1,0-2.65,1.57,1.57,0,0,0,1.54-1.52,1.25,1.25,0,0,1,1.31-1.23,1.23,1.23,0,0,1,1.34,1.19,1.64,1.64,0,0,0,1.64,1.58,1.27,1.27,0,0,1,1.17,1.39,1.25,1.25,0,0,1-1.19,1.22,1.67,1.67,0,0,0-1.63,1.61A1.36,1.36,0,0,1,67.58,79.34Z"/><path class="cls-7" d="M71.64,60.77l2.56-2.46a1.33,1.33,0,0,1,2.08-.11c.64.66.42,1.37-.16,2-.81.86-1.64,1.7-2.47,2.55a1.39,1.39,0,0,1-1.91,0C71.12,62.08,71.3,61.43,71.64,60.77Z"/><path class="cls-2" d="M123.41,104.17a16.75,16.75,0,0,1-6.61-1.55c-1.29-.62-1.49-1.58-.5-2.58q9.63-9.66,19.3-19.3c1-1,1.88-.76,2.52.47,2.62,5,1.66,12.54-2.07,16.93A16.56,16.56,0,0,1,123.41,104.17Zm13.25-14.12a14.43,14.43,0,0,0-.07-4.86c-.22-1.11-.57-1.16-1.32-.4-1.86,1.89-3.75,3.76-5.62,5.64q-4.56,4.54-9.11,9.11c-.3.3-.82.56-.71,1s.82.48,1.23.55a12,12,0,0,0,4.31.08A13,13,0,0,0,136.66,90.05Z"/><path class="cls-2" d="M107.51,88.09a16.08,16.08,0,0,1,13.65-16,17.07,17.07,0,0,1,8.9,1.17c1.68.69,1.83,1.58.55,2.87Q121.22,85.6,111.81,95c-1.44,1.43-2.17,1.28-3-.57A13.74,13.74,0,0,1,107.51,88.09Zm2.91,1.43c0,.22,0,.43,0,.65,0,.58,0,1.36.44,1.55.57.28.87-.53,1.27-.88s.82-.89,1.23-1.33c2.92-2.75,5.78-5.55,8.48-8.52,1.9-1.53,3.47-3.4,5.23-5.08.49-.46.36-.64-.29-.82a13,13,0,0,0-8.28.58c-5,1.85-8.79,7.73-8.24,12.83C110.21,88.86,110.07,89.23,110.42,89.52Z"/><path class="cls-10" d="M137.35,53.34c-2.81,0-3.22.22-3.16-3.38,0-1.73,0-3.46,0-5.18,0-1.45.48-1.88,1.94-1.89h27.52c1.51,0,1.89.39,1.9,1.89q0,3.31,0,6.65c0,1.48-.4,1.86-1.91,1.87l-19.68,0C141.5,51.43,139.82,51.43,137.35,53.34Zm24.28-8.18a1.29,1.29,0,0,0-1.3,1.27,1.3,1.3,0,1,0,2.59.14C163,45.68,162.4,45.31,161.63,45.16Zm-9.48,2.6a1.29,1.29,0,1,0,0-2.57,1.22,1.22,0,0,0-1.27,1.39A1.16,1.16,0,0,0,152.15,47.76Zm4.6,0c1.08,0,1.49-.53,1.48-1.32a1.14,1.14,0,0,0-1.29-1.19c-.78,0-1.25.35-1.27,1.17A1.15,1.15,0,0,0,156.75,47.75Z"/><path class="cls-14" d="M137.35,53.34c2.47-1.91,4.15-1.91,6.63,0,1.3,1.84,1.58,3.73.22,5.65-.3.43-.16.71.09,1.06a4.11,4.11,0,0,1,.78,2.35,1.3,1.3,0,0,1-1.22,1.47,1.22,1.22,0,0,1-1.4-1.13c-.13-1.13-.65-1.91-1.79-1.91s-1.66.79-1.79,1.92a1.22,1.22,0,0,1-1.41,1.12,1.29,1.29,0,0,1-1.2-1.48v-.13c-.08-1.14,1.12-2,1-2.91s-.94-1.75-1-2.82A5.17,5.17,0,0,1,137.35,53.34Zm3.37,4.76a1.71,1.71,0,0,0,1.67-1.82,1.65,1.65,0,0,0-1.72-1.64,1.73,1.73,0,1,0,.05,3.46Z"/><path class="cls-15" d="M156.75,61.25c2.22,0,4.43,0,6.64,0,.92,0,1.63.29,1.62,1.31s-.71,1.36-1.62,1.36q-6.76,0-13.54,0c-.93,0-1.59-.44-1.55-1.42s.66-1.25,1.55-1.25C152.15,61.26,154.45,61.25,156.75,61.25Z"/><path class="cls-15" d="M156.65,59.16c-2.16,0-4.33,0-6.5,0-1,0-1.87-.2-1.85-1.37s.83-1.31,1.78-1.31h13.14c.94,0,1.76.22,1.78,1.3s-.86,1.38-1.84,1.38C161,59.15,158.82,59.16,156.65,59.16Z"/><path class="cls-10" d="M140,114.05l.56-.07,23.54,0c2.27,0,2.54.26,2.54,2.49,0,2,0,4,0,6,0,1.61-.33,1.93-2,1.94l-19.69,0c-2.61-1.85-4-1.84-6.56,0-3.16-.11-3.16-.11-3.16-3.31,0-1.06,0-2.13,0-3.19l0-.53A8.44,8.44,0,0,0,140,114.05Zm14.62,3.66c-.14-.78-.48-1.35-1.36-1.32a1.31,1.31,0,0,0,0,2.61C154,119,154.45,118.47,154.61,117.71Zm8.06,1.34c.73-.16,1.29-.51,1.3-1.37a1.18,1.18,0,0,0-1.19-1.29,1.21,1.21,0,0,0-1.42,1.22C161.3,118.43,161.87,118.85,162.67,119.05Zm-3.37-1.37c-.15-.79-.53-1.33-1.41-1.29A1.3,1.3,0,1,0,158,119,1.3,1.3,0,0,0,159.3,117.68Z"/><path class="cls-7" d="M138.41,124.48c2.56-1.85,4-1.86,6.56,0,1.37,1.86,1.65,3.79.24,5.75-.33.46-.07.72.15,1a4.21,4.21,0,0,1,.76,2.24A1.3,1.3,0,0,1,145,135a1.22,1.22,0,0,1-1.49-1.15c-.15-1.05-.59-1.8-1.72-1.83s-1.69.68-1.84,1.82a1.25,1.25,0,0,1-1.5,1.17c-.85-.12-1.16-.71-1.12-1.53a.74.74,0,0,1,0-.26,6.08,6.08,0,0,0,.05-5.33C136.92,126.7,137.68,125.51,138.41,124.48Zm5,3.13a1.77,1.77,0,0,0-1.75-1.81,1.65,1.65,0,0,0-1.71,1.68,1.58,1.58,0,0,0,1.58,1.76A1.69,1.69,0,0,0,143.45,127.61Z"/><path class="cls-15" d="M157.72,130.3c-2.22,0-4.43,0-6.65,0-.94,0-1.75-.19-1.73-1.32s.82-1.36,1.76-1.36q6.59,0,13.15,0c1,0,1.84.31,1.8,1.45s-.91,1.24-1.83,1.23C162.05,130.29,159.88,130.3,157.72,130.3Z"/><path class="cls-15" d="M157.64,135.05c-2.17,0-4.33,0-6.5,0-.93,0-1.77-.19-1.79-1.29s.84-1.39,1.83-1.39c4.34,0,8.67,0,13,0,1,0,1.87.22,1.86,1.37s-.94,1.32-1.91,1.31C162,135,159.81,135.05,157.64,135.05Z"/><path class="cls-12" d="M72.39,104.68c2.54-2,4.52-2,6.7,0a4.45,4.45,0,0,1,.24,5.54.74.74,0,0,0,0,1,3.91,3.91,0,0,1,.79,2.21c0,.86-.19,1.52-1.14,1.63s-1.31-.39-1.49-1.18c0-.13,0-.26-.06-.39a1.62,1.62,0,0,0-1.66-1.42,1.69,1.69,0,0,0-1.74,1.35c-.08.25,0,.54-.13.78a1.26,1.26,0,0,1-1.34.88,1.23,1.23,0,0,1-1.18-.91,2,2,0,0,1-.08-.65c0-1.11,1.14-2,1-2.91s-1-1.82-1-2.93A5.79,5.79,0,0,1,72.39,104.68ZM75.71,106a1.7,1.7,0,0,0-1.7,1.79,1.75,1.75,0,0,0,1.72,1.68,1.71,1.71,0,0,0,1.74-1.76A1.67,1.67,0,0,0,75.71,106Z"/><path class="cls-15" d="M91.71,115.25c-2.17,0-4.34,0-6.51,0-1,0-1.85-.31-1.82-1.44s.87-1.33,1.81-1.33H98.34c.93,0,1.72.29,1.74,1.38s-.82,1.37-1.73,1.38C96.14,115.26,93.92,115.25,91.71,115.25Z"/><path class="cls-15" d="M91.75,107.84c2.21,0,4.42,0,6.64,0,1,0,1.71.23,1.69,1.36s-.75,1.31-1.64,1.31H85c-.91,0-1.64-.37-1.66-1.33s.78-1.35,1.74-1.35C87.33,107.85,89.54,107.84,91.75,107.84Z"/><path class="cls-9" d="M92,96.46c.77.13,1.33.54,1.32,1.36a1.31,1.31,0,0,1-2.61,0C90.68,97,91.23,96.62,92,96.46Z"/><path class="cls-9" d="M86,97.84a1.32,1.32,0,0,1,1.32-1.34,1.22,1.22,0,0,1,1.32,1.33,1.17,1.17,0,0,1-1.21,1.27C86.52,99.16,86.13,98.64,86,97.84Z"/><path class="cls-9" d="M96.76,99.12a1.26,1.26,0,0,1-1.33-1.37,1.31,1.31,0,0,1,2.61,0A1.26,1.26,0,0,1,96.76,99.12Z"/><path class="cls-11" d="M140,114.05a8.44,8.44,0,0,1-4.73,3.4c-.13-3.37-.07-3.43,3.27-3.43C139,114,139.5,114,140,114.05Z"/><path class="cls-6" d="M125.37,101.21a12,12,0,0,1-4.31-.08c-.41-.07-1.1.06-1.23-.55s.41-.74.71-1q4.54-4.56,9.11-9.11c1.87-1.88,3.76-3.75,5.62-5.64.75-.76,1.1-.71,1.32.4a14.43,14.43,0,0,1,.07,4.86,1,1,0,0,0-.37.14C132.64,93.85,128.88,97.41,125.37,101.21Z"/><path class="cls-11" d="M125.37,101.21c3.51-3.8,7.27-7.36,10.92-11a1,1,0,0,1,.37-.14A13,13,0,0,1,125.37,101.21Z"/><path class="cls-6" d="M110.27,88.5c-.55-5.1,3.23-11,8.24-12.83a13,13,0,0,1,8.28-.58c.65.18.78.36.29.82-1.76,1.68-3.33,3.55-5.23,5.08a15.57,15.57,0,0,0-10.55,6.18C111,87.62,110.88,88.27,110.27,88.5Z"/><path class="cls-10" d="M110.27,88.5c.61-.23.7-.88,1-1.33A15.57,15.57,0,0,1,121.85,81c-2.7,3-5.56,5.77-8.48,8.52h-3C110.07,89.23,110.21,88.86,110.27,88.5Z"/><path class="cls-11" d="M110.42,89.52h3c-.41.44-.78.93-1.23,1.33s-.7,1.16-1.27.88c-.4-.19-.46-1-.44-1.55C110.44,90,110.43,89.74,110.42,89.52Z"/><path class="cls-9" d="M161.63,45.16c.77.15,1.33.52,1.29,1.41a1.3,1.3,0,1,1-2.59-.14A1.29,1.29,0,0,1,161.63,45.16Z"/><path class="cls-9" d="M152.15,47.76a1.16,1.16,0,0,1-1.23-1.18,1.3,1.3,0,1,1,2.6,0A1.21,1.21,0,0,1,152.15,47.76Z"/><path class="cls-9" d="M156.75,47.75a1.15,1.15,0,0,1-1.08-1.34c0-.82.49-1.17,1.27-1.17a1.14,1.14,0,0,1,1.29,1.19C158.24,47.22,157.83,47.77,156.75,47.75Z"/><path class="cls-9" d="M140.72,58.1a1.73,1.73,0,1,1-.05-3.46,1.65,1.65,0,0,1,1.72,1.64A1.71,1.71,0,0,1,140.72,58.1Z"/><path class="cls-9" d="M154.61,117.71c-.16.76-.58,1.32-1.4,1.29a1.31,1.31,0,0,1,0-2.61C154.13,116.36,154.47,116.93,154.61,117.71Z"/><path class="cls-9" d="M162.67,119.05c-.8-.2-1.37-.62-1.31-1.44a1.21,1.21,0,0,1,1.42-1.22,1.18,1.18,0,0,1,1.19,1.29C164,118.54,163.4,118.89,162.67,119.05Z"/><path class="cls-9" d="M159.3,117.68A1.3,1.3,0,0,1,158,119a1.3,1.3,0,1,1-.15-2.6C158.77,116.35,159.15,116.89,159.3,117.68Z"/><path class="cls-9" d="M143.45,127.61a1.69,1.69,0,0,1-1.88,1.63,1.58,1.58,0,0,1-1.58-1.76,1.65,1.65,0,0,1,1.71-1.68A1.77,1.77,0,0,1,143.45,127.61Z"/><path class="cls-9" d="M75.71,106a1.67,1.67,0,0,1,1.76,1.71,1.71,1.71,0,0,1-1.74,1.76A1.75,1.75,0,0,1,74,107.76,1.7,1.7,0,0,1,75.71,106Z"/><path class="cls-16" d="M71.43,181.05a10,10,0,0,1-4.49-.91l.64-2.58a10.4,10.4,0,0,0,4,.88,4.65,4.65,0,0,0,2.18-.4,1.3,1.3,0,0,0,.74-1.19,1,1,0,0,0-.21-.66,2.27,2.27,0,0,0-.68-.56l-3-1.81a3.26,3.26,0,0,1-1.34-1.48,4.24,4.24,0,0,1-.39-1.72,4.32,4.32,0,0,1,1.3-3.39A5.53,5.53,0,0,1,74,166.08a6.34,6.34,0,0,1,4.6,1.63L77.14,170a6.35,6.35,0,0,0-1.59-1,4.41,4.41,0,0,0-1.65-.33,2.74,2.74,0,0,0-1.57.37,1.24,1.24,0,0,0-.54,1.09,1.53,1.53,0,0,0,.27.86,2.69,2.69,0,0,0,.77.72l2.75,1.68A3.49,3.49,0,0,1,77,174.81a3.76,3.76,0,0,1,.39,1.7,4,4,0,0,1-1.51,3.39A7.32,7.32,0,0,1,71.43,181.05Z"/><path class="cls-16" d="M88.83,177.85l.71,2.34a9.91,9.91,0,0,1-1.32.61,4.93,4.93,0,0,1-1.6.25,4.16,4.16,0,0,1-2.92-.88,3,3,0,0,1-.84-2.55,6.8,6.8,0,0,1,.24-1.42c.12-.47.26-.92.42-1.36a11.56,11.56,0,0,0,.37-1.25.94.94,0,0,0-.12-.89,1.29,1.29,0,0,0-1-.3,7.21,7.21,0,0,0-1.87.24l-.22-2.59a7.57,7.57,0,0,1,1.21-.23c.41,0,.81,0,1.21,0a4.22,4.22,0,0,1,3.16,1,3,3,0,0,1,.43,2.86,10.23,10.23,0,0,1-.37,1.25c-.15.38-.28.77-.4,1.15a5.26,5.26,0,0,0-.23,1.23c-.06.79.38,1.19,1.3,1.19a2.75,2.75,0,0,0,.9-.13A5.09,5.09,0,0,0,88.83,177.85Zm-2.33-9.34a1.7,1.7,0,0,1-1.78-1.78,1.77,1.77,0,0,1,.49-1.28,1.78,1.78,0,0,1,3.06,1.28,1.7,1.7,0,0,1-.49,1.28A1.74,1.74,0,0,1,86.5,168.51Z"/><path class="cls-16" d="M91.83,180.84,93.74,170h2.44l-.08,2.6-1.45,8.27Zm6.38,0,1.15-6.56a1.92,1.92,0,0,0-.15-1.4,1.15,1.15,0,0,0-1-.48,2.17,2.17,0,0,0-1.1.3,2.5,2.5,0,0,0-.92,1,5.94,5.94,0,0,0-.58,1.9l.49-3.66h.36a3.18,3.18,0,0,1,1.11-1.6,3.07,3.07,0,0,1,1.91-.57,2.63,2.63,0,0,1,2.44,1.13,4.72,4.72,0,0,1,.31,3.32L101,180.84Z"/><path class="cls-16" d="M119.34,181.06a3.15,3.15,0,0,1-2.3-.8,3,3,0,0,1-.82-2.26,7,7,0,0,1,.82-3.39,7.73,7.73,0,0,1,2.28-2.6,10.84,10.84,0,0,1,3.43-1.66,14.89,14.89,0,0,1,4.27-.58h.18l-1.65,2.63a9.22,9.22,0,0,0-3.28.71,6,6,0,0,0-2.34,1.69,3.61,3.61,0,0,0-.87,2.36,1.1,1.1,0,0,0,1.25,1.26,2.66,2.66,0,0,0,2.16-1.16,7.63,7.63,0,0,0,1.31-3.26l0,4.54h-1.19L123.6,177a6.2,6.2,0,0,1-1.6,3A3.68,3.68,0,0,1,119.34,181.06Zm7-.12a9,9,0,0,1-1.16-.07,2.68,2.68,0,0,1-1-.34,1.47,1.47,0,0,1-.64-.8,2.87,2.87,0,0,1,0-1.45l.2-3.79.85-4.79a2.22,2.22,0,0,0-.06-1.38.85.85,0,0,0-.83-.44,4.34,4.34,0,0,0-.63.05,5.37,5.37,0,0,0-.66.17l-.33-2.59c.3-.07.61-.14.92-.19a6,6,0,0,1,.94-.07,3.31,3.31,0,0,1,3,1.23c.56.82.68,2.14.36,3.93l-1.15,6.64a3.59,3.59,0,0,0-.08.91.57.57,0,0,0,.33.49,2.42,2.42,0,0,0,1,.15h.43l-.41,2.34Z"/><path class="cls-16" d="M131.69,181.06a3.31,3.31,0,0,1-2.37-.8,3,3,0,0,1-.85-2.26,6.85,6.85,0,0,1,.83-3.35,7.69,7.69,0,0,1,2.3-2.57,11.37,11.37,0,0,1,3.47-1.64,15.64,15.64,0,0,1,4.33-.57h.25l-1.3,7.47a1.16,1.16,0,0,0,.14,1,1.62,1.62,0,0,0,1.11.27h.49l-.41,2.34h-1.12a4.78,4.78,0,0,1-1.71-.24,1.6,1.6,0,0,1-.83-.63,1.73,1.73,0,0,1-.23-.86,7.26,7.26,0,0,1,.06-.93l.67.26h-1.18l.64-1.38a6,6,0,0,1-1.66,2.88A3.8,3.8,0,0,1,131.69,181.06Zm.67-2.64a3.06,3.06,0,0,0,2.36-1.15,6.5,6.5,0,0,0,1.39-3.27l.53-3,1,1.48a8.58,8.58,0,0,0-2.47.44,7.12,7.12,0,0,0-2,1.06,4.89,4.89,0,0,0-1.34,1.54,3.85,3.85,0,0,0-.48,1.89,1,1,0,0,0,.25.74A1.13,1.13,0,0,0,132.36,178.42Z"/><path class="cls-16" d="M141.61,172.53l.45-2.56H152l-.45,2.56Zm5.64,8.52a4.3,4.3,0,0,1-2.87-.87,3.06,3.06,0,0,1-1-2.46q0-.47,0-.9c0-.29.05-.62.1-1s.11-.8.2-1.33l1.38-7.82h2.82l-1.38,7.82c-.11.67-.2,1.17-.24,1.51a9.36,9.36,0,0,0-.07,1.09,1.22,1.22,0,0,0,.37,1,1.81,1.81,0,0,0,1.18.31,7.87,7.87,0,0,0,1.36-.1,11,11,0,0,0,1.38-.36l.5,2.44a16,16,0,0,1-1.69.46A9.62,9.62,0,0,1,147.25,181.05Z"/><path class="cls-16" d="M157.9,181.05a4.15,4.15,0,0,1-3-1,3.88,3.88,0,0,1-1.07-2.9,8.28,8.28,0,0,1,1.6-5.4,5.44,5.44,0,0,1,4.45-1.94,4,4,0,0,1,3,1.06,4,4,0,0,1,1.07,3,8,8,0,0,1-1.6,5.32A5.47,5.47,0,0,1,157.9,181.05Zm.5-2.64a2.26,2.26,0,0,0,2-1.1,5.68,5.68,0,0,0,.71-3.06,2,2,0,0,0-.43-1.36,1.54,1.54,0,0,0-1.21-.49,2.31,2.31,0,0,0-2,1.1,5.6,5.6,0,0,0-.73,3.07,1.9,1.9,0,0,0,.45,1.35A1.59,1.59,0,0,0,158.4,178.41Z"/><path class="cls-16" d="M169.38,181.05c-.81,0-1.53,0-2.17-.08a13,13,0,0,1-1.67-.23l.8-2.66,2.19.25c.58,0,1,.08,1.31.08a6.52,6.52,0,0,0,2.1-.25q.69-.25.69-.75a.3.3,0,0,0-.14-.26,1,1,0,0,0-.39-.17l-3.77-1.15a1.9,1.9,0,0,1-1.06-.73,2.14,2.14,0,0,1-.34-1.25,3.36,3.36,0,0,1,1.66-3.07,9.89,9.89,0,0,1,5-1c.46,0,.94,0,1.44,0s1,.08,1.57.15l-.75,2.58c-.57-.05-1.08-.09-1.55-.11s-.87,0-1.23,0a8.86,8.86,0,0,0-2.4.24c-.54.16-.8.41-.8.74a.3.3,0,0,0,.13.25,1.52,1.52,0,0,0,.38.17l2.89.84a3.92,3.92,0,0,1,1.78,1,2.28,2.28,0,0,1,.59,1.59,3.16,3.16,0,0,1-1.56,2.88A9.16,9.16,0,0,1,169.38,181.05Z"/></g></g></svg>