<svg xmlns="http://www.w3.org/2000/svg" xmlns:xlink="http://www.w3.org/1999/xlink" viewBox="0 0 243.99 219.03"><defs><style>.cls-1{fill:#e7c2ca;stroke:#213385;stroke-miterlimit:10;stroke-width:3px;}.cls-2{fill:#213385;}</style></defs><title>sinDatos</title><g id="Capa_2" data-name="Capa 2"><g id="Capa_1-2" data-name="Capa 1"><path class="cls-1" d="M76.27,26.3S-24.32,67.16,7.85,144.77s203.74,129.7,231.83-40.34S76.27,26.3,76.27,26.3Z"/><image width="512" height="512" transform="translate(53.82 25.61) scale(0.27)" xlink:href="C:%5CUsers%5Camara%5CDownloads%5Cdatos.png"/><path class="cls-2" d="M71.43,181.05a10,10,0,0,1-4.49-.91l.64-2.58a10.4,10.4,0,0,0,4,.88,4.65,4.65,0,0,0,2.18-.4,1.3,1.3,0,0,0,.74-1.19,1,1,0,0,0-.21-.66,2.27,2.27,0,0,0-.68-.56l-3-1.81a3.26,3.26,0,0,1-1.34-1.48,4.24,4.24,0,0,1-.39-1.72,4.32,4.32,0,0,1,1.3-3.39A5.53,5.53,0,0,1,74,166.08a6.34,6.34,0,0,1,4.6,1.63L77.14,170a6.35,6.35,0,0,0-1.59-1,4.41,4.41,0,0,0-1.65-.33,2.74,2.74,0,0,0-1.57.37,1.24,1.24,0,0,0-.54,1.09,1.53,1.53,0,0,0,.27.86,2.69,2.69,0,0,0,.77.72l2.75,1.68A3.49,3.49,0,0,1,77,174.81a3.76,3.76,0,0,1,.39,1.7,4,4,0,0,1-1.51,3.39A7.32,7.32,0,0,1,71.43,181.05Z"/><path class="cls-2" d="M88.83,177.85l.71,2.34a9.91,9.91,0,0,1-1.32.61,4.93,4.93,0,0,1-1.6.25,4.16,4.16,0,0,1-2.92-.88,3,3,0,0,1-.84-2.55,6.8,6.8,0,0,1,.24-1.42c.12-.47.26-.92.42-1.36a11.56,11.56,0,0,0,.37-1.25.94.94,0,0,0-.12-.89,1.29,1.29,0,0,0-1-.3,7.21,7.21,0,0,0-1.87.24l-.22-2.59a7.57,7.57,0,0,1,1.21-.23c.41,0,.81,0,1.21,0a4.22,4.22,0,0,1,3.16,1,3,3,0,0,1,.43,2.86,10.23,10.23,0,0,1-.37,1.25c-.15.38-.28.77-.4,1.15a5.26,5.26,0,0,0-.23,1.23c-.06.79.38,1.19,1.3,1.19a2.75,2.75,0,0,0,.9-.13A5.09,5.09,0,0,0,88.83,177.85Zm-2.33-9.34a1.7,1.7,0,0,1-1.78-1.78,1.77,1.77,0,0,1,.49-1.28,1.78,1.78,0,0,1,3.06,1.28,1.7,1.7,0,0,1-.49,1.28A1.74,1.74,0,0,1,86.5,168.51Z"/><path class="cls-2" d="M91.83,180.84,93.74,170h2.44l-.08,2.6-1.45,8.27Zm6.38,0,1.15-6.56a1.92,1.92,0,0,0-.15-1.4,1.15,1.15,0,0,0-1-.48,2.17,2.17,0,0,0-1.1.3,2.5,2.5,0,0,0-.92,1,5.94,5.94,0,0,0-.58,1.9l.49-3.66h.36a3.18,3.18,0,0,1,1.11-1.6,3.07,3.07,0,0,1,1.91-.57,2.63,2.63,0,0,1,2.44,1.13,4.72,4.72,0,0,1,.31,3.32L101,180.84Z"/><path class="cls-2" d="M119.34,181.06a3.15,3.15,0,0,1-2.3-.8,3,3,0,0,1-.82-2.26,7,7,0,0,1,.82-3.39,7.73,7.73,0,0,1,2.28-2.6,10.84,10.84,0,0,1,3.43-1.66,14.89,14.89,0,0,1,4.27-.58h.18l-1.65,2.63a9.22,9.22,0,0,0-3.28.71,6,6,0,0,0-2.34,1.69,3.61,3.61,0,0,0-.87,2.36,1.1,1.1,0,0,0,1.25,1.26,2.66,2.66,0,0,0,2.16-1.16,7.63,7.63,0,0,0,1.31-3.26l0,4.54h-1.19L123.6,177a6.2,6.2,0,0,1-1.6,3A3.68,3.68,0,0,1,119.34,181.06Zm7-.12a9,9,0,0,1-1.16-.07,2.68,2.68,0,0,1-1-.34,1.47,1.47,0,0,1-.64-.8,2.87,2.87,0,0,1,0-1.45l.2-3.79.85-4.79a2.22,2.22,0,0,0-.06-1.38.85.85,0,0,0-.83-.44,4.34,4.34,0,0,0-.63.05,5.37,5.37,0,0,0-.66.17l-.33-2.59c.3-.07.61-.14.92-.19a6,6,0,0,1,.94-.07,3.31,3.31,0,0,1,3,1.23c.56.82.68,2.14.36,3.93l-1.15,6.64a3.59,3.59,0,0,0-.08.91.57.57,0,0,0,.33.49,2.42,2.42,0,0,0,1,.15h.43l-.41,2.34Z"/><path class="cls-2" d="M131.69,181.06a3.31,3.31,0,0,1-2.37-.8,3,3,0,0,1-.85-2.26,6.85,6.85,0,0,1,.83-3.35,7.69,7.69,0,0,1,2.3-2.57,11.37,11.37,0,0,1,3.47-1.64,15.64,15.64,0,0,1,4.33-.57h.25l-1.3,7.47a1.16,1.16,0,0,0,.14,1,1.62,1.62,0,0,0,1.11.27h.49l-.41,2.34h-1.12a4.78,4.78,0,0,1-1.71-.24,1.6,1.6,0,0,1-.83-.63,1.73,1.73,0,0,1-.23-.86,7.26,7.26,0,0,1,.06-.93l.67.26h-1.18l.64-1.38a6,6,0,0,1-1.66,2.88A3.8,3.8,0,0,1,131.69,181.06Zm.67-2.64a3.06,3.06,0,0,0,2.36-1.15,6.5,6.5,0,0,0,1.39-3.27l.53-3,1,1.48a8.58,8.58,0,0,0-2.47.44,7.12,7.12,0,0,0-2,1.06,4.89,4.89,0,0,0-1.34,1.54,3.85,3.85,0,0,0-.48,1.89,1,1,0,0,0,.25.74A1.13,1.13,0,0,0,132.36,178.42Z"/><path class="cls-2" d="M141.61,172.53l.45-2.56H152l-.45,2.56Zm5.64,8.52a4.3,4.3,0,0,1-2.87-.87,3.06,3.06,0,0,1-1-2.46q0-.47,0-.9c0-.29.05-.62.1-1s.11-.8.2-1.33l1.38-7.82h2.82l-1.38,7.82c-.11.67-.2,1.17-.24,1.51a9.36,9.36,0,0,0-.07,1.09,1.22,1.22,0,0,0,.37,1,1.81,1.81,0,0,0,1.18.31,7.87,7.87,0,0,0,1.36-.1,11,11,0,0,0,1.38-.36l.5,2.44a16,16,0,0,1-1.69.46A9.62,9.62,0,0,1,147.25,181.05Z"/><path class="cls-2" d="M157.9,181.05a4.15,4.15,0,0,1-3-1,3.88,3.88,0,0,1-1.07-2.9,8.28,8.28,0,0,1,1.6-5.4,5.44,5.44,0,0,1,4.45-1.94,4,4,0,0,1,3,1.06,4,4,0,0,1,1.07,3,8,8,0,0,1-1.6,5.32A5.47,5.47,0,0,1,157.9,181.05Zm.5-2.64a2.26,2.26,0,0,0,2-1.1,5.68,5.68,0,0,0,.71-3.06,2,2,0,0,0-.43-1.36,1.54,1.54,0,0,0-1.21-.49,2.31,2.31,0,0,0-2,1.1,5.6,5.6,0,0,0-.73,3.07,1.9,1.9,0,0,0,.45,1.35A1.59,1.59,0,0,0,158.4,178.41Z"/><path class="cls-2" d="M169.38,181.05c-.81,0-1.53,0-2.17-.08a13,13,0,0,1-1.67-.23l.8-2.66,2.19.25c.58,0,1,.08,1.31.08a6.52,6.52,0,0,0,2.1-.25q.69-.25.69-.75a.3.3,0,0,0-.14-.26,1,1,0,0,0-.39-.17l-3.77-1.15a1.9,1.9,0,0,1-1.06-.73,2.14,2.14,0,0,1-.34-1.25,3.36,3.36,0,0,1,1.66-3.07,9.89,9.89,0,0,1,5-1c.46,0,.94,0,1.44,0s1,.08,1.57.15l-.75,2.58c-.57-.05-1.08-.09-1.55-.11s-.87,0-1.23,0a8.86,8.86,0,0,0-2.4.24c-.54.16-.8.41-.8.74a.3.3,0,0,0,.13.25,1.52,1.52,0,0,0,.38.17l2.89.84a3.92,3.92,0,0,1,1.78,1,2.28,2.28,0,0,1,.59,1.59,3.16,3.16,0,0,1-1.56,2.88A9.16,9.16,0,0,1,169.38,181.05Z"/></g></g></svg>